<?xml version="1.0" standalone="no"?>
<!DOCTYPE svg PUBLIC "-//W3C//DTD SVG 1.1//EN" "http://www.w3.org/Graphics/SVG/1.1/DTD/svg11.dtd" >
<svg xmlns="http://www.w3.org/2000/svg" xmlns:xlink="http://www.w3.org/1999/xlink" version="1.1">
<metadata></metadata>
<defs>
<font id="alpaca_scarlett_demoregular" horiz-adv-x="1061" >
<font-face units-per-em="2048" ascent="1638" descent="-410" />
<missing-glyph horiz-adv-x="508" />
<glyph horiz-adv-x="0" />
<glyph unicode="&#xd;" horiz-adv-x="508" />
<glyph unicode=" "  horiz-adv-x="508" />
<glyph unicode="&#x09;" horiz-adv-x="508" />
<glyph unicode="&#xa0;" horiz-adv-x="508" />
<glyph unicode="!" horiz-adv-x="344" d="M60 0v247h224v-247h-224zM60 426v1210h224v-1210h-224z" />
<glyph unicode="&#x22;" horiz-adv-x="606" d="M60 1270v366h218v-366h-218zM339 1270v366h218v-366h-218z" />
<glyph unicode="#" horiz-adv-x="1021" d="M60 282v220h109v209h-109v220h109v171h220v-171h243v171h220v-171h109v-220h-109v-209h109v-220h-109v-171h-220v171h-243v-171h-220v171h-109zM389 502h243v209h-243v-209z" />
<glyph unicode="$" horiz-adv-x="1127" d="M60 1104q0 191 90 329q108 147 305 180v161h217v-166q178 -38 286 -175q109 -138 109 -329h-216q0 91 -41 163q-47 84 -138 117v-514q387 -85 387 -440q0 -148 -118 -264q-110 -106 -269 -140v-128h-217v126q-159 33 -264 145q-114 122 -114 294h216q0 -157 162 -214v438 q-200 46 -306 180q-89 113 -89 237zM276 1104q0 -31 27 -76q44 -79 152 -116v478q-110 -36 -155 -123q-24 -72 -24 -163zM672 251q72 26 120 73q51 51 51 106q0 78 -31 125q-39 62 -140 92v-396z" />
<glyph unicode="%" horiz-adv-x="1378" d="M60 0l1001 1636h242l-1001 -1636h-242zM60 1265q0 153 93 261q92 108 223 108t224 -108q92 -108 92 -261t-92 -261q-93 -108 -224 -108t-223 108q-93 108 -93 261zM268 1265q0 -64 32 -113q33 -48 76 -48t76 48q33 49 33 113q0 65 -33 113t-76 48t-76 -48 q-32 -48 -32 -113zM686 369q0 153 93 261q92 108 223 108t224 -108q92 -108 92 -261t-92 -261q-93 -108 -224 -108t-223 108q-93 108 -93 261zM894 369q0 -64 32 -113q33 -48 76 -48t76 48q33 49 33 113q0 65 -33 113t-76 48t-76 -48q-32 -48 -32 -113z" />
<glyph unicode="&#x26;" horiz-adv-x="1210" d="M60 453q0 226 207 365q-207 139 -207 365q0 174 135 303q124 128 316 157v115h225v-115q147 -22 258 -106q110 -83 156 -204l-170 -98q-20 67 -87 119q-66 51 -157 70v-496h147v-215h-147v-501q91 19 157 70q67 52 87 119l170 -98q-46 -121 -156 -204q-111 -84 -258 -106 v-115h-225v115q-192 29 -316 157q-135 129 -135 303zM260 453q0 -83 72 -151q70 -67 179 -91v484q-109 -24 -179 -90q-72 -68 -72 -152zM260 1183q0 -83 72 -151q70 -67 179 -91v484q-109 -24 -179 -91q-72 -68 -72 -151z" />
<glyph unicode="'" horiz-adv-x="283" d="M50 1272v365h198v-365h-198z" />
<glyph unicode="(" horiz-adv-x="849" d="M60 819q0 555 237 812q182 198 492 208v-218q-222 -8 -344 -147q-171 -194 -171 -655q0 -304 90 -502q128 -284 425 -300v-218q-343 13 -536 283q-193 269 -193 737z" />
<glyph unicode=")" horiz-adv-x="849" d="M60 17q296 16 425 300q90 198 90 502q0 461 -171 655q-122 139 -344 147v218q310 -10 492 -208q237 -257 237 -812q0 -468 -193 -737q-193 -270 -536 -283v218z" />
<glyph unicode="*" horiz-adv-x="553" d="M60 1431l47 119l106 -42v126h127v-126l106 42l47 -119l-107 -42l82 -95l-96 -84l-96 110l-95 -110l-97 84l83 95z" />
<glyph unicode="+" horiz-adv-x="947" d="M60 474v221h303v303h221v-303h303v-221h-303v-303h-221v303h-303z" />
<glyph unicode="," horiz-adv-x="329" d="M25 -134l62 166q-7 6 -13 13q-34 39 -30 89q4 51 42 83q39 34 89 30q51 -3 84 -41t29 -89q-2 -44 -103 -311z" />
<glyph unicode="-" horiz-adv-x="739" d="M58 408v221h640v-221h-640z" />
<glyph unicode="." horiz-adv-x="352" d="M37 139q0 58 41 98q41 41 99 41q57 0 97 -41q41 -40 41 -98q0 -57 -41 -98q-40 -41 -97 -41q-58 0 -99 41t-41 98z" />
<glyph unicode="/" horiz-adv-x="703" d="M60 0l360 1636h223l-360 -1636h-223z" />
<glyph unicode="0" horiz-adv-x="1357" d="M50 818q0 472 227 676q157 142 403 142t403 -142q227 -204 227 -676q0 -384 -167 -601t-463 -217t-463 217t-167 601zM282 818q0 -246 76 -393q99 -192 322 -192t322 192q76 147 76 393q0 351 -135 490q-93 96 -263 96t-263 -96q-135 -139 -135 -490z" />
<glyph unicode="1" horiz-adv-x="641" d="M50 1286l356 350h176v-1636h-223v1276l-152 -150z" />
<glyph unicode="2" horiz-adv-x="1160" d="M50 1078v7q0 184 99 335q135 204 401 215q21 1 42 1q250 0 391 -135q134 -129 134 -330q0 -197 -85 -314q-95 -132 -384 -302q-212 -124 -295 -332h764v-223h-1028l10 120q7 103 67 231q117 248 369 397q247 145 314 237q45 62 45 186q0 106 -66 169q-75 73 -236 73 q-16 0 -33 -1q-176 -7 -247 -158q-39 -82 -39 -174z" />
<glyph unicode="3" horiz-adv-x="1212" d="M50 509h221q0 -116 93 -199q98 -89 239 -89t239 89q93 83 93 199q0 115 -93 199q-98 88 -239 88h-187v221h187q104 0 177 64q66 57 66 135t-66 136q-73 63 -177 63q-105 0 -177 -63q-66 -58 -66 -136h-222q0 179 142 302q135 118 323 118t323 -118q141 -123 141 -302 q0 -175 -136 -297q30 -21 58 -46q167 -150 167 -364q0 -215 -167 -364q-160 -145 -386 -145t-387 145q-166 149 -166 364z" />
<glyph unicode="4" horiz-adv-x="1064" d="M60 514v1122h228v-894h488v894h228v-1636h-228v514h-716z" />
<glyph unicode="5" horiz-adv-x="1272" d="M60 549h113l114 1q1 -88 49 -170q90 -154 300 -154q204 0 285 106q61 80 64 282l-349 251h-576v771h1152v-227h-919v-317h442l477 -349q0 -356 -75 -494q-134 -249 -501 -249q-293 0 -455 203q-121 153 -121 346z" />
<glyph unicode="6" horiz-adv-x="1368" d="M50 578v77q0 290 33 431q42 182 109 285q82 127 206 194q131 71 299 71t299 -71q124 -67 206 -194l-190 -123q-51 78 -125 118q-80 43 -190 43t-190 -43q-74 -40 -125 -118q-52 -80 -78 -196q-1 -2 -2 -7q-1 -6 -1 -8q170 119 384 119q263 0 450 -170q186 -169 186 -408 t-186 -408q-187 -170 -450 -170q-262 0 -449 170q-186 169 -186 408zM277 578q0 -145 120 -248q120 -102 288 -102q169 0 289 102q120 103 120 248t-120 248t-289 103q-168 0 -288 -103t-120 -248z" />
<glyph unicode="7" horiz-adv-x="1330" d="M91 1419v217h1179l-806 -1636h-279l701 1419h-795z" />
<glyph unicode="8" horiz-adv-x="1426" d="M50 511q0 214 192 362q41 32 86 56q-147 120 -147 291q0 174 155 295q154 121 379 121q224 0 378 -121q155 -121 155 -295q0 -171 -147 -291q45 -24 86 -56q192 -148 192 -362q0 -216 -192 -363q-193 -148 -472 -148q-280 0 -473 148q-192 147 -192 363zM285 510 q0 -111 128 -193q127 -82 302 -82q174 0 301 82q128 82 128 193q0 112 -128 194q-127 82 -301 82q-175 0 -302 -82q-128 -82 -128 -194zM416 1219q0 -68 84 -122q88 -59 215 -59q126 0 215 59q83 54 83 122t-83 123q-89 59 -215 59q-127 0 -215 -59q-84 -55 -84 -123z" />
<glyph unicode="9" horiz-adv-x="1368" d="M50 1059q0 239 186 408q187 169 450 169q262 0 449 -169q186 -169 186 -408v-60q0 -308 -33 -448q-42 -182 -109 -286q-82 -126 -206 -194q-131 -71 -299 -71t-299 71q-124 68 -206 194l190 124q51 -78 125 -118q80 -44 190 -44t190 44q74 40 125 118q52 80 78 195 q1 3 2 8t1 7q-170 -118 -384 -118q-263 0 -450 169q-186 170 -186 409zM277 1059q0 -145 120 -248t289 -103q168 0 288 103t120 248t-120 247q-120 103 -288 103q-169 0 -289 -103q-120 -102 -120 -247z" />
<glyph unicode=":" horiz-adv-x="344" d="M60 335q0 46 33 79t79 33t79 -33t33 -79t-33 -79t-79 -33t-79 33t-33 79zM60 689q0 46 33 79t79 33t79 -33t33 -79t-33 -79t-79 -33t-79 33t-33 79z" />
<glyph unicode=";" horiz-adv-x="344" d="M60 689q0 46 33 79t79 33t79 -33t33 -79t-33 -79t-79 -33t-79 33t-33 79zM63 157v265h218v-265h-218z" />
<glyph unicode="&#x3c;" horiz-adv-x="635" d="M60 464l414 316l101 -204l-168 -112l168 -113l-101 -204z" />
<glyph unicode="=" horiz-adv-x="826" d="M60 256v221h706v-221h-706zM60 651v221h706v-221h-706z" />
<glyph unicode="&#x3e;" horiz-adv-x="635" d="M60 351l168 113l-168 112l101 204l414 -316l-414 -317z" />
<glyph unicode="?" horiz-adv-x="1212" d="M60 1134q0 211 164 359q159 143 382 143t382 -143q164 -148 164 -359q0 -212 -164 -360q-142 -127 -319 -141v-254h-221v471h175q122 0 219 87q91 82 91 197q0 114 -91 196q-97 87 -236 87t-236 -87q-91 -82 -91 -196h-219zM448 110q0 46 32 78q33 32 78 32q46 0 78 -32 t32 -78t-32 -78t-78 -32q-45 0 -78 32q-32 32 -32 78z" />
<glyph unicode="@" horiz-adv-x="2594" d="M70 460q0 205 217 293l86 15q6 -4 80 -10v252q2 10 10 10h212v-509h5l353 348h5v-91h81v242q1 10 10 10h207q10 0 10 -50q5 0 5 5q4 0 70 -21q8 0 36 36q-22 39 -36 45h-10q0 -35 -20 -35h-10q-10 0 -10 10v20q0 33 45 71h21q7 0 35 -56q20 -1 20 -10q20 8 20 15v10 q-30 46 -30 61v5q0 12 20 15q10 0 56 -55q45 11 45 55q4 35 20 35h15l46 -35h65q14 0 25 81l11 5q30 -13 30 -36l-5 -30v-10l35 -5h15q29 0 56 61h20q12 0 25 -76l25 -5h10l46 40h5q8 0 20 -20v-5l-5 -30q7 -20 15 -20h25q0 26 31 35h10q59 -52 60 -56q0 -12 -20 -55 q8 -23 30 -35h20q48 35 81 35l15 -25q0 -12 -45 -61v-20q5 0 15 -5q40 20 66 20h5q10 0 10 -15h10q10 0 10 10v5q-51 13 -51 25l10 5h21q0 -7 25 -20q0 -15 10 -15l10 5l5 -10q0 -5 -5 -5l5 -10q0 -5 -5 -5l5 -10v-10l-40 -51h-5l-15 10h-5q-11 -40 -11 -50v-5q6 -51 31 -51 q5 0 5 6q80 -14 80 -36v-15q-45 -37 -45 -45q5 -10 5 -15h20q39 0 46 -21q0 -26 -16 -30l-60 10q0 -5 -5 -5q5 -65 20 -65h25q26 0 26 10q55 -8 55 -25v-16q0 -7 -15 -15h-15q-10 0 -51 10q-60 0 -60 -60h5q38 -5 50 -10l31 5h5q27 0 35 -20q-5 -21 -20 -21q-7 0 -51 5 q-20 -21 -20 -40q7 0 30 -30v-15q0 -10 -10 -10h-5q-65 15 -85 15q-21 -39 -21 -51t66 -90v-10q-8 -21 -15 -21q-18 0 -66 56l-20 5q0 -19 -66 -25l-45 -41l56 -60v-10l-16 -10h-15q-27 0 -60 40q-10 5 -15 5q-41 -9 -41 -20v-5q10 -36 10 -41q0 -7 -15 -15h-25 q-49 51 -55 51q-13 0 -16 -20q11 -33 11 -46v-5q0 -7 -16 -15q-3 0 -60 50q-13 -32 -25 -35h-5q-27 0 -66 61h-5q-33 -56 -40 -56h-15q-10 0 -26 61q-18 15 -35 15q-8 0 -50 -56h-10q-8 0 -16 21q11 20 11 35q0 21 -46 30l-5 10l-55 -40q-16 18 -16 35q16 25 16 40 q-10 13 -10 21q-19 0 -61 -21q-25 9 -25 26l20 50q-15 16 -15 61q-132 -131 -141 -131q-29 23 -157 35q0 14 -55 25q-32 74 -56 76q-10 12 -10 25h-5v-136q0 -10 -10 -10h-388q-10 0 -10 10v151l-172 -166h-5v156l-146 -141q-71 0 -176 116q-51 65 -61 176zM125 445 q0 -147 167 -217q102 101 111 101v10l-10 -5h-10q-136 16 -136 131q24 126 126 126h5q126 -24 126 -126v-196q7 0 121 121v580h-121v-278l-5 -10q-57 30 -106 30h-36q-159 0 -226 -191q-6 -20 -6 -41v-35zM297 465q0 -69 86 -80q21 10 70 20v35q0 96 -70 96q0 5 -5 5 q-81 -17 -81 -76zM680 213h126v348q-7 0 -126 -126v-222zM862 208h121q10 0 10 10v283q14 85 86 85h75q10 -1 10 -10v-80q0 -243 157 -293l95 101q-121 26 -121 121v151q2 10 11 10h85q9 0 30 -136q85 -203 243 -282q100 -51 211 -51h26q35 0 55 10l10 -5q209 73 272 172 q111 147 111 333l-20 25v10l10 15v5l-10 15q5 10 5 15q-10 0 -10 10q0 5 5 5q-66 190 -227 288q-119 55 -237 55q-108 0 -151 -50q-17 -13 -111 -40q-102 -78 -116 -147q-45 -54 -81 -156h-5l-45 40h-50q-11 0 -11 10v243h-131v-243q0 -10 -10 -10h-70q-39 0 -86 -15l-5 10 v31h-5q-7 0 -126 -126v-409zM1038 400h10v5h-10v-5zM1053 319h10q0 10 -10 10v-10zM1053 380h10q0 10 -10 10v-10zM1053 496h5v10h-5v-10zM1154 148v15h15q10 -2 10 -10t-15 -16q-10 0 -10 11zM1280 1146v10h5q28 0 51 -35q0 -10 -10 -10q-35 14 -46 35zM1346 879 q17 0 25 -5q9 5 20 5q0 14 -40 70h-5v-70zM1477 173q5 -10 5 -15h5v15h-10zM1548 82h5q8 5 20 5q0 12 -25 15l5 -10zM1563 107h10v5h-10v-5zM1568 349h10v5l-10 15v16q0 12 20 15l25 -15h5q0 20 10 20l20 -51q-5 -45 -40 -45q-40 4 -40 40zM1583 420q13 25 20 25h5l-5 -10 q15 0 15 -10v-5q0 -7 -15 -15q-20 7 -20 15zM1593 143h5v10h-5v-10zM1598 122h10v5h-10v-5zM1608 445q0 22 30 25l-5 10q2 10 10 10h5v-5q-5 -9 -5 -15h5q9 5 21 5h20q20 -10 20 -15q23 15 30 15q116 -9 116 -30v-5h5l15 10h15l46 -30q-10 -5 -15 -5q0 -17 15 -35 q-3 -26 -25 -26v-5l20 -5q15 0 15 15q27 0 40 -25v-10q0 -7 -15 -15h-10l-25 15q0 -11 -5 -20q30 -13 30 -40q-12 0 -40 -16q-57 24 -66 51l-10 -5q-60 27 -60 60q5 0 5 5l10 -5h10q-10 17 -10 26h-5l-26 -16q-55 37 -55 71q-15 0 -15 10q5 0 5 5q-13 0 -40 10 q0 -10 -11 -10q-9 5 -15 5q0 -10 -10 -10h-20zM1618 117h15v5h-15v-5zM1623 773v25q0 7 15 15l-5 20q0 51 76 101h10q5 0 5 -5q79 35 96 35q10 -1 10 -10q0 -27 -56 -45l-5 -10l11 -5q9 5 15 5q15 -25 15 -40v-5q0 -8 -15 -16l-15 11h-6v-11q6 -15 31 -15l10 5q23 -9 25 -20 v-55q-32 -71 -121 -71q-30 0 -96 91zM1653 506q27 25 41 25l20 -5q18 0 55 55l31 5q7 -30 45 -50q5 -9 5 -20q-12 -10 -20 -10l-10 5q-44 -14 -136 -21q0 -5 -5 -5q-23 10 -26 21zM1664 21h5l15 11q-5 9 -5 15h-15v-5q5 -10 5 -15q-5 0 -5 -6zM1810 601v5q13 25 20 26l25 -5 q0 18 86 90h15q32 -10 45 -10q5 9 5 20q-26 16 -45 16q0 21 25 50q0 6 -15 50v11l15 20v10h-15q-27 0 -40 30q-15 0 -25 20q7 0 15 15q79 -20 80 -35l26 5q60 -21 111 -91v-5l-5 -10q40 -15 40 -50q20 -31 20 -41q-18 -156 -50 -156q-69 -29 -137 -35q0 -25 -50 -25 q-15 19 -15 30h-10q0 -15 -10 -15h-46q-7 0 -15 15q10 5 15 5v5l-10 15l-10 -5q-35 0 -35 35q-10 0 -10 10zM1825 62h5v10h-5v-10zM1840 329q2 -10 10 -10q10 5 15 5v10l-10 -5l-15 10v-10zM1845 934v10q51 -4 51 -15q-6 0 -6 -5q-10 5 -45 10zM1870 949v10h20q11 -1 11 -10 h-31zM1941 385v15q0 5 30 30h5q4 0 25 -35l11 5l-6 10q0 5 21 15l25 -5h15q4 0 55 45h5q11 -1 11 -10v-5q0 -15 -21 -55q0 -8 26 -51q-9 -25 -31 -25l-25 15q0 -62 -96 -70l-20 10q0 33 30 40l5 20q0 27 -60 40zM1971 632q2 -10 10 -10q8 25 36 25q0 10 -11 10 q-26 -25 -35 -25zM2042 374h10v16h-10v-16zM2102 339h20v10h-10q-10 -1 -10 -10zM2133 485q1 11 10 11q10 -2 10 -11q0 -10 -10 -10t-10 10z" />
<glyph unicode="A" horiz-adv-x="1396" d="M35 0l655 1639l656 -1639h-243l-81 203h-662l-81 -203h-244zM451 429h480l-241 601z" />
<glyph unicode="B" horiz-adv-x="1096" d="M60 0v1636h427q192 0 328 -136t136 -328q0 -184 -127 -317q98 -64 154 -166q58 -104 58 -225q0 -192 -136 -328t-328 -136h-512zM281 221h291q100 0 172 71q71 72 71 172q0 101 -71 173q-72 71 -172 71h-291v-487zM281 929h201q103 0 175 71q73 72 73 172q0 101 -71 172 q-72 71 -172 71h-206v-486z" />
<glyph unicode="C" horiz-adv-x="1499" d="M60 819q0 166 64 318q62 147 175 260q114 113 260 175q153 64 319 64t318 -64q136 -57 243 -158l-150 -150q-77 72 -175 114q-113 47 -236 47t-236 -47q-109 -47 -193 -131t-130 -192q-47 -114 -47 -236q0 -124 47 -237q46 -109 130 -192q84 -85 193 -131 q113 -47 236 -47t236 47q97 42 175 113l150 -150q-108 -100 -243 -158q-152 -64 -318 -64t-319 64q-146 62 -260 175q-113 114 -175 261q-64 152 -64 319z" />
<glyph unicode="D" horiz-adv-x="1310" d="M60 0v1636h372q167 0 318 -64q147 -62 261 -176q112 -112 174 -260q65 -151 65 -317q0 -168 -65 -319q-62 -147 -174 -260q-114 -113 -261 -175q-151 -65 -318 -65h-372zM286 227h146q120 0 230 46q106 45 188 127t128 188q46 110 46 231q0 120 -46 230q-46 106 -128 187 q-82 82 -188 127q-110 47 -230 47h-146v-1183z" />
<glyph unicode="E" horiz-adv-x="1066" d="M60 0v1636h946v-223h-722v-760h557v-224h-557v-205h722v-224h-946z" />
<glyph unicode="F" horiz-adv-x="1066" d="M60 0v1636h946v-223h-722v-760h557v-224h-557v-429h-224z" />
<glyph unicode="G" horiz-adv-x="1757" d="M60 818q0 83 16 165q17 79 48 153q31 73 76 139q44 65 100 122q55 55 120 100q66 44 140 74q74 32 153 48q82 17 166 17q83 0 165 -17q79 -16 153 -48q74 -30 139 -74q62 -43 115 -95l-149 -149q-39 38 -84 68q-49 33 -104 56q-55 24 -113 35q-61 13 -122 13t-123 -13 q-59 -11 -113 -35q-55 -23 -104 -56t-90 -74q-42 -42 -74 -90q-33 -49 -55 -103q-24 -55 -36 -114q-12 -60 -12 -122t12 -123q12 -58 36 -113q22 -54 55 -103q32 -49 74 -90q41 -42 90 -74q49 -34 104 -56q54 -24 113 -35q62 -13 123 -13t122 13q58 11 113 35q55 22 104 56 q49 32 89 74q42 41 75 90t55 103q24 55 36 113l4 17h-428v212h648v-106q0 -84 -17 -165q-16 -79 -47 -154q-31 -73 -76 -139q-44 -65 -100 -121q-55 -55 -121 -100q-66 -44 -139 -75q-74 -32 -153 -48q-82 -16 -165 -16t-166 16q-79 16 -153 48q-74 31 -140 75 q-65 45 -120 100q-56 56 -100 121q-45 66 -76 139q-31 75 -48 154q-16 81 -16 165z" />
<glyph unicode="H" horiz-adv-x="1218" d="M60 0v1636h223v-983h653v983h222v-1636h-222v429h-653v-429h-223z" />
<glyph unicode="I" horiz-adv-x="343" d="M60 0v1636h223v-1636h-223z" />
<glyph unicode="J" horiz-adv-x="926" d="M60 0v224q241 0 413 170q170 171 170 413v829h223v-829q0 -335 -236 -570q-236 -237 -570 -237z" />
<glyph unicode="K" horiz-adv-x="1238" d="M60 0v1636h223v-528l528 528h315l-640 -640l821 -996h-289l-735 890v-890h-223z" />
<glyph unicode="L" horiz-adv-x="1076" d="M66 0v1636h223v-1412h727v-224h-950z" />
<glyph unicode="M" horiz-adv-x="1657" d="M60 0v1636l769 -1177l768 1177v-1636h-220v851l-548 -851l-549 851v-851h-220z" />
<glyph unicode="N" horiz-adv-x="1309" d="M60 0v1636l969 -1053v1053h220v-1636l-968 1070v-1070h-221z" />
<glyph unicode="O" horiz-adv-x="1756" d="M60 819q0 337 240 578q240 239 579 239q337 0 578 -239q239 -241 239 -578q0 -339 -239 -579q-241 -240 -578 -240q-339 0 -579 240t-240 579zM276 819q0 -250 176 -427q177 -176 427 -176q249 0 426 176q177 177 177 427q0 249 -177 426t-426 177q-250 0 -427 -177 q-176 -177 -176 -426z" />
<glyph unicode="P" horiz-adv-x="1150" d="M60 0v1636h395q263 0 449 -186t186 -449q0 -264 -186 -450t-449 -186h-164v-365h-231zM291 596h164q168 0 286 118q119 119 119 287q0 167 -119 285q-118 119 -286 119h-164v-809z" />
<glyph unicode="Q" horiz-adv-x="1768" d="M60 818q0 338 240 578t578 240t578 -240t240 -578q0 -275 -166 -494l323 -324h-315l-166 166q-219 -166 -494 -166q-338 0 -578 240t-240 578zM275 818q0 -249 177 -426t426 -177q186 0 340 106l-182 181l158 158l181 -182q106 154 106 340q0 249 -177 426t-426 177 t-426 -177t-177 -426z" />
<glyph unicode="R" horiz-adv-x="1183" d="M76 0v1636h405q263 0 449 -186t186 -449q0 -264 -186 -450q-65 -64 -144 -109l347 -442h-294l-290 365h-242v-365h-231zM307 596h174q167 0 286 119q119 118 119 286t-119 286q-119 119 -286 119h-174v-810z" />
<glyph unicode="S" horiz-adv-x="1146" d="M60 1127q0 187 112 332q139 177 388 177q229 0 377 -148q149 -148 149 -397h-220q0 142 -68 225q-82 100 -238 100q-173 0 -243 -143q-36 -74 -36 -146q0 -63 43 -119q75 -98 258 -118q278 -32 401 -181q95 -113 95 -285q0 -175 -144 -299.5t-365 -124.5q-194 0 -337 118 q-155 131 -155 350h221q0 -125 96 -193q78 -54 175 -54q121 0 204.5 61t83.5 176q0 76 -51 119q-70 73 -250 93q-252 30 -385 176q-111 121 -111 281z" />
<glyph unicode="T" horiz-adv-x="1142" d="M58 1412v224h1026v-224h-400v-1412h-226v1412h-400z" />
<glyph unicode="U" horiz-adv-x="1350" d="M60 615v1021h224v-1021q0 -162 114 -276q115 -115 277 -115t277 115q114 114 114 276v1021h224v-1021q0 -254 -180 -435q-180 -180 -435 -180t-435 180q-180 181 -180 435z" />
<glyph unicode="V" horiz-adv-x="1429" d="M60 1636h241l413 -1034l414 1034h241l-655 -1636z" />
<glyph unicode="W" horiz-adv-x="2178" d="M60 1636h244l405 -998l380 998l380 -998l405 998h244l-649 -1636l-380 1004l-380 -1004z" />
<glyph unicode="X" horiz-adv-x="1464" d="M60 0l538 819l-538 817h268l404 -614l405 614h267l-538 -817l538 -819h-267l-405 615l-404 -615h-268z" />
<glyph unicode="Y" horiz-adv-x="1567" d="M60 1636h250l473 -947l473 947h251l-612 -1223v-413h-224v413z" />
<glyph unicode="Z" horiz-adv-x="1196" d="M60 1415v221h1070l-707 -1415h713v-221h-1071l707 1415h-712z" />
<glyph unicode="[" horiz-adv-x="500" d="M60 -351v2343h380v-214h-166v-1915h166v-214h-380z" />
<glyph unicode="\" horiz-adv-x="703" d="M60 1636h223l360 -1636h-223z" />
<glyph unicode="]" horiz-adv-x="500" d="M60 -137h166v1915h-166v214h380v-2343h-380v214z" />
<glyph unicode="^" horiz-adv-x="541" d="M60 1309l210 316l211 -316l-131 -87l-80 120l-79 -120z" />
<glyph unicode="_" horiz-adv-x="904" d="M60 0v224h784v-224h-784z" />
<glyph unicode="`" horiz-adv-x="501" d="M32 1186l92 198l349 -193l-92 -198z" />
<glyph unicode="a" d="M60 470q0 194 139 331q137 139 331 139q195 0 333 -139q138 -137 138 -331v-470h-221v70q-111 -70 -250 -70q-194 0 -331 138q-139 138 -139 332zM285 470q0 -101 71 -174q73 -72 174 -72q102 0 175 72q72 73 72 174t-72 174q-73 72 -175 72q-101 0 -174 -72 q-71 -73 -71 -174z" />
<glyph unicode="b" d="M60 470v1166h221v-765q112 70 249 70q195 0 333 -139q138 -137 138 -332q0 -194 -138 -332t-333 -138q-194 0 -331 138q-139 138 -139 332zM285 470q0 -101 71 -174q73 -72 174 -72q102 0 175 72q72 73 72 174q0 102 -72 175q-73 72 -175 72q-101 0 -174 -72 q-71 -73 -71 -175z" />
<glyph unicode="c" horiz-adv-x="987" d="M60 470q0 194 139 331q137 139 331 139q195 0 333 -139q37 -36 64 -77l-180 -135q-17 29 -42 55q-73 72 -175 72q-101 0 -174 -72q-71 -73 -71 -174t71 -174q73 -72 174 -72q102 0 175 72q26 26 42 55l180 -135q-27 -41 -64 -78q-138 -138 -333 -138q-194 0 -331 138 q-139 138 -139 332z" />
<glyph unicode="d" d="M60 470q0 195 138 332q138 139 333 139q137 0 249 -70v765h221v-1166q0 -194 -139 -332q-137 -138 -331 -138q-195 0 -333 138t-138 332zM284 470q0 -101 72 -174q73 -72 175 -72q101 0 174 72q71 73 71 174q0 102 -71 175q-73 72 -174 72q-102 0 -175 -72 q-72 -73 -72 -175z" />
<glyph unicode="e" horiz-adv-x="1064" d="M60 453v15q0 90 32 172q34 86 96 152q66 70 153 107q85 38 177 41h10q89 0 172 -33q85 -34 152 -97q80 -77 152 -253l-630 -277q31 -25 66 -39q44 -17 89 -17h10q46 2 90 21q45 20 80 56q31 36 50 79l208 -80q-34 -85 -96 -152q-65 -70 -152 -107q-83 -38 -173 -41h-14 q-89 0 -172 32q-86 34 -152 97q-70 65 -107 152q-38 82 -41 172zM284 484l401 176q-30 24 -65 39q-46 17 -94 17h-4q-47 -2 -91 -21q-47 -21 -81 -56q-30 -36 -49 -79q-15 -38 -17 -76z" />
<glyph unicode="f" horiz-adv-x="766" d="M60 429v224h162v398q0 308 180 465q137 119 309 119v-111l1 -111q-84 -1 -151 -54q-118 -92 -118 -308v-398h162v-224h-162v-429h-221v429h-162z" />
<glyph unicode="g" horiz-adv-x="1059" d="M60 470q0 195 139 332q137 139 331 139q195 0 333 -139q136 -137 136 -332v-565q0 -306 -180 -462q-136 -119 -307 -119v110l-1 111q83 2 150 54q117 91 117 306v164q-110 -69 -248 -69q-194 0 -331 138q-139 138 -139 332zM285 470q0 -101 71 -174q73 -72 174 -72 q102 0 175 72q72 73 72 174q0 102 -72 175q-73 72 -175 72q-101 0 -174 -72q-71 -73 -71 -175z" />
<glyph unicode="h" horiz-adv-x="1053" d="M60 0v1636h221v-768q113 72 249 72q191 0 327 -135q136 -136 136 -328v-477h-221v477q0 101 -71 171q-71 72 -171 72t-172 -72q-71 -70 -71 -171v-477h-227z" />
<glyph unicode="i" horiz-adv-x="398" d="M60 800q0 58 41 99t99 41q57 0 97 -41q41 -41 41 -99q0 -57 -41 -99q-40 -41 -97 -41q-58 0 -99 41q-41 42 -41 99zM89 0v560h221v-560h-221z" />
<glyph unicode="j" horiz-adv-x="401" d="M-174 -455q83 2 150 54q117 91 117 306v655h221v-655q0 -306 -180 -462q-136 -119 -307 -119v110zM64 800q0 58 41 99t99 41q57 0 97 -41q41 -41 41 -99q0 -57 -41 -99q-40 -41 -97 -41q-58 0 -99 41q-41 42 -41 99z" />
<glyph unicode="k" horiz-adv-x="924" d="M60 0v1636h221v-951l254 255h312l-370 -370l470 -570h-287l-379 460v-460h-221z" />
<glyph unicode="l" horiz-adv-x="341" d="M60 0v1636h221v-1636h-221z" />
<glyph unicode="m" horiz-adv-x="1456" d="M60 0v551q0 161 114 275t274 114q165 0 280 -119q115 119 280 119q161 0 274 -114q114 -114 114 -275v-551h-219v551q0 70 -50 120q-49 49 -119 49t-119 -49q-50 -50 -50 -120v-551h-222v551q0 70 -49 120q-50 49 -120 49q-69 0 -119 -49q-49 -50 -49 -120v-551h-220z " />
<glyph unicode="n" horiz-adv-x="1053" d="M60 0v473q0 193 137 330t330 137q192 0 329 -137t137 -330v-473h-222v473q0 101 -72 173q-72 71 -172 71q-101 0 -173 -71q-72 -72 -72 -173v-473h-222z" />
<glyph unicode="o" horiz-adv-x="1060" d="M60 470q0 194 139 331q137 139 331 139t332 -139q138 -137 138 -331t-138 -332t-332 -138t-331 138q-139 138 -139 332zM285 470q0 -101 71 -174q73 -72 174 -72t174 72q72 73 72 174t-72 174q-73 72 -174 72t-174 -72q-71 -73 -71 -174z" />
<glyph unicode="p" d="M62 -95v565q0 195 136 332q138 139 333 139q194 0 331 -139q139 -137 139 -332q0 -194 -139 -332q-137 -138 -331 -138q-138 0 -248 69v-164q0 -215 117 -306q67 -52 150 -54l-1 -111v-110q-171 0 -307 119q-180 156 -180 462zM284 470q0 -101 72 -174q73 -72 175 -72 q101 0 174 72q71 73 71 174q0 102 -71 175q-73 72 -174 72q-102 0 -175 -72q-72 -73 -72 -175z" />
<glyph unicode="q" horiz-adv-x="1051" d="M60 470q0 195 139 332q137 139 331 139q195 0 333 -139q138 -137 138 -332v-565q0 -215 117 -306q67 -52 150 -54l-1 -111v-110q-171 0 -307 119q-180 156 -182 462v164q-110 -69 -248 -69q-194 0 -331 138q-139 138 -139 332zM285 470q0 -101 71 -174q73 -72 174 -72 q102 0 175 72q72 73 72 174q0 102 -72 175q-73 72 -175 72q-101 0 -174 -72q-71 -73 -71 -175z" />
<glyph unicode="r" horiz-adv-x="582" d="M60 0v940h221v-69q32 20 61 32q86 36 180 36v-220q-49 0 -94 -19q-43 -19 -77 -53q-34 -33 -51 -76q-19 -29 -19 -86v-485h-221z" />
<glyph unicode="s" horiz-adv-x="750" d="M60 628q0 122 80 212q87 100 228 100q140 0 231 -91q91 -92 91 -230h-218q0 102 -104 102q-90 0 -90 -93q0 -57 108 -70q172 -20 248 -121q52 -69 52 -168q0 -118 -92.5 -193.5t-220.5 -75.5q-120 0 -208 76q-96 83 -96 209h218q0 -41 43 -58q22 -9 43 -9q41 0 66 12 t29 39q0 29 -14 42q-23 23 -93 32q-146 16 -228 104q-73 78 -73 181z" />
<glyph unicode="t" horiz-adv-x="692" d="M60 1111v211h181v314h210v-314h181v-211h-181v-1111h-210v1111h-181z" />
<glyph unicode="u" horiz-adv-x="1048" d="M60 463v477h223v-477q0 -100 70 -171q72 -71 171 -71t171 71q70 71 70 171v477h223v-477q0 -192 -136 -327q-135 -136 -327 -136h-2q-192 0 -327 136q-136 135 -136 327z" />
<glyph unicode="v" horiz-adv-x="1015" d="M60 940h235l213 -585l212 585h235l-341 -940h-212z" />
<glyph unicode="w" horiz-adv-x="1258" d="M60 940h224l106 -582l238 558l240 -558l106 582h224l-170 -940h-247l-153 356l-152 -356h-246z" />
<glyph unicode="x" horiz-adv-x="1107" d="M60 0l354 471l-354 469h276l217 -286l216 286h278l-355 -469l355 -471h-278l-216 286l-217 -286h-276z" />
<glyph unicode="y" horiz-adv-x="1062" d="M70 462v478h221v-478q0 -100 71 -171q72 -71 171 -71q100 0 172 71q71 71 71 171v478h221v-1035q0 -306 -181 -462q-135 -119 -306 -119v110l-2 111q84 2 150 54q118 91 118 306v163q-112 -68 -243 -68q-191 0 -326 135q-137 136 -137 327z" />
<glyph unicode="z" horiz-adv-x="924" d="M50 0l418 719h-414v220h816l-419 -718h415v-221h-816z" />
<glyph unicode="{" horiz-adv-x="783" d="M60 924q71 1 123 37q87 60 87 198q0 241 56 376q104 248 396 248v-217q-117 0 -166 -63q-69 -88 -69 -344q0 -211 -132 -336q158 -143 158 -524q0 -138 87 -197q52 -36 123 -38l-1 -217q-156 0 -277 102q-149 125 -149 350q0 256 -69 345q-49 62 -166 62v109z" />
<glyph unicode="|" horiz-adv-x="343" d="M60 -130v1894h223v-1894h-223z" />
<glyph unicode="}" horiz-adv-x="783" d="M60 64q71 2 123 38q87 59 87 197q0 381 158 524q-132 125 -132 336q0 256 -69 344q-49 63 -166 63v217q292 0 396 -248q56 -135 56 -376q0 -138 87 -198q52 -36 123 -37l-1 -109v-109q-117 0 -166 -62q-69 -89 -69 -345q0 -225 -149 -350q-121 -102 -277 -102z" />
<glyph unicode="~" horiz-adv-x="999" d="M60 907v235q103 -48 204 -48q17 0 33 1q72 5 202 47q131 42 202 47q16 1 33 1q102 0 205 -48v-235q-103 48 -205 48q-17 0 -33 -1q-71 -5 -202 -47q-130 -42 -202 -47q-16 -1 -33 -1q-101 0 -204 48z" />
<glyph unicode="&#xa1;" horiz-adv-x="344" d="M60 0v1210h224v-1210h-224zM60 1389v247h224v-247h-224z" />
<glyph unicode="&#xa2;" horiz-adv-x="807" d="M60 983q0 81 31 155q30 71 85 125q55 55 126 85q74 31 154 31q24 0 50 -3l53 175l127 -38l-53 -175q56 -28 100 -72l14 -13l-96 -97l-14 14q-20 19 -44 34l-145 -480h8q53 0 101 20q45 19 80 53l14 14l96 -97l-14 -14q-54 -52 -123 -81q-73 -32 -154 -32q-24 0 -49 3 l-48 -161l-128 38l49 162q-58 28 -104 74q-55 55 -85 126q-31 74 -31 154zM196 983q0 -53 21 -101q19 -46 55 -82q22 -22 48 -38l146 481h-10q-53 0 -101 -20q-47 -20 -83 -56t-55 -83q-21 -48 -21 -101z" />
<glyph unicode="&#xa3;" horiz-adv-x="1136" d="M60 220q0 122 95 208q81 74 208 89v18q0 102 -10 246h-261v216h244q-12 148 -12 219q0 261 215 368q88 45 188 50l30 2v-201l-26 -2q-75 -6 -126 -42q-80 -57 -80 -175q0 -65 13 -219h277v-216h-260q10 -145 10 -247v-33q114 -34 249 -170q66 -66 102 -89q59 -37 132 -40 l28 -1v-201l-30 1q-126 3 -228 65q-60 37 -146 123q-81 81 -127 104q-27 -139 -94 -212q-74 -81 -186 -81q-88 0 -146 63q-59 63 -59 157zM261 220q0 -15 4 -19q24 1 38 16q26 28 40 91q-32 -10 -53 -29q-29 -26 -29 -59z" />
<glyph unicode="&#xa4;" horiz-adv-x="608" d="M60 512l53 134l119 -47v142h144v-142l119 47l53 -134l-120 -47l92 -107l-108 -95l-108 124l-108 -124l-109 95l94 107zM237 502q0 -26 19.5 -45t47.5 -19t47.5 19t19.5 45t-19.5 45t-47.5 19t-47.5 -19t-19.5 -45z" />
<glyph unicode="&#xa5;" horiz-adv-x="1567" d="M60 1636h250l473 -947l473 947h251l-536 -1071h232v-171h-308v-85h208v-170h-208v-139h-224v139h-206v170h206v85h-306v171h230z" />
<glyph unicode="&#xa6;" horiz-adv-x="1014" />
<glyph unicode="&#xa7;" horiz-adv-x="738" d="M60 772q0 147 104 237q-99 74 -99 212q0 108 98 184q93 72 207 72q117 0 203 -73q93 -80 93 -203v-10h-148v10q0 63 -52 99q-43 29 -96 29q-54 0 -105 -33q-52 -34 -52 -75q0 -54 25 -81q38 -41 141 -53q167 -19 242 -113q57 -72 57 -181q0 -151 -104 -220 q97 -74 97 -210q0 -108 -99 -185q-92 -71 -207 -71q-116 0 -202 73q-93 80 -93 203v10h148v-10q0 -63 52 -99q43 -29 95 -29q55 0 105 32q53 35 53 76q0 53 -25 81q-38 41 -141 53q-151 17 -231 105q-66 73 -66 170zM210 783q0 -46 42 -85q48 -44 123 -44q77 0 117 45 q34 37 34 92q0 48 -43 90q-49 49 -122 49q-80 0 -121 -54q-30 -41 -30 -93z" />
<glyph unicode="&#xa8;" horiz-adv-x="656" d="M60 1003v224h218v-224h-218zM378 1003v224h218v-224h-218z" />
<glyph unicode="&#xa9;" horiz-adv-x="1311" d="M60 736q0 247 175 421q174 175 421 175q246 0 420 -175q175 -174 175 -421q0 -246 -175 -420q-174 -175 -420 -175q-247 0 -421 175q-175 174 -175 420zM195 736q0 -190 135 -325t326 -135q190 0 325 135t135 325q0 191 -135 326t-325 135q-191 0 -326 -135t-135 -326z M322 736q0 71 28 136q26 63 74 111q49 49 111 75q65 28 136 28t136 -28q61 -26 109 -72l23 -23l-103 -103l-23 22q-27 27 -62 42q-38 16 -80 16q-41 0 -79 -16q-36 -16 -64 -44q-29 -28 -44 -64q-16 -38 -16 -80q0 -41 16 -79q15 -36 44 -65q28 -28 64 -43q38 -16 79 -16 q42 0 80 16q35 15 62 41l23 22l103 -103l-23 -22q-48 -47 -109 -72q-65 -28 -136 -28t-136 28q-62 26 -110 74q-49 49 -75 111q-28 65 -28 136z" />
<glyph unicode="&#xaa;" horiz-adv-x="648" />
<glyph unicode="&#xab;" horiz-adv-x="660" d="M60 515l189 366l86 -225l-76 -141l76 -143l-86 -225zM325 515l189 366l86 -225l-76 -141l76 -143l-86 -225z" />
<glyph unicode="&#xac;" horiz-adv-x="1014" />
<glyph unicode="&#xad;" horiz-adv-x="739" d="M58 408v221h640v-221h-640z" />
<glyph unicode="&#xae;" horiz-adv-x="1311" d="M60 720q0 246 175 420q174 175 421 175q246 0 420 -175q175 -174 175 -420q0 -247 -175 -421q-174 -175 -420 -175q-247 0 -421 175q-175 174 -175 421zM195 720q0 -191 135 -326t326 -135q190 0 325 135t135 326q0 190 -135 325t-325 135q-191 0 -326 -135t-135 -325z M451 384v671h182q111 0 190 -78q78 -79 78 -190t-78 -189q-14 -14 -30 -26l148 -188h-190l-107 136q-5 -1 -11 -1h-32v-135h-150zM601 669h32q49 0 84 35q35 34 35 83t-35 84t-84 35h-32v-237z" />
<glyph unicode="&#xaf;" horiz-adv-x="670" />
<glyph unicode="&#xb0;" horiz-adv-x="504" d="M60 1511q0 79 56 135t135 56t135 -56t56 -135t-56 -135t-135 -56t-135 56t-56 135zM151 1511q0 -41 29 -71q30 -29 71 -29t71 29q29 30 29 71t-29 71q-30 29 -71 29t-71 -29q-29 -30 -29 -71z" />
<glyph unicode="&#xb1;" horiz-adv-x="947" d="M60 0v224h784v-224h-784zM60 627v221h303v303h221v-303h303v-221h-303v-303h-221v303h-303z" />
<glyph unicode="&#xb2;" horiz-adv-x="397" d="M60 1490v2q0 48 26 87q35 54 105 57h11q66 0 103 -35q35 -34 35 -87q0 -51 -23 -82q-25 -35 -100 -79q-56 -33 -78 -87h201v-59h-270l3 32q2 27 17 60q31 65 97 104q65 38 82 62q12 17 12 49q0 28 -17 44q-20 20 -62 20q-4 0 -9 -1q-46 -2 -64 -41q-11 -22 -11 -46h-58z " />
<glyph unicode="&#xb3;" horiz-adv-x="414" d="M59 1341h58q0 -31 24 -53q26 -23 63 -23t63 23q24 22 24 53q0 30 -24 52q-26 23 -63 23h-46v58h46q27 0 46 17q18 14 18 35q0 20 -18 36q-19 16 -46 16q-28 0 -46 -16t-18 -36h-58q0 47 37 79q36 31 85 31t85 -31q37 -32 37 -79q0 -46 -36 -78q8 -5 15 -12q44 -39 44 -95 q0 -57 -44 -96q-42 -38 -101 -38t-101 38q-44 39 -44 96z" />
<glyph unicode="&#xb4;" horiz-adv-x="501" d="M32 1191l349 193l92 -198l-349 -193z" />
<glyph unicode="&#xb5;" horiz-adv-x="1180" />
<glyph unicode="&#xb6;" horiz-adv-x="1024" />
<glyph unicode="&#xb7;" horiz-adv-x="342" d="M62 361v224h218v-224h-218z" />
<glyph unicode="&#xb8;" horiz-adv-x="362" d="M-140 -338h134q0 -22 9 -36q18 -28 68 -44q52 -17 102 -17q44 0 91 13q89 25 89 84q0 60 -89 85q-47 13 -91 13h-66v291h133v-163q100 -15 164 -63q83 -61 83 -163q0 -121 -116 -184q-87 -47 -198 -47q-72 0 -144 24q-82 27 -125 81q-44 53 -44 126z" />
<glyph unicode="&#xb9;" horiz-adv-x="246" d="M53 1544l93 92h46v-429h-58v335l-40 -40z" />
<glyph unicode="&#xba;" horiz-adv-x="409" d="M40 1422q0 123 59 177q42 37 106 37q65 0 106 -37q59 -54 59 -177q0 -101 -44 -158q-43 -57 -121 -57q-77 0 -121 57t-44 158zM101 1422q0 -65 20 -103q26 -51 84 -51q59 0 84 51q20 38 20 103q0 92 -35 128q-24 25 -69 25q-44 0 -69 -25q-35 -36 -35 -128z" />
<glyph unicode="&#xbb;" horiz-adv-x="660" d="M60 372l76 143l-76 141l86 225l189 -366l-189 -368zM325 372l76 143l-76 141l86 225l189 -366l-189 -368z" />
<glyph unicode="&#xbc;" horiz-adv-x="1287" d="M81 1469l170 167h84v-781h-106v609l-73 -71zM311 0l360 1636h123l-360 -1636h-123zM751 436v345h109v-236h233v236h109v-781h-109v436h-342z" />
<glyph unicode="&#xbd;" horiz-adv-x="1299" d="M81 1469l170 167h84v-781h-106v609l-73 -71zM281 0l360 1636h123l-360 -1636h-123zM687 515v3q0 88 48 160q64 97 191 103h20q119 0 187 -64q64 -62 64 -158q0 -94 -41 -150q-45 -63 -183 -144q-101 -59 -141 -159h365v-106h-491l5 57q3 49 32 111q56 118 176 189 q118 69 150 113q21 30 21 89q0 51 -31 81q-36 35 -113 35q-8 0 -16 -1q-84 -3 -118 -75q-18 -39 -18 -83z" />
<glyph unicode="&#xbe;" horiz-adv-x="1456" d="M89 1098h106q0 -55 44 -95q47 -43 114 -43t114 43q45 40 45 95t-45 95q-47 42 -114 42h-84v105h84q50 0 85 31q31 27 31 64q0 38 -31 65q-35 30 -85 30t-84 -30q-32 -27 -32 -65h-106q0 86 68 145q64 56 154 56t154 -56q68 -59 68 -145q0 -83 -65 -141q14 -10 27 -22 q80 -72 80 -174q0 -103 -80 -174q-76 -69 -184 -69t-185 69q-79 71 -79 174zM489 0l360 1636h123l-360 -1636h-123zM914 436v345h108v-236h233v236h109v-781h-109v436h-341z" />
<glyph unicode="&#xbf;" horiz-adv-x="1181" d="M48 502q0 212 164 360q142 127 319 141v254h221v-471h-175q-122 0 -219 -87q-91 -82 -91 -197q0 -114 91 -196q97 -87 236 -87t236 87q91 82 91 196h219q0 -211 -164 -359q-159 -143 -382 -143t-382 143q-164 148 -164 359zM532 1526q0 46 32 78t78 32q45 0 78 -32 q32 -32 32 -78t-32 -78q-33 -32 -78 -32q-46 0 -78 32t-32 78z" />
<glyph unicode="&#xc0;" horiz-adv-x="1431" d="M60 0l655 1639l656 -1639h-243l-81 203h-662l-81 -203h-244zM476 429h480l-241 601zM511 1826l92 198l349 -193l-92 -198z" />
<glyph unicode="&#xc1;" horiz-adv-x="1431" d="M60 0l655 1639l656 -1639h-243l-81 203h-662l-81 -203h-244zM476 429h480l-241 601zM478 1833l349 193l92 -198l-349 -193z" />
<glyph unicode="&#xc2;" horiz-adv-x="1431" d="M60 0l655 1639l656 -1639h-243l-81 203h-662l-81 -203h-244zM450 1749l259 338l258 -338l-167 -103l-91 128l-92 -128zM476 429h480l-241 601z" />
<glyph unicode="&#xc3;" horiz-adv-x="1431" d="M60 0l655 1639l656 -1639h-243l-81 203h-662l-81 -203h-244zM347 1697v235q84 -58 167 -58q14 0 27 1q58 5 165 57t165 57q13 1 27 1q83 0 167 -58v-235q-84 58 -167 58q-14 0 -27 -1q-58 -5 -165 -57t-165 -57q-13 -1 -27 -1q-83 0 -167 58zM476 429h480l-241 601z" />
<glyph unicode="&#xc4;" horiz-adv-x="1431" d="M60 0l655 1639l656 -1639h-243l-81 203h-662l-81 -203h-244zM438 1692v224h218v-224h-218zM476 429h480l-241 601zM756 1692v224h218v-224h-218z" />
<glyph unicode="&#xc5;" horiz-adv-x="1431" d="M60 0l628 1572q-62 8 -108 54q-56 56 -56 135t56 135t135 56q78 0 134 -56q57 -56 57 -135t-57 -135q-46 -46 -107 -54l629 -1572h-243l-81 203h-662l-81 -203h-244zM476 429h480l-241 601zM615 1761q0 -41 29 -71q29 -29 71 -29q41 0 70 29q29 30 29 71t-29 71 q-29 29 -70 29q-42 0 -71 -29q-29 -30 -29 -71z" />
<glyph unicode="&#xc6;" horiz-adv-x="1847" d="M60 0l655 1639l1 -3h1060v-223h-898l319 -760h449v-224h-355l86 -205h399v-224h-648l-81 203h-662l-81 -203h-244zM476 429h480l-241 601z" />
<glyph unicode="&#xc7;" horiz-adv-x="1499" d="M60 819q0 166 64 318q62 147 175 260q114 113 260 175q153 64 319 64t318 -64q136 -57 243 -158l-150 -150q-77 72 -175 114q-113 47 -236 47t-236 -47q-109 -47 -193 -131t-130 -192q-47 -114 -47 -236q0 -124 47 -237q46 -109 130 -192q84 -85 193 -131 q113 -47 236 -47t236 47q97 42 175 113l150 -150q-108 -100 -243 -158q-130 -55 -270 -63v-93q100 -15 165 -63q82 -61 82 -163q0 -121 -116 -184q-87 -47 -197 -47q-73 0 -145 24q-82 27 -125 81q-44 53 -44 126h134q0 -22 9 -36q18 -28 68 -44q52 -17 103 -17q43 0 90 13 q89 25 89 84q0 60 -89 85q-47 13 -90 13h-67v224q-121 13 -234 60q-146 62 -260 175q-113 114 -175 261q-64 152 -64 319z" />
<glyph unicode="&#xc8;" horiz-adv-x="1066" d="M60 0v1636h946v-223h-722v-760h557v-224h-557v-205h722v-224h-946zM319 1873l92 198l349 -193l-92 -198z" />
<glyph unicode="&#xc9;" horiz-adv-x="1066" d="M60 0v1636h946v-223h-722v-760h557v-224h-557v-205h722v-224h-946zM309 1881l349 193l92 -198l-349 -193z" />
<glyph unicode="&#xca;" horiz-adv-x="1066" d="M60 0v1636h946v-223h-722v-760h557v-224h-557v-205h722v-224h-946zM247 1827l259 338l258 -338l-167 -103l-91 128l-92 -128z" />
<glyph unicode="&#xcb;" horiz-adv-x="1066" d="M60 0v1636h946v-223h-722v-760h557v-224h-557v-205h722v-224h-946zM265 1713v224h218v-224h-218zM583 1713v224h218v-224h-218z" />
<glyph unicode="&#xcc;" horiz-adv-x="343" d="M8 1878l92 198l349 -193l-92 -198zM89 0v1636h223v-1636h-223z" />
<glyph unicode="&#xcd;" horiz-adv-x="343" d="M-83 1871l349 193l92 -198l-349 -193zM60 0v1636h223v-1636h-223z" />
<glyph unicode="&#xce;" horiz-adv-x="343" d="M-89 1818l259 338l258 -338l-167 -103l-91 128l-92 -128zM60 0v1636h223v-1636h-223z" />
<glyph unicode="&#xcf;" horiz-adv-x="343" d="M-96 1716v224h218v-224h-218zM60 0v1636h223v-1636h-223zM222 1716v224h218v-224h-218z" />
<glyph unicode="&#xd0;" horiz-adv-x="1310" d="M-50 706v224h110v706h372q167 0 318 -64q147 -62 261 -176q112 -112 174 -260q65 -151 65 -317q0 -168 -65 -319q-62 -147 -174 -260q-114 -113 -261 -175q-151 -65 -318 -65h-372v706h-110zM286 227h146q120 0 230 46q106 45 188 127t128 188q46 110 46 231 q0 120 -46 230q-46 106 -128 187q-82 82 -188 127q-110 47 -230 47h-146v-480h448v-224h-448v-479z" />
<glyph unicode="&#xd1;" horiz-adv-x="1309" d="M60 0v1636l969 -1053v1053h220v-1636l-968 1070v-1070h-221zM296 1697v235q84 -58 167 -58q14 0 27 1q58 5 165 57t165 57q13 1 27 1q83 0 167 -58v-235q-84 58 -167 58q-14 0 -27 -1q-58 -5 -165 -57t-165 -57q-13 -1 -27 -1q-83 0 -167 58z" />
<glyph unicode="&#xd2;" horiz-adv-x="1756" d="M60 819q0 337 240 578q240 239 579 239q337 0 578 -239q239 -241 239 -578q0 -339 -239 -579q-241 -240 -578 -240q-339 0 -579 240t-240 579zM276 819q0 -250 176 -427q177 -176 427 -176q249 0 426 176q177 177 177 427q0 249 -177 426t-426 177q-250 0 -427 -177 q-176 -177 -176 -426zM714 1876l92 198l349 -193l-92 -198z" />
<glyph unicode="&#xd3;" horiz-adv-x="1756" d="M60 819q0 337 240 578q240 239 579 239q337 0 578 -239q239 -241 239 -578q0 -339 -239 -579q-241 -240 -578 -240q-339 0 -579 240t-240 579zM276 819q0 -250 176 -427q177 -176 427 -176q249 0 426 176q177 177 177 427q0 249 -177 426t-426 177q-250 0 -427 -177 q-176 -177 -176 -426zM621 1871l349 193l92 -198l-349 -193z" />
<glyph unicode="&#xd4;" horiz-adv-x="1756" d="M60 819q0 337 240 578q240 239 579 239q337 0 578 -239q239 -241 239 -578q0 -339 -239 -579q-241 -240 -578 -240q-339 0 -579 240t-240 579zM276 819q0 -250 176 -427q177 -176 427 -176q249 0 426 176q177 177 177 427q0 249 -177 426t-426 177q-250 0 -427 -177 q-176 -177 -176 -426zM622 1807l259 338l258 -338l-167 -103l-91 128l-92 -128z" />
<glyph unicode="&#xd5;" horiz-adv-x="1756" d="M60 819q0 337 240 578q240 239 579 239q337 0 578 -239q239 -241 239 -578q0 -339 -239 -579q-241 -240 -578 -240q-339 0 -579 240t-240 579zM276 819q0 -250 176 -427q177 -176 427 -176q249 0 426 176q177 177 177 427q0 249 -177 426t-426 177q-250 0 -427 -177 q-176 -177 -176 -426zM519 1757v235q84 -58 167 -58q14 0 27 1q58 5 165 57t165 57q13 1 27 1q83 0 167 -58v-235q-84 58 -167 58q-14 0 -27 -1q-58 -5 -165 -57t-165 -57q-13 -1 -27 -1q-83 0 -167 58z" />
<glyph unicode="&#xd6;" horiz-adv-x="1756" d="M60 819q0 337 240 578q240 239 579 239q337 0 578 -239q239 -241 239 -578q0 -339 -239 -579q-241 -240 -578 -240q-339 0 -579 240t-240 579zM276 819q0 -250 176 -427q177 -176 427 -176q249 0 426 176q177 177 177 427q0 249 -177 426t-426 177q-250 0 -427 -177 q-176 -177 -176 -426zM610 1703v224h218v-224h-218zM928 1703v224h218v-224h-218z" />
<glyph unicode="&#xd7;" horiz-adv-x="912" d="M92 325l214 214l-214 214l156 156l215 -214l214 214l156 -156l-214 -214l214 -214l-156 -157l-214 215l-215 -215z" />
<glyph unicode="&#xd8;" horiz-adv-x="1756" d="M60 819q0 337 240 578q240 239 579 239q337 0 578 -239q239 -241 239 -578q0 -339 -239 -579q-241 -240 -578 -240q-339 0 -579 240t-240 579zM276 819q0 -250 176 -427q95 -94 210 -138l257 1167q-20 1 -40 1q-250 0 -427 -177q-176 -177 -176 -426zM838 217 q20 -1 41 -1q249 0 426 176q177 177 177 427q0 249 -177 426q-95 95 -211 139z" />
<glyph unicode="&#xd9;" horiz-adv-x="1350" d="M60 615v1021h224v-1021q0 -162 114 -276q115 -115 277 -115t277 115q114 114 114 276v1021h224v-1021q0 -254 -180 -435q-180 -180 -435 -180t-435 180q-180 181 -180 435zM454 1702l92 198l349 -193l-92 -198z" />
<glyph unicode="&#xda;" horiz-adv-x="1350" d="M60 615v1021h224v-1021q0 -162 114 -276q115 -115 277 -115t277 115q114 114 114 276v1021h224v-1021q0 -254 -180 -435q-180 -180 -435 -180t-435 180q-180 181 -180 435zM477 1729l349 193l92 -198l-349 -193z" />
<glyph unicode="&#xdb;" horiz-adv-x="1350" d="M60 615v1021h224v-1021q0 -162 114 -276q115 -115 277 -115t277 115q114 114 114 276v1021h224v-1021q0 -254 -180 -435q-180 -180 -435 -180t-435 180q-180 181 -180 435zM425 1719l259 338l258 -338l-167 -103l-91 128l-92 -128z" />
<glyph unicode="&#xdc;" horiz-adv-x="1350" d="M60 615v1021h224v-1021q0 -162 114 -276q115 -115 277 -115t277 115q114 114 114 276v1021h224v-1021q0 -254 -180 -435q-180 -180 -435 -180t-435 180q-180 181 -180 435zM407 1641v224h218v-224h-218zM725 1641v224h218v-224h-218z" />
<glyph unicode="&#xdd;" horiz-adv-x="1567" d="M60 1636h250l473 -947l473 947h251l-612 -1223v-413h-224v413zM572 1730l349 193l92 -198l-349 -193z" />
<glyph unicode="&#xde;" horiz-adv-x="1120" />
<glyph unicode="&#xdf;" horiz-adv-x="1251" />
<glyph unicode="&#xe0;" d="M60 470q0 194 139 331q137 139 331 139q195 0 333 -139q138 -137 138 -331v-470h-221v70q-111 -70 -250 -70q-194 0 -331 138q-139 138 -139 332zM285 470q0 -101 71 -174q73 -72 174 -72q102 0 175 72q72 73 72 174t-72 174q-73 72 -175 72q-101 0 -174 -72 q-71 -73 -71 -174zM349 1169l92 198l349 -193l-92 -198z" />
<glyph unicode="&#xe1;" d="M60 470q0 194 139 331q137 139 331 139q195 0 333 -139q138 -137 138 -331v-470h-221v70q-111 -70 -250 -70q-194 0 -331 138q-139 138 -139 332zM260 1174l349 193l92 -198l-349 -193zM285 470q0 -101 71 -174q73 -72 174 -72q102 0 175 72q72 73 72 174t-72 174 q-73 72 -175 72q-101 0 -174 -72q-71 -73 -71 -174z" />
<glyph unicode="&#xe2;" d="M60 470q0 194 139 331q137 139 331 139q195 0 333 -139q138 -137 138 -331v-470h-221v70q-111 -70 -250 -70q-194 0 -331 138q-139 138 -139 332zM272 1107l259 338l258 -338l-167 -103l-91 128l-92 -128zM285 470q0 -101 71 -174q73 -72 174 -72q102 0 175 72 q72 73 72 174t-72 174q-73 72 -175 72q-101 0 -174 -72q-71 -73 -71 -174z" />
<glyph unicode="&#xe3;" d="M60 470q0 194 139 331q137 139 331 139q195 0 333 -139q138 -137 138 -331v-470h-221v70q-111 -70 -250 -70q-194 0 -331 138q-139 138 -139 332zM171 1053v235q84 -58 167 -58q14 0 27 1q58 5 165 57t165 57q13 1 27 1q83 0 167 -58v-235q-84 58 -167 58q-14 0 -27 -1 q-58 -5 -165 -57t-165 -57q-13 -1 -27 -1q-83 0 -167 58zM285 470q0 -101 71 -174q73 -72 174 -72q102 0 175 72q72 73 72 174t-72 174q-73 72 -175 72q-101 0 -174 -72q-71 -73 -71 -174z" />
<glyph unicode="&#xe4;" d="M60 470q0 194 139 331q137 139 331 139q195 0 333 -139q138 -137 138 -331v-470h-221v70q-111 -70 -250 -70q-194 0 -331 138q-139 138 -139 332zM263 1003v224h218v-224h-218zM285 470q0 -101 71 -174q73 -72 174 -72q102 0 175 72q72 73 72 174t-72 174q-73 72 -175 72 q-101 0 -174 -72q-71 -73 -71 -174zM581 1003v224h218v-224h-218z" />
<glyph unicode="&#xe5;" d="M60 470q0 194 139 331q87 88 197 121q-56 56 -56 135t56 135t135 56t135 -56t56 -135t-56 -135l-1 -1q111 -32 198 -120q138 -137 138 -331v-470h-222v70q-110 -70 -249 -70q-194 0 -331 138q-139 138 -139 332zM285 470q0 -101 71 -174q73 -72 174 -72q102 0 175 72 q72 73 72 174t-72 174q-73 72 -175 72q-101 0 -174 -72q-71 -73 -71 -174zM431 1057q0 -41 29 -71q30 -29 71 -29t71 29q29 30 29 71t-29 71q-30 29 -71 29t-71 -29q-29 -30 -29 -71z" />
<glyph unicode="&#xe6;" horiz-adv-x="1780" d="M60 470q0 194 139 331q137 139 331 139q195 0 333 -139q15 -15 29 -31q9 11 19 22q66 70 153 107q85 38 177 41h10q89 0 172 -33q85 -34 152 -97q80 -77 152 -253l-630 -277q31 -25 66 -39q44 -17 89 -17h10q46 2 90 21q45 20 80 56q31 36 50 79l208 -80 q-34 -85 -96 -152q-65 -70 -152 -107q-83 -38 -173 -41h-14q-89 0 -172 32q-44 17 -82 42v-74h-222v70q-110 -70 -249 -70q-194 0 -331 138q-139 138 -139 332zM285 470q0 -101 71 -174q73 -72 174 -72q102 0 175 72q72 73 72 174t-72 174q-73 72 -175 72q-101 0 -174 -72 q-71 -73 -71 -174zM1007 484l401 176q-30 24 -65 39q-46 17 -94 17h-4q-47 -2 -91 -21q-47 -21 -81 -56q-30 -36 -49 -79q-15 -38 -17 -76z" />
<glyph unicode="&#xe7;" horiz-adv-x="987" d="M60 470q0 194 139 331q137 139 331 139q195 0 333 -139q37 -36 64 -77l-180 -135q-17 29 -42 55q-73 72 -175 72q-101 0 -174 -72q-71 -73 -71 -174t71 -174q73 -72 174 -72q102 0 175 72q26 26 42 55l180 -135q-27 -41 -64 -78q-116 -116 -273 -135v-95q100 -15 164 -63 q83 -61 83 -163q0 -121 -116 -184q-87 -47 -198 -47q-72 0 -144 24q-82 27 -125 81q-44 53 -44 126h134q0 -22 9 -36q18 -28 68 -44q52 -17 102 -17q44 0 91 13q89 25 89 84q0 60 -89 85q-47 13 -91 13h-66v225q-148 22 -258 133q-139 138 -139 332z" />
<glyph unicode="&#xe8;" horiz-adv-x="1064" d="M60 453v15q0 90 32 172q34 86 96 152q66 70 153 107q85 38 177 41h10q89 0 172 -33q85 -34 152 -97q80 -77 152 -253l-630 -277q31 -25 66 -39q44 -17 89 -17h10q46 2 90 21q45 20 80 56q31 36 50 79l208 -80q-34 -85 -96 -152q-65 -70 -152 -107q-83 -38 -173 -41h-14 q-89 0 -172 32q-86 34 -152 97q-70 65 -107 152q-38 82 -41 172zM284 484l401 176q-30 24 -65 39q-46 17 -94 17h-4q-47 -2 -91 -21q-47 -21 -81 -56q-30 -36 -49 -79q-15 -38 -17 -76zM350 1158l92 198l349 -193l-92 -198z" />
<glyph unicode="&#xe9;" horiz-adv-x="1064" d="M60 453v15q0 90 32 172q34 86 96 152q66 70 153 107q85 38 177 41h10q89 0 172 -33q85 -34 152 -97q80 -77 152 -253l-630 -277q31 -25 66 -39q44 -17 89 -17h10q46 2 90 21q45 20 80 56q31 36 50 79l208 -80q-34 -85 -96 -152q-65 -70 -152 -107q-83 -38 -173 -41h-14 q-89 0 -172 32q-86 34 -152 97q-70 65 -107 152q-38 82 -41 172zM261 1163l349 193l92 -198l-349 -193zM284 484l401 176q-30 24 -65 39q-46 17 -94 17h-4q-47 -2 -91 -21q-47 -21 -81 -56q-30 -36 -49 -79q-15 -38 -17 -76z" />
<glyph unicode="&#xea;" horiz-adv-x="1064" d="M60 453v15q0 90 32 172q34 86 96 152q66 70 153 107q85 38 177 41h10q89 0 172 -33q85 -34 152 -97q80 -77 152 -253l-630 -277q31 -25 66 -39q44 -17 89 -17h10q46 2 90 21q45 20 80 56q31 36 50 79l208 -80q-34 -85 -96 -152q-65 -70 -152 -107q-83 -38 -173 -41h-14 q-89 0 -172 32q-86 34 -152 97q-70 65 -107 152q-38 82 -41 172zM274 1117l259 338l258 -338l-167 -103l-91 128l-92 -128zM284 484l401 176q-30 24 -65 39q-46 17 -94 17h-4q-47 -2 -91 -21q-47 -21 -81 -56q-30 -36 -49 -79q-15 -38 -17 -76z" />
<glyph unicode="&#xeb;" horiz-adv-x="1064" d="M60 453v15q0 90 32 172q34 86 96 152q66 70 153 107q85 38 177 41h10q89 0 172 -33q85 -34 152 -97q80 -77 152 -253l-630 -277q31 -25 66 -39q44 -17 89 -17h10q46 2 90 21q45 20 80 56q31 36 50 79l208 -80q-34 -85 -96 -152q-65 -70 -152 -107q-83 -38 -173 -41h-14 q-89 0 -172 32q-86 34 -152 97q-70 65 -107 152q-38 82 -41 172zM264 1003v224h218v-224h-218zM284 484l401 176q-30 24 -65 39q-46 17 -94 17h-4q-47 -2 -91 -21q-47 -21 -81 -56q-30 -36 -49 -79q-15 -38 -17 -76zM582 1003v224h218v-224h-218z" />
<glyph unicode="&#xec;" horiz-adv-x="514" d="M14 1186l92 198l349 -193l-92 -198zM89 0v940h221v-940h-221z" />
<glyph unicode="&#xed;" horiz-adv-x="514" d="M-40 1201l349 193l92 -198l-349 -193zM89 0v940h221v-940h-221z" />
<glyph unicode="&#xee;" horiz-adv-x="514" d="M-58 1117l259 338l258 -338l-167 -103l-91 128l-92 -128zM89 0v940h221v-940h-221z" />
<glyph unicode="&#xef;" horiz-adv-x="514" d="M-75 1012v224h218v-224h-218zM89 0v940h221v-940h-221zM243 1012v224h218v-224h-218z" />
<glyph unicode="&#xf0;" horiz-adv-x="1139" />
<glyph unicode="&#xf1;" horiz-adv-x="1053" d="M60 0v473q0 193 137 330t330 137q192 0 329 -137t137 -330v-473h-222v473q0 101 -72 173q-72 71 -172 71q-101 0 -173 -71q-72 -72 -72 -173v-473h-222zM167 1051v235q84 -58 167 -58q14 0 27 1q58 5 165 57t165 57q13 1 27 1q83 0 167 -58v-235q-84 58 -167 58 q-14 0 -27 -1q-58 -5 -165 -57t-165 -57q-13 -1 -27 -1q-83 0 -167 58z" />
<glyph unicode="&#xf2;" horiz-adv-x="1060" d="M60 470q0 194 139 331q137 139 331 139t332 -139q138 -137 138 -331t-138 -332t-332 -138t-331 138q-139 138 -139 332zM285 470q0 -101 71 -174q73 -72 174 -72t174 72q72 73 72 174t-72 174q-73 72 -174 72t-174 -72q-71 -73 -71 -174zM319 1178l92 198l349 -193 l-92 -198z" />
<glyph unicode="&#xf3;" horiz-adv-x="1060" d="M60 470q0 194 139 331q137 139 331 139t332 -139q138 -137 138 -331t-138 -332t-332 -138t-331 138q-139 138 -139 332zM285 470q0 -101 71 -174q73 -72 174 -72t174 72q72 73 72 174t-72 174q-73 72 -174 72t-174 -72q-71 -73 -71 -174zM295 1187l349 193l92 -198 l-349 -193z" />
<glyph unicode="&#xf4;" horiz-adv-x="1060" d="M60 470q0 194 139 331q137 139 331 139t332 -139q138 -137 138 -331t-138 -332t-332 -138t-331 138q-139 138 -139 332zM272 1117l259 338l258 -338l-167 -103l-91 128l-92 -128zM285 470q0 -101 71 -174q73 -72 174 -72t174 72q72 73 72 174t-72 174q-73 72 -174 72 t-174 -72q-71 -73 -71 -174z" />
<glyph unicode="&#xf5;" horiz-adv-x="1060" d="M60 470q0 194 139 331q137 139 331 139t332 -139q138 -137 138 -331t-138 -332t-332 -138t-331 138q-139 138 -139 332zM171 1048v235q84 -58 167 -58q14 0 27 1q58 5 165 57t165 57q13 1 27 1q83 0 167 -58v-235q-84 58 -167 58q-14 0 -27 -1q-58 -5 -165 -57t-165 -57 q-13 -1 -27 -1q-83 0 -167 58zM285 470q0 -101 71 -174q73 -72 174 -72t174 72q72 73 72 174t-72 174q-73 72 -174 72t-174 -72q-71 -73 -71 -174z" />
<glyph unicode="&#xf6;" horiz-adv-x="1060" d="M60 470q0 194 139 331q137 139 331 139t332 -139q138 -137 138 -331t-138 -332t-332 -138t-331 138q-139 138 -139 332zM262 1003v224h218v-224h-218zM285 470q0 -101 71 -174q73 -72 174 -72t174 72q72 73 72 174t-72 174q-73 72 -174 72t-174 -72q-71 -73 -71 -174z M580 1003v224h218v-224h-218z" />
<glyph unicode="&#xf7;" horiz-adv-x="806" d="M82 434v221h640v-221h-640zM290 222q0 46 33 79t79 33t79 -33t33 -79t-33 -79t-79 -33t-79 33t-33 79zM290 876q0 46 33 79t79 33t79 -33t33 -79t-33 -79t-79 -33t-79 33t-33 79z" />
<glyph unicode="&#xf8;" horiz-adv-x="1060" d="M60 470q0 194 139 331q137 139 331 139t332 -139q138 -137 138 -331t-138 -332t-332 -138t-331 138q-139 138 -139 332zM285 470q0 -101 71 -174q31 -30 66 -48l103 468q-98 -2 -169 -72q-71 -73 -71 -174zM533 224q99 1 171 72q72 73 72 174t-72 174q-31 31 -68 48z" />
<glyph unicode="&#xf9;" horiz-adv-x="1048" d="M60 463v477h223v-477q0 -100 70 -171q72 -71 171 -71t171 71q70 71 70 171v477h223v-477q0 -192 -136 -327q-135 -136 -327 -136h-2q-192 0 -327 136q-136 135 -136 327zM290 1166l92 198l349 -193l-92 -198z" />
<glyph unicode="&#xfa;" horiz-adv-x="1048" d="M60 463v477h223v-477q0 -100 70 -171q72 -71 171 -71t171 71q70 71 70 171v477h223v-477q0 -192 -136 -327q-135 -136 -327 -136h-2q-192 0 -327 136q-136 135 -136 327zM314 1160l349 193l92 -198l-349 -193z" />
<glyph unicode="&#xfb;" horiz-adv-x="1048" d="M60 463v477h223v-477q0 -100 70 -171q72 -71 171 -71t171 71q70 71 70 171v477h223v-477q0 -192 -136 -327q-135 -136 -327 -136h-2q-192 0 -327 136q-136 135 -136 327zM266 1117l259 338l258 -338l-167 -103l-91 128l-92 -128z" />
<glyph unicode="&#xfc;" horiz-adv-x="1048" d="M60 463v477h223v-477q0 -100 70 -171q72 -71 171 -71t171 71q70 71 70 171v477h223v-477q0 -192 -136 -327q-135 -136 -327 -136h-2q-192 0 -327 136q-136 135 -136 327zM256 1013v224h218v-224h-218zM574 1013v224h218v-224h-218z" />
<glyph unicode="&#xfd;" horiz-adv-x="1047" d="M60 462v478h221v-478q0 -100 71 -171q72 -71 171 -71q100 0 172 71q71 71 71 171v478h221v-1035q0 -306 -181 -462q-135 -119 -306 -119v110l-2 111q84 2 150 54q118 91 118 306v163q-112 -68 -243 -68q-191 0 -326 135q-137 136 -137 327zM306 1185l349 193l92 -198 l-349 -193z" />
<glyph unicode="&#xfe;" horiz-adv-x="1010" />
<glyph unicode="&#xff;" horiz-adv-x="1047" d="M60 462v478h221v-478q0 -100 71 -171q72 -71 171 -71q100 0 172 71q71 71 71 171v478h221v-1035q0 -306 -181 -462q-135 -119 -306 -119v110l-2 111q84 2 150 54q118 91 118 306v163q-112 -68 -243 -68q-191 0 -326 135q-137 136 -137 327zM246 1003v224h218v-224h-218z M564 1003v224h218v-224h-218z" />
<glyph unicode="&#x2c6;" horiz-adv-x="661" d="M71 1117l259 338l258 -338l-167 -103l-91 128l-92 -128z" />
<glyph unicode="&#x2dc;" horiz-adv-x="834" d="M60 907v235q84 -58 167 -58q14 0 27 1q58 5 165 57t165 57q13 1 27 1q83 0 167 -58v-235q-84 58 -167 58q-14 0 -27 -1q-58 -5 -165 -57t-165 -57q-13 -1 -27 -1q-83 0 -167 58z" />
<glyph unicode="&#x2000;" horiz-adv-x="1082" />
<glyph unicode="&#x2001;" horiz-adv-x="2165" />
<glyph unicode="&#x2002;" horiz-adv-x="1082" />
<glyph unicode="&#x2003;" horiz-adv-x="2165" />
<glyph unicode="&#x2004;" horiz-adv-x="721" />
<glyph unicode="&#x2005;" horiz-adv-x="541" />
<glyph unicode="&#x2006;" horiz-adv-x="360" />
<glyph unicode="&#x2007;" horiz-adv-x="360" />
<glyph unicode="&#x2008;" horiz-adv-x="270" />
<glyph unicode="&#x2009;" horiz-adv-x="433" />
<glyph unicode="&#x200a;" horiz-adv-x="120" />
<glyph unicode="&#x2010;" horiz-adv-x="739" d="M58 408v221h640v-221h-640z" />
<glyph unicode="&#x2011;" horiz-adv-x="739" d="M58 408v221h640v-221h-640z" />
<glyph unicode="&#x2012;" horiz-adv-x="739" d="M58 408v221h640v-221h-640z" />
<glyph unicode="&#x2013;" horiz-adv-x="1108" />
<glyph unicode="&#x2014;" horiz-adv-x="2048" />
<glyph unicode="&#x2018;" horiz-adv-x="338" d="M60 1372v265h218v-265h-218z" />
<glyph unicode="&#x2019;" horiz-adv-x="338" d="M60 1372v265h218v-265h-218z" />
<glyph unicode="&#x201a;" horiz-adv-x="557" />
<glyph unicode="&#x201c;" horiz-adv-x="627" d="M60 1636h218l17 -346h-218zM349 1636h218l17 -346h-218z" />
<glyph unicode="&#x201d;" horiz-adv-x="627" d="M60 1290l17 346h218l-17 -346h-218zM349 1290l17 346h218l-17 -346h-218z" />
<glyph unicode="&#x201e;" horiz-adv-x="910" />
<glyph unicode="&#x2022;" horiz-adv-x="386" d="M91 510q0 41 30 70q29 30 70 30t71 -30q29 -29 29 -70t-29 -71q-30 -29 -71 -29t-70 29q-30 30 -30 71z" />
<glyph unicode="&#x2026;" horiz-adv-x="2048" />
<glyph unicode="&#x202f;" horiz-adv-x="433" />
<glyph unicode="&#x2039;" horiz-adv-x="631" />
<glyph unicode="&#x203a;" horiz-adv-x="631" />
<glyph unicode="&#x205f;" horiz-adv-x="541" />
<glyph unicode="&#x20ac;" horiz-adv-x="1014" />
<glyph unicode="&#x2122;" horiz-adv-x="1497" />
<glyph unicode="&#x25fc;" horiz-adv-x="940" d="M0 0v940h940v-940h-940z" />
</font>
</defs>
</svg>
