<?xml version="1.0" encoding="UTF-8" standalone="no"?>
<svg width="25px" height="25px" viewBox="0 0 25 25" version="1.1" xmlns="http://www.w3.org/2000/svg" xmlns:xlink="http://www.w3.org/1999/xlink" xmlns:sketch="http://www.bohemiancoding.com/sketch/ns">
    <!-- Generator: Sketch 3.2.2 (9983) - http://www.bohemiancoding.com/sketch -->
    <title>Fill 93</title>
    <desc>Created with Sketch.</desc>
    <defs>
        <filter x="-50%" y="-50%" width="200%" height="200%" filterUnits="objectBoundingBox" id="filter-1">
            <feOffset dx="0" dy="1" in="SourceAlpha" result="shadowOffsetOuter1"></feOffset>
            <feGaussianBlur stdDeviation="0.5" in="shadowOffsetOuter1" result="shadowBlurOuter1"></feGaussianBlur>
            <feColorMatrix values="0 0 0 0 0   0 0 0 0 0   0 0 0 0 0  0 0 0 0.14 0" in="shadowBlurOuter1" type="matrix" result="shadowMatrixOuter1"></feColorMatrix>
            <feMerge>
                <feMergeNode in="shadowMatrixOuter1"></feMergeNode>
                <feMergeNode in="SourceGraphic"></feMergeNode>
            </feMerge>
        </filter>
    </defs>
    <g id="UI-Mobile" stroke="none" stroke-width="1" fill="none" fill-rule="evenodd" sketch:type="MSPage">
        <g id="Sidebar-Menu-V2" sketch:type="MSArtboardGroup" transform="translate(-33.000000, -248.000000)" fill-opacity="0.8" filter="url(#filter-1)" fill="#FFFFFF">
            <g id="Sidebar-Menu" sketch:type="MSLayerGroup" transform="translate(0.000000, 128.000000)">
                <path d="M36.7716237,129.00581 C36.7716237,125.562215 39.563627,122.770772 43.0048657,122.770772 C46.4490157,122.770772 49.5175991,125.83938 49.5175991,129.282975 C49.5175991,132.726278 46.7255958,135.518013 43.2814458,135.518013 C39.8402071,135.518013 36.7716237,132.449696 36.7716237,129.00581 L36.7716237,129.00581 Z M56.4815948,139.458582 L50.9820179,133.957797 C51.8117582,132.595266 52.2892228,130.994873 52.2892228,129.282975 C52.2892228,124.309443 47.980396,120 43.0048657,120 C38.0322467,120 34,124.031987 34,129.00581 C34,133.979633 38.3088268,138.288785 43.2814458,138.288785 C44.9351036,138.288785 46.4839521,137.841013 47.8173593,137.063089 L53.3489612,142.593861 C53.8875646,143.13538 54.7667982,143.13538 55.3083129,142.593861 L56.6795679,141.222595 C57.2210826,140.681076 57.0231095,139.99981 56.4815948,139.458582 L56.4815948,139.458582 Z" id="Fill-93" sketch:type="MSShapeGroup"></path>
            </g>
        </g>
    </g>
</svg>