<?xml version="1.0" encoding="UTF-8" standalone="no"?>
<svg width="48px" height="48px" viewBox="0 0 48 48" version="1.1" xmlns="http://www.w3.org/2000/svg" xmlns:xlink="http://www.w3.org/1999/xlink" xmlns:sketch="http://www.bohemiancoding.com/sketch/ns">
    <!-- Generator: Sketch 3.2.2 (9983) - http://www.bohemiancoding.com/sketch -->
    <title>Fill 93</title>
    <desc>Created with Sketch.</desc>
    <defs>
        <filter x="-50%" y="-50%" width="200%" height="200%" filterUnits="objectBoundingBox" id="filter-1">
            <feOffset dx="0" dy="1" in="SourceAlpha" result="shadowOffsetOuter1"></feOffset>
            <feGaussianBlur stdDeviation="0.5" in="shadowOffsetOuter1" result="shadowBlurOuter1"></feGaussianBlur>
            <feColorMatrix values="0 0 0 0 0   0 0 0 0 0   0 0 0 0 0  0 0 0 0.14 0" in="shadowBlurOuter1" type="matrix" result="shadowMatrixOuter1"></feColorMatrix>
            <feMerge>
                <feMergeNode in="shadowMatrixOuter1"></feMergeNode>
                <feMergeNode in="SourceGraphic"></feMergeNode>
            </feMerge>
        </filter>
    </defs>
    <g id="UI-Mobile" stroke="none" stroke-width="1" fill="none" fill-rule="evenodd" sketch:type="MSPage">
        <g id="Sidebar-Menu" sketch:type="MSArtboardGroup" transform="translate(-33.000000, -278.000000)" fill-opacity="0.8" filter="url(#filter-1)" fill="#FFFFFF">
            <g sketch:type="MSLayerGroup" transform="translate(0.000000, 128.000000)" id="Fill-93">
                <path d="M39.5432474,168.01162 C39.5432474,161.12443 45.127254,155.541544 52.0097313,155.541544 C58.8980314,155.541544 65.0351981,161.678759 65.0351981,168.565949 C65.0351981,175.452557 59.4511916,181.036025 52.5628915,181.036025 C45.6804142,181.036025 39.5432474,174.899392 39.5432474,168.01162 L39.5432474,168.01162 Z M78.9631895,188.917165 L67.9640358,177.915595 C69.6235164,175.190532 70.5784455,171.989747 70.5784455,168.565949 C70.5784455,158.618886 61.960792,150 52.0097313,150 C42.0644933,150 34,158.063975 34,168.01162 C34,177.959266 42.6176535,186.57757 52.5628915,186.57757 C55.8702072,186.57757 58.9679043,185.682025 61.6347187,184.126177 L72.6979225,195.187722 C73.7751292,196.270759 75.5335963,196.270759 76.6166258,195.187722 L79.3591358,192.44519 C80.4421652,191.362152 80.0462189,189.99962 78.9631895,188.917165 L78.9631895,188.917165 Z" sketch:type="MSShapeGroup"></path>
            </g>
        </g>
    </g>
</svg>