<?xml version="1.0" encoding="UTF-8" standalone="no"?>
<svg width="19px" height="18px" viewBox="0 0 19 18" version="1.1" xmlns="http://www.w3.org/2000/svg" xmlns:xlink="http://www.w3.org/1999/xlink" xmlns:sketch="http://www.bohemiancoding.com/sketch/ns">
    <!-- Generator: Sketch 3.2.2 (9983) - http://www.bohemiancoding.com/sketch -->
    <title>Fill 54</title>
    <desc>Created with Sketch.</desc>
    <defs></defs>
    <g id="Page-1" stroke="none" stroke-width="1" fill="none" fill-rule="evenodd" sketch:type="MSPage">
        <g id="Home-APP-Upload" sketch:type="MSArtboardGroup" transform="translate(-20.000000, -89.000000)" fill="#49403B">
            <g id="LEFT_BAR" sketch:type="MSLayerGroup" transform="translate(0.000000, 71.000000)">
                <g id="Mon-Profil" transform="translate(20.000000, 17.986677)" sketch:type="MSShapeGroup">
                    <path d="M14.8765957,12.8527163 C12.386383,11.9938934 11.59,11.2696378 11.59,9.71886318 C11.59,8.78778672 12.35,9.09171026 12.6835106,7.38687123 C12.8229787,6.67962777 13.4940426,7.37540241 13.6234043,5.76078471 C13.6234043,5.11719316 13.2555319,4.95739437 13.2555319,4.95739437 C13.2555319,4.95739437 13.4435106,4.0051006 13.5162766,3.27224346 C13.6052128,2.35913481 12.9584043,0 9.5,0 C6.04159574,0 5.39276596,2.35913481 5.4837234,3.27224346 C5.55648936,4.0051006 5.74446809,4.95739437 5.74446809,4.95739437 C5.74446809,4.95739437 5.37659574,5.11719316 5.37659574,5.76078471 C5.50595745,7.37540241 6.17702128,6.67962777 6.31648936,7.38687123 C6.65,9.09171026 7.41,8.78778672 7.41,9.71886318 C7.41,11.2696378 6.61361702,11.9938934 4.12340426,12.8527163 C1.62308511,13.713833 0,14.5919618 0,15.1910161 L0,17.2032193 L19,17.2032193 L19,15.1910161 C19,14.5919618 17.3769149,13.713833 14.8765957,12.8527163" id="Fill-54"></path>
                </g>
            </g>
        </g>
    </g>
</svg>