<?xml version="1.0" encoding="UTF-8" standalone="no"?>
<svg width="87px" height="66px" viewBox="0 0 87 66" version="1.1" xmlns="http://www.w3.org/2000/svg" xmlns:xlink="http://www.w3.org/1999/xlink" xmlns:sketch="http://www.bohemiancoding.com/sketch/ns">
    <!-- Generator: Sketch 3.2.2 (9983) - http://www.bohemiancoding.com/sketch -->
    <title>Logo</title>
    <desc>Created with Sketch.</desc>
    <defs></defs>
    <g id="Page-1" stroke="none" stroke-width="1" fill="none" fill-rule="evenodd" sketch:type="MSPage">
        <g id="One-Page-Inscription_V0" sketch:type="MSArtboardGroup" transform="translate(-43.000000, -3.000000)" fill="#3D3B3A">
            <g id="HEADER" sketch:type="MSLayerGroup">
                <path d="M53.5334312,47.781151 L43,47.781151 L43,33.1178641 L43.584236,33.1178641 C48.3354493,33.1178641 53.0952542,33.1178641 57.8464675,33.1264341 C58.1987274,33.1264341 58.4049284,33.032164 58.5939459,32.7150737 C61.9704863,27.0845772 66.3264811,22.2853717 71.3354455,18.0689268 C76.3272265,13.852482 81.7829597,10.381628 87.7541952,7.70778492 C92.5054084,5.58242248 97.4456392,4.07410075 102.609254,3.36278993 C104.55098,3.09711962 106.501297,2.9000094 108.468798,3.05426958 C111.630545,3.31136987 113.804247,4.9053917 115.075819,7.76777499 C116.562185,11.1015088 117.515864,14.5980728 118.04855,18.197477 C118.529685,21.4455107 118.85617,24.7106845 119.268572,27.9672882 C119.603648,30.6154212 119.91295,33.2635543 120.325352,35.9031173 C120.754937,38.6283804 121.932001,41.0708333 123.521466,43.3161758 C124.853181,45.193008 126.287995,46.9927101 127.559568,48.9123923 C128.384372,50.1550437 129.071708,51.5005352 129.690311,52.8631668 C130.386239,54.3886286 129.88792,55.62271 128.410147,56.4282909 C127.052657,57.1653117 125.549109,57.4395521 124.036968,57.5852422 C122.301444,57.7480724 120.557328,57.9023326 118.813211,57.9194726 C116.124008,57.9451826 113.520721,58.4593832 110.951801,59.153554 C106.484114,60.3619254 102.205444,62.1016374 97.9095914,63.7984994 C94.0433238,65.3239611 90.1598728,66.8408529 86.1131794,67.860684 C82.6077634,68.743395 79.059389,69.2233156 75.4336891,68.8976552 C69.8404887,68.4005947 64.6596902,66.7551528 60.2435534,63.1900287 C55.8360084,59.6420446 53.5935732,55.0056693 53.5248395,49.3408928 C53.5248395,48.8438322 53.5334312,48.3382016 53.5334312,47.781151 L53.5334312,47.781151 Z M53.9114663,47.806861 C53.8427326,49.4180228 53.9028746,50.9949047 54.1949926,52.5632165 C55.0455714,57.1224617 57.4598408,60.7132958 61.1628659,63.438559 C65.8711207,66.9008429 71.2495285,68.4091647 77.0317464,68.6234149 C80.7605467,68.7605351 84.3776548,68.0320842 87.9432127,66.995113 C91.5345457,65.9495718 94.9970031,64.5698002 98.4680522,63.1985987 C102.420237,61.6388569 106.36383,60.0619751 110.462073,58.9307338 C113.125502,58.1937129 115.814706,57.6195223 118.60701,57.5766722 C120.591694,57.5423922 122.576379,57.362422 124.561063,57.1653117 C125.875594,57.0367616 127.164349,56.7539513 128.32423,56.0769205 C129.578619,55.3484697 129.93947,54.3714885 129.381009,53.034567 C128.968608,52.0661559 128.547614,51.0806048 127.963378,50.2064637 C126.708989,48.3296316 125.368683,46.5127895 124.036968,44.6959474 C122.138202,42.1078044 120.565919,39.3739713 120.024642,36.1687876 C119.629423,33.8034649 119.337305,31.4210022 119.036596,29.0471094 C118.581235,25.4819853 118.228975,21.8997212 117.713473,18.3431671 C117.215154,14.8894532 116.28725,11.5385793 114.921169,8.30768561 C113.649596,5.27390213 111.458711,3.57704018 108.116538,3.42278 C105.728044,3.31136987 103.373916,3.60275021 101.028381,4.00554067 C95.2117958,4.97395178 89.7474709,6.97076407 84.5323055,9.66174717 C80.2106775,11.8899497 76.1725758,14.5637928 72.400817,17.6404263 C67.6066452,21.5569208 63.3881177,25.9876159 59.9772105,31.1639019 C59.5734004,31.7809426 59.1867736,32.4065533 58.7485966,33.1092941 C59.4445248,33.1092941 60.0459442,33.1007241 60.6387719,33.1178641 C60.8793396,33.1264341 61.0168069,33.040734 61.1542742,32.8350538 C62.0478116,31.4895622 62.9155739,30.1269307 63.8778449,28.8328592 C65.8711207,26.1590161 68.0448222,23.6394332 70.6137422,21.4883608 C74.7721278,18.0003667 79.2312231,14.9494432 83.8879276,12.1899001 C88.1751888,9.64460715 92.5999172,7.37355454 97.3511305,5.80524274 C100.409778,4.79398157 103.528567,4.06553074 106.784823,4.296921 C110.805742,4.57973133 113.692555,6.49084352 115.23047,10.2787879 C116.562185,13.5782417 117.421355,17.0148156 117.876715,20.5370897 C118.443768,24.9677848 118.890537,29.4156199 119.363081,33.854885 C119.646607,36.5544381 120.282393,39.151151 121.545374,41.5507538 C122.63652,43.6246962 123.890909,45.6043685 124.982056,47.6697408 C125.824043,49.2723327 126.588705,50.9177746 127.284633,52.5889265 C127.800136,53.8230079 127.387734,54.8856891 126.245037,55.5712899 C125.712351,55.8883803 125.119523,56.1369106 124.518104,56.3083108 C122.284261,56.9510615 119.973092,57.0367616 117.670515,57.0539016 C115.153145,57.0624716 112.678734,57.2681519 110.212914,57.8166325 C106.226363,58.7164835 102.368687,60.010555 98.5110108,61.3303365 C94.3268501,62.7615282 90.1598728,64.2098598 85.8124697,65.1097109 C81.4650666,66.0095619 77.1262552,66.086692 72.7874438,65.0582908 C68.9813181,64.1498698 65.4501271,62.650118 62.4086633,60.1562452 C59.0235312,57.370992 56.9529301,53.8572879 56.5233448,49.4523029 C56.4717946,48.9123923 56.4460195,48.3810517 56.4116527,47.824001 C55.5610738,47.806861 54.7534534,47.806861 53.9114663,47.806861 L53.9114663,47.806861 Z M61.4120254,32.989314 C61.4378005,33.032164 61.4721673,33.0750141 61.4979424,33.1092941 C62.0821784,33.1092941 62.6664144,33.1264341 63.2592421,33.1007241 C63.379526,33.0921541 63.525585,32.9636039 63.6029104,32.8521938 C64.6081399,31.4295722 65.5618193,29.9641005 66.6271908,28.5928989 C68.6376499,26.0047559 70.8285349,23.5708731 73.3802715,21.4969308 C77.4613317,18.1717669 81.8431016,15.2922436 86.4310725,12.7212407 C90.3059318,10.5444582 94.3010749,8.63334598 98.5711527,7.35641452 C101.423599,6.50798354 104.327596,5.92522287 107.326101,6.25945326 C111.20096,6.68795375 113.864389,8.71904608 115.23047,12.3784403 C116.545001,15.9092843 117.232338,19.5858186 117.618964,23.3137729 C118.014183,27.1359972 118.323484,30.9667916 118.658561,34.789016 C118.85617,37.0000786 119.131105,39.2111411 120.059009,41.2508035 C120.952546,43.2219057 121.957776,45.1501579 122.945822,47.0784102 C123.762034,48.689572 124.535287,50.3093039 124.982056,52.0575859 C125.299949,53.3088073 124.947689,54.2172284 123.830768,54.8514091 C123.401182,55.0999394 122.928638,55.2884796 122.447503,55.4255997 C121.038463,55.8369602 119.577873,55.9226603 118.117283,55.9740804 C116.141191,56.0426405 114.165099,56.0083604 112.197598,56.1969006 C108.382881,56.5654111 104.688447,57.5595322 101.002605,58.5707934 C96.8785867,59.7020347 92.7717513,60.884696 88.6133657,61.8873872 C84.6096309,62.8557983 80.5371624,63.1985987 76.430327,62.4787178 C72.6242014,61.8102571 69.0414601,60.5504656 65.8539373,58.3308331 C63.2850172,56.548271 61.248783,54.3029285 60.1490446,51.329135 C59.7280511,50.1978937 59.496075,49.0066624 59.1781819,47.806861 L56.7896877,47.806861 C56.7982794,50.7892244 57.5457578,53.5144875 59.1524068,55.9912204 C60.9996235,58.8364637 63.5513601,60.893266 66.5584571,62.3930177 C72.6671599,65.4439413 79.0679807,66.129542 85.7351443,64.7326304 C89.2749271,63.9956096 92.7030177,62.8900783 96.1139249,61.733127 C100.040334,60.4047755 103.940969,58.9821538 107.961887,57.9623227 C110.281648,57.379562 112.601408,56.8310814 115.007086,56.7196712 C117.438538,56.6082611 119.869991,56.522561 122.292852,56.3511608 C123.547241,56.2654607 124.784447,55.9655104 125.901369,55.3313296 C127.01829,54.6971489 127.344775,53.8315779 126.932373,52.6232065 C126.889415,52.4860864 126.837865,52.3575362 126.786314,52.2204161 C125.884185,49.7951033 124.561063,47.5926107 123.23794,45.3901182 C122.07806,43.453296 120.986913,41.4821937 120.196476,39.3568313 C119.277164,36.8629584 119.036596,34.2491054 118.753069,31.6352524 C118.357851,27.9587182 117.996999,24.282184 117.515864,20.6142197 C117.060503,17.1519358 116.227108,13.7753519 114.938352,10.5187482 C113.649596,7.26214441 111.312652,5.29961215 107.807236,4.75970153 C105.444517,4.39976112 103.124757,4.66543143 100.82218,5.18820203 C96.8957701,6.09662307 93.21852,7.65636486 89.627187,9.45606693 C85.0478079,11.7442596 80.7347716,14.4609527 76.5420192,17.383326 C71.8939064,20.6313598 67.6324203,24.273614 64.2816551,28.8928493 C63.3022007,30.2383408 62.3657047,31.6181124 61.4120254,32.989314 L61.4120254,32.989314 Z M59.6679091,47.781151 C59.6936842,48.0039712 59.7022759,48.1582314 59.7280511,48.3124916 C59.7710096,48.5781619 59.8053764,48.8524022 59.8655184,49.1180725 C60.5098963,52.2632661 62.1165453,54.8599791 64.5823648,56.8739314 C69.8147136,61.1589363 75.9234164,62.7700982 82.5991717,62.4272978 C86.2936052,62.2387576 89.8677548,61.3474765 93.4161293,60.3790654 C97.7033904,59.2049741 101.973468,57.9708927 106.286504,56.8825014 C109.508394,56.0683505 112.790426,55.5884299 116.141191,55.64842 C117.584597,55.67413 119.028004,55.5627199 120.471411,55.4513098 C121.571149,55.3656097 122.653704,55.1427894 123.633158,54.5857388 C124.612613,54.0286881 124.939098,53.2488172 124.629796,52.160426 C124.457962,51.5433853 124.311903,50.9092046 124.036968,50.3350139 C123.134839,48.4239017 122.215527,46.5384995 121.236072,44.6788074 C119.723932,41.8164241 118.649969,38.8512007 118.383626,35.594597 C118.031366,31.3267321 117.644739,27.0588672 117.197971,22.7995723 C116.837119,19.3715683 116.141191,15.9864144 114.972719,12.7126707 C113.778472,9.37893684 111.50167,7.31356447 107.961887,6.71366378 C105.925653,6.37086339 103.906602,6.52512356 101.904735,6.91077401 C98.6914366,7.5192447 95.641381,8.63334598 92.6772426,9.96169751 C87.1871426,12.4298603 82.1008528,15.566484 77.1778054,19.0116279 C71.9110898,22.6967321 67.6152369,27.2816874 64.1527795,32.6636536 C64.0754542,32.7922037 63.9981288,32.9207539 63.8864366,33.1092941 C64.2730634,33.1092941 64.5737731,33.0664441 64.8658911,33.1178641 C65.5360441,33.2292742 65.8968958,32.9293239 66.2577474,32.3722733 C69.0500518,28.0958383 72.400817,24.307894 76.4389187,21.1541304 C80.4426536,18.0346468 84.7470982,15.3779437 89.2577437,13.0554711 C92.7202011,11.290049 96.2685756,9.75601727 100.048926,8.79617617 C102.600663,8.14485542 105.186766,7.75063497 107.82442,8.14485542 C111.09786,8.63334598 113.529312,10.3302079 114.809477,13.4068415 C115.402304,14.8380331 115.806114,16.3549249 116.166966,17.8632466 C117.283888,22.551042 117.550231,27.3416775 117.893899,32.132313 C118.005591,33.7520448 118.1001,35.3803467 118.306301,37.0000786 C118.649969,39.6824917 119.655199,42.1849345 120.66902,44.6702374 C121.562557,46.8641599 122.447503,49.0666524 122.851313,51.4148351 C123.057514,52.6060665 122.713846,53.4973475 121.614107,54.0115481 C120.797895,54.3971986 119.904358,54.6628689 119.019412,54.8342691 C116.837119,55.2370595 114.629051,55.0827994 112.420982,55.1427894 C110.711233,55.1942095 108.992892,55.2970496 107.291734,55.5198699 C103.769135,55.9740804 100.332452,56.8739314 96.8871784,57.7137924 C93.1240113,58.6307834 89.3522524,59.5477745 85.4859849,59.959135 C80.3051863,60.5076156 75.3821389,59.6677546 70.7426178,57.3195719 C66.7646581,55.3056196 63.6372772,52.4860864 62.3828881,48.0125412 C62.357113,47.9182711 62.2196457,47.798291 62.125137,47.798291 C61.3175166,47.772581 60.518488,47.781151 59.6679091,47.781151 L59.6679091,47.781151 Z M66.2233806,33.023594 C66.3092977,33.0750141 66.3350728,33.0921541 66.3608479,33.0921541 C66.7302912,33.1007241 67.1083263,33.0750141 67.4777696,33.1092941 C67.8729881,33.1521442 68.079189,32.980744 68.28539,32.6550836 C70.8457183,28.6100389 74.0590162,25.1306149 77.7534497,22.1054015 C80.459837,19.8943389 83.4325672,18.0517868 86.474031,16.3377848 C90.6496,13.9981721 94.9540446,11.9499398 99.5935657,10.6815783 C102.179669,9.97883753 104.791548,9.53319702 107.480752,9.85028738 C111.166593,10.2787879 113.726922,12.1899001 114.964127,15.7121741 C116.003724,18.6773975 116.493451,21.7797411 116.759794,24.8906547 C117.04332,28.2329585 117.172196,31.5838324 117.412763,34.9347062 C117.507272,36.3230478 117.567414,37.7456694 117.885307,39.091161 C118.426585,41.3450736 119.148288,43.5647061 119.818441,45.7843387 C120.333943,47.4983406 120.806487,49.2123426 120.900996,51.0120447 C120.952546,52.0147358 120.531553,52.7517567 119.655199,53.2231072 C119.328714,53.3945074 118.985046,53.5401976 118.624194,53.6430377 C117.008953,54.1058182 115.342162,54.1315283 113.683963,54.0972482 C111.432936,54.0458282 109.181909,53.9515581 106.948066,54.2857884 C103.44265,54.799989 99.9372339,55.3913197 96.4490014,56.0083604 C92.8576684,56.6425411 89.2749271,57.3367119 85.6234522,57.5423922 C81.6197173,57.7737824 77.7792248,57.1138917 74.1191582,55.4770198 C70.5364169,53.865858 67.4863613,51.6462254 65.7250617,47.9954012 C65.6821031,47.9097011 65.570411,47.798291 65.4844939,47.798291 C64.5737731,47.781151 63.6630523,47.789721 62.7007812,47.789721 C62.7781066,48.0553913 62.8210651,48.2525015 62.8897988,48.4581817 C63.7317859,51.1148848 65.3470266,53.2231072 67.5379116,54.8771191 C71.8509479,58.1422929 76.7739952,59.6334746 82.1438113,59.7448847 C85.3571093,59.8134448 88.5016736,59.2649642 91.6204628,58.5622233 C95.6757479,57.6452323 99.7224413,56.6425411 103.786318,55.7598301 C106.793415,55.0999394 109.843471,54.6971489 112.945076,54.757139 C114.672009,54.791419 116.407534,54.6971489 118.134467,54.5943088 C119.217022,54.5257487 120.290985,54.3029285 121.279031,53.8144379 C122.335811,53.2830973 122.670887,52.5974965 122.473278,51.4405452 C122.07806,49.0666524 121.17593,46.8641599 120.256618,44.6616674 C118.847578,41.2765135 117.842349,37.8227995 117.618964,34.1291253 C117.386988,30.1526407 117.017545,26.1847261 116.58796,22.2253816 C116.28725,19.4572684 115.685831,16.7320053 114.714968,14.1095823 C113.683963,11.298619 111.742238,9.44749692 108.795283,8.71047607 C107.205817,8.31625562 105.590576,8.28197558 103.975336,8.44480577 C100.796404,8.76189613 97.7893075,9.71316723 94.8509441,10.9043986 C89.4123944,13.1068911 84.3862465,16.0464045 79.5491162,19.3201483 C75.0470624,22.3710718 71.2409368,26.1247361 68.0104554,30.4697311 C67.3918526,31.301022 66.8248,32.166593 66.2233806,33.023594 L66.2233806,33.023594 Z M68.3884904,33.1092941 C68.6462416,33.1092941 68.7665255,33.0921541 68.8782177,33.1092941 C69.7202048,33.2635543 70.1927487,32.9036139 70.6824759,32.183733 C74.0160577,27.2045573 78.268952,23.1252326 83.3380584,19.920049 C88.2696975,16.8005654 93.4333127,14.1524323 99.0694716,12.5069904 C101.750084,11.7271195 104.473655,11.2129189 107.283142,11.4871593 C110.968984,11.8556697 113.623821,13.6468017 114.792293,17.2376359 C115.324979,18.8830778 115.63428,20.6142197 115.909215,22.3282217 C116.510634,26.047606 116.58796,29.8012703 116.69106,33.5549346 C116.74261,35.3546367 116.725427,37.1543388 116.845711,38.9454708 C116.983178,41.0536932 117.653331,43.0590755 118.211792,45.0730279 C118.692928,46.8041698 119.182655,48.5438818 119.105329,50.3692939 C119.070963,51.1920149 118.735886,51.8347656 118.022774,52.2461261 C117.627556,52.4689463 117.197971,52.6574866 116.768385,52.7774667 C114.964127,53.2659573 113.108319,53.2830973 111.269694,53.1631171 C107.377651,52.9060168 103.519975,53.1288371 99.670891,53.6687477 C95.9420907,54.1915183 92.2218822,54.7314289 88.4758985,55.1342194 C84.8931572,55.5112998 81.3533744,55.2199195 77.9424672,53.9772681 C74.5229683,52.7346167 71.4643211,50.9691946 69.2562527,47.9696912 C69.1961108,47.8839911 69.0844186,47.798291 68.9899098,47.798291 C68.0362305,47.789721 67.0739595,47.789721 66.0773216,47.789721 C66.1374635,47.9354111 66.1718304,48.0468213 66.2233806,48.1410914 C66.8248,49.3408928 67.5980535,50.420714 68.5689163,51.3462751 C72.3836336,54.9885292 77.0489298,56.7111012 82.2297284,57.1653117 C85.3571093,57.4395521 88.4673067,57.0539016 91.5431374,56.522561 C95.3320796,55.8712403 99.1124302,55.1342194 102.901372,54.4828987 C105.839736,53.9772681 108.795283,53.6687477 111.785196,53.7201678 C113.400437,53.7458778 115.015677,53.7201678 116.630918,53.6516077 C117.618964,53.6087577 118.589827,53.4116474 119.483364,52.9317269 C120.248026,52.5203664 120.634653,51.8861857 120.565919,51.0034747 C120.531553,50.5921142 120.497186,50.1807537 120.445635,49.7693932 C120.153517,47.7383009 119.474773,45.8100487 118.838987,43.8732265 C117.988408,41.2765135 117.249521,38.6626605 117.112054,35.9116873 C116.931628,32.3465632 116.734019,28.7814391 116.467676,25.224885 C116.244291,22.2853717 115.728789,19.3887083 114.903985,16.5606051 C114.225241,14.2295624 112.970852,12.3013102 110.728416,11.1614989 C108.709365,10.1502377 106.587214,9.99597755 104.413513,10.1673777 C101.492333,10.398768 98.70862,11.2043489 95.9850493,12.2327501 C91.3970784,13.9553221 87.1270007,16.2863648 82.9772068,18.8659377 C77.9682423,21.9682813 73.6895729,25.8590658 70.1669735,30.5640012 C69.5655541,31.3610121 69.0242767,32.1923031 68.3884904,33.1092941 L68.3884904,33.1092941 Z M69.5140039,47.781151 C69.9865477,48.3296316 70.3645828,48.7924121 70.7855763,49.2209126 C72.6413848,51.1148848 74.88382,52.3918163 77.3324561,53.3687974 C81.190132,54.9113992 85.2024586,55.1770695 89.2835188,54.7142889 C92.6772426,54.3286385 96.0623746,53.8058679 99.4475067,53.3516574 C102.729538,52.9060168 106.01157,52.5632165 109.327968,52.7260466 C111.037718,52.8117467 112.764651,52.8117467 114.4744,52.7774667 C115.548363,52.7603267 116.613735,52.5803565 117.593189,52.0918659 C118.186017,51.8004856 118.684336,51.3634151 118.692928,50.6778143 C118.710111,49.7865333 118.60701,48.8866822 118.538277,47.9954012 C118.529685,47.9182711 118.40081,47.806861 118.323484,47.798291 C118.074325,47.772581 117.825165,47.789721 117.601781,47.789721 C117.533047,48.5610219 117.481497,49.2637627 117.39558,49.9750735 C117.326846,50.5749742 117.017545,51.0634647 116.502043,51.3719851 C116.089641,51.6119454 115.63428,51.8776157 115.17892,51.9376057 C113.933123,52.1090059 112.678734,52.2718361 111.432936,52.2632661 C109.628678,52.2461261 107.833011,52.0233058 106.028753,51.9633158 C102.935739,51.8519056 99.8513168,52.134716 96.7754862,52.4175263 C93.2099283,52.7431867 89.6529621,53.0945571 86.0702208,53.060277 C81.1385818,53.017427 76.8599123,51.4062651 73.277171,47.9954012 C73.1740705,47.9011311 73.0108281,47.806861 72.8733608,47.806861 C71.7908059,47.781151 70.7168427,47.781151 69.5140039,47.781151 L69.5140039,47.781151 Z M116.158374,30.5982812 C116.192741,30.5982812 116.227108,30.5897112 116.261475,30.5897112 C116.175558,29.1670896 116.098232,27.7444679 115.995132,26.3218463 C115.806114,23.6394332 115.445263,20.9827302 114.783701,18.3774472 C114.139323,15.8235842 112.824793,13.7582119 110.324606,12.6355406 C108.735141,11.9156598 107.051166,11.7271195 105.332825,11.7871096 C102.660805,11.8728097 100.091885,12.4984204 97.5745148,13.3468514 C93.57078,14.6837729 89.7990211,16.5606051 86.1217711,18.6345475 C80.7347716,21.676901 76.0952505,25.5676854 72.3149,30.4697311 C71.6791137,31.292452 71.1120612,32.158023 70.4676832,33.0664441 C70.6738842,33.0835841 70.7683929,33.0921541 70.8629017,33.1007241 C71.7220723,33.2464143 72.2375746,32.9293239 72.7273018,32.140883 C75.0986126,28.3357986 78.2603603,25.216315 81.860285,22.585322 C87.3074265,18.6088374 93.2958454,15.6693241 99.81695,13.869622 C102.368687,13.1668812 104.963382,12.7812308 107.626811,13.0897511 C111.432936,13.5353916 113.984673,15.7550242 114.886802,19.4829784 C115.565547,22.3110817 115.849073,25.190605 116.012315,28.0872683 C116.055274,28.9356993 116.106824,29.7669903 116.158374,30.5982812 L116.158374,30.5982812 Z M116.209925,47.806861 C116.132599,48.1753714 116.03809,48.4753218 116.003724,48.7838421 C115.83189,50.2321738 114.886802,50.8920645 113.555087,51.0548947 C112.455349,51.1920149 111.329836,51.260575 110.221506,51.2262949 C108.537531,51.1748749 106.853557,50.9177746 105.169583,50.9263446 C101.38064,50.9520546 97.5831065,51.0891748 93.7941643,51.2005849 C90.4949493,51.294855 87.2129177,51.320565 83.9480695,50.7292343 C81.4392915,50.2750238 79.0164304,49.563713 76.868504,48.1325214 C76.4818772,47.8754211 76.1038422,47.7468709 75.6398901,47.772581 C74.9955122,47.806861 74.3425425,47.781151 73.5778807,47.781151 C73.8012651,47.9868312 73.9215489,48.0982413 74.0504245,48.2096515 C75.4165057,49.4523029 76.9716045,50.395004 78.6469871,51.1663049 C81.714226,52.5803565 84.9704825,52.8460268 88.2696975,52.6489166 C92.4108997,52.4003863 96.5435101,51.9804558 100.684712,51.7319255 C102.84123,51.6033754 105.00634,51.6290854 107.162858,51.6633654 C108.846833,51.6890755 110.539399,51.8604756 112.223373,51.9033257 C113.340295,51.9290357 114.457217,51.8347656 115.522588,51.4576852 C116.115416,51.2520049 116.682468,50.9606246 116.914444,50.3350139 C117.215154,49.520863 117.197971,48.663862 117.163604,47.798291 C116.819936,47.806861 116.527818,47.806861 116.209925,47.806861 L116.209925,47.806861 Z M72.5211009,33.1092941 C73.1397037,33.1092941 73.6637978,33.0921541 74.1878918,33.1178641 C74.4971932,33.1350041 74.6690273,33.032164 74.8150863,32.7493537 C76.7568118,29.1585196 79.3343236,26.064746 82.6163551,23.6394332 C87.642503,19.937189 93.1841532,17.2290659 99.1725721,15.4379338 C101.878959,14.6237829 104.636897,14.1352923 107.47216,14.4952327 C110.651091,14.8894532 112.996627,16.457765 114.182282,19.4915485 C114.603276,20.5885097 114.843843,21.7540311 115.161736,22.8938424 C114.955536,21.694041 114.77511,20.4856696 114.448625,19.3115783 C113.589454,16.1492446 111.536037,14.2124224 108.296964,13.5868117 C106.329463,13.2097312 104.361962,13.3382814 102.403053,13.6896518 C98.8289039,14.3238325 95.4523635,15.5579139 92.1703319,17.0748057 C88.4243482,18.8059477 84.7900567,20.7427699 81.5338002,23.2966328 C78.4407862,25.7305156 75.6484818,28.4643488 73.4146383,31.7209525 C73.1225203,32.140883 72.8561774,32.5865235 72.5211009,33.1092941 L72.5211009,33.1092941 Z M75.029879,33.1092941 C75.5969316,33.1092941 76.0866588,33.0750141 76.5592026,33.1178641 C77.0317464,33.1607142 77.2465391,32.9721739 77.4613317,32.5608135 C79.7037669,28.2243885 82.796781,24.6335544 86.9981251,22.0625514 C90.1426894,20.1428692 93.4676795,18.5916974 96.9645037,17.4004661 C99.6021574,16.500615 102.291361,15.8321543 105.092257,15.7550242 C106.793415,15.7121741 108.468798,15.8835743 110.049672,16.5863151 C112.575633,17.7089864 113.924531,19.7657888 114.457217,22.3882118 C115.144553,25.8076457 115.453854,29.2784997 115.668647,32.7579237 C115.677239,32.8607638 115.694422,32.9550339 115.711606,33.0835841 C115.771748,33.032164 115.806114,33.015024 115.806114,32.997884 C115.814706,32.8864738 115.823298,32.7750637 115.823298,32.6550836 C115.814706,28.7814391 115.161736,24.9849248 114.3713,21.2055504 C113.976081,19.3287183 113.116911,17.6832764 111.578995,16.466335 C110.066855,15.2751036 108.288372,14.8380331 106.41538,14.752333 C103.700401,14.6323529 101.097114,15.2065435 98.5281942,16.0035545 C94.0089569,17.4176061 89.8076128,19.5001185 85.7609194,21.9254313 C81.4908417,24.4878642 78.0885262,27.9072981 75.5625647,32.183733 C75.3735472,32.4665434 75.2274882,32.7579237 75.029879,33.1092941 L75.029879,33.1092941 Z M77.1434386,47.789721 C77.1262552,47.832571 77.1176635,47.8668511 77.1004801,47.9097011 C77.7018995,48.2267915 78.2947272,48.5781619 78.91333,48.8524022 C81.6884509,50.1121936 84.6439977,50.6092542 87.6596864,50.8063644 C90.8214341,51.0206147 93.9831818,50.8406445 97.1449295,50.6863843 C100.366819,50.5321241 103.580117,50.395004 106.802007,50.6349642 C108.52894,50.7635144 110.255872,50.8577845 111.991397,50.8663545 C112.773242,50.8663545 113.572271,50.6521043 114.345524,50.463564 C114.82666,50.3435839 115.247654,50.0436336 115.410896,49.546573 C115.591322,48.9980924 115.711606,48.4239017 115.866256,47.824001 C115.668647,47.815431 115.522588,47.824001 115.385121,47.798291 C114.92976,47.7040209 114.689193,47.8668511 114.586092,48.3296316 C114.345524,49.4094528 113.580863,49.9322234 112.541266,50.1464737 C110.831517,50.5064141 109.113176,50.3692939 107.412018,50.1721837 C104.508021,49.8465233 101.604025,49.580853 98.6828449,49.538003 C95.203204,49.4865829 91.7235632,49.4180228 88.2525141,49.2637627 C85.9327536,49.1523525 83.6473598,48.7495621 81.4736583,47.8754211 C81.3791495,47.841141 81.2846408,47.806861 81.1815403,47.806861 C79.8240508,47.789721 78.4837447,47.789721 77.1434386,47.789721 L77.1434386,47.789721 Z M115.058636,33.0835841 C115.118778,33.0921541 115.17892,33.1007241 115.239062,33.1092941 C115.256245,32.9721739 115.307795,32.8264838 115.299204,32.6893636 C115.256245,31.9780528 115.23047,31.258172 115.144553,30.5554312 C114.818068,27.8644481 114.560317,25.164895 114.096365,22.4996219 C113.486354,18.9944879 111.192368,16.8605554 107.678361,16.2777948 C105.496068,15.9092843 103.339549,16.1492446 101.200215,16.6034551 C96.9816871,17.5033062 93.072461,19.2001681 89.2663354,21.1798404 C84.4635719,23.6737133 80.7863218,27.2902574 78.1658516,32.0037628 C77.976834,32.3465632 77.8049999,32.7065036 77.5902073,33.1264341 C77.8823253,33.1264341 78.0971179,33.1007241 78.3033189,33.1350041 C78.8102295,33.2207042 79.0336139,32.989314 79.2655899,32.5436735 C81.1557652,28.8071492 83.7934188,25.6790956 87.2472845,23.2966328 C89.9364884,21.4455107 92.9006269,20.1171592 95.9592741,19.0030579 C98.9577795,17.9146666 102.016427,17.1005157 105.238316,17.0662357 C106.991024,17.0405256 108.700774,17.2719159 110.273056,18.0860668 C112.584225,19.2772982 113.82143,21.2741105 114.17369,23.7508434 C114.560317,26.3989764 114.732151,29.0813895 114.989902,31.7552325 C115.032861,32.183733 115.032861,32.6379436 115.058636,33.0835841 L115.058636,33.0835841 Z M79.3772821,33.1092941 C79.6350333,33.1092941 79.8240508,33.0835841 80.0044766,33.1178641 C80.5027955,33.2121342 80.7089965,32.9636039 80.9237891,32.5351034 C82.8053727,28.7385891 85.51176,25.6448155 89.103093,23.3823329 C92.3765329,21.3169606 95.9764576,19.954329 99.731033,19.0201979 C102.188261,18.4117272 104.679855,18.0774968 107.214409,18.4202972 C110.943209,18.9259278 113.331703,21.1627004 113.847205,24.8735146 C114.147915,27.0331571 114.216649,29.2185096 114.3713,31.3952921 C114.405666,31.8495027 114.379891,32.3122832 114.405666,32.7664937 C114.414258,32.8779038 114.508767,32.989314 114.560317,33.0921541 C114.594684,32.980744 114.672009,32.8693338 114.672009,32.7664937 C114.672009,32.3637032 114.654826,31.9694828 114.620459,31.5666923 C114.3713,28.9956894 114.216649,26.4161164 113.830022,23.8622535 C113.280153,20.2457093 111.020534,18.1117769 107.403426,17.5461562 C105.427334,17.2290659 103.459833,17.4090361 101.518108,17.7861165 C97.4112724,18.5916974 93.5879634,20.1428692 89.8935299,22.0796914 C86.7231905,23.7422733 84.1027202,26.047606 81.9462021,28.8842793 C80.9667476,30.1869207 80.0903937,31.5581223 79.3772821,33.1092941 L79.3772821,33.1092941 Z M113.855797,33.0921541 C113.907347,33.0921541 113.950306,33.0921541 114.001856,33.0835841 C114.01904,32.989314 114.036223,32.8950439 114.036223,32.8007738 C114.027631,30.1526407 113.915939,27.5216477 113.520721,24.8992247 C113.030993,21.668331 111.072085,19.6115286 107.867378,18.9087878 C105.977203,18.4974273 104.078436,18.6002674 102.188261,18.8916478 C99.0179214,19.3801383 96.0108244,20.4342495 93.072461,21.685471 C88.4501233,23.6480032 84.8158318,26.7503468 82.1781782,31.0096417 C81.774368,31.6609624 81.4306998,32.3465632 81.0097062,33.1092941 C81.336191,33.1092941 81.5509836,33.0835841 81.7485929,33.1178641 C82.152403,33.1778542 82.3328289,32.997884 82.5132547,32.6379436 C84.489347,28.5586189 87.4534855,25.3791452 91.4314452,23.2023627 C94.2495247,21.668331 97.2652134,20.6484998 100.401186,19.988609 C102.763905,19.4915485 105.152399,19.2515882 107.558077,19.7057987 C110.805742,20.3142694 112.859159,22.3110817 113.434804,25.5334054 C113.847205,27.8473081 113.830022,30.1954908 113.830022,32.5351034 C113.830022,32.7236437 113.847205,32.9036139 113.855797,33.0921541 L113.855797,33.0921541 Z M82.6335386,33.1092941 C82.9772068,33.1092941 83.2091828,33.1350041 83.4239755,33.1007241 C83.5442594,33.0750141 83.7160935,32.9721739 83.759052,32.8607638 C84.867382,30.1612107 86.7231905,28.0358483 88.8883003,26.1504461 C91.2166526,24.1279238 93.948815,22.8424223 96.8614033,21.9168612 C99.8083583,20.9741602 102.806864,20.3399794 105.934245,20.5713697 C107.334693,20.6742098 108.68359,20.9827302 109.903613,21.711181 C112.017172,22.9624024 112.979443,24.9335047 113.142686,27.2902574 C113.271561,29.1070995 113.237194,30.9410816 113.271561,32.7664937 C113.271561,32.8693338 113.297336,32.980744 113.31452,33.0835841 C113.41762,33.023594 113.443395,32.9636039 113.443395,32.9121839 C113.503537,30.5725712 113.477762,28.2243885 113.134094,25.9019158 C112.730284,23.1766527 111.295469,21.2398305 108.606265,20.3571195 C106.81919,19.7743588 104.980565,19.7400787 103.124757,19.928619 C100.100476,20.2371393 97.2222549,21.1112803 94.3955837,22.1996716 C89.7904294,23.9736636 86.2506467,26.9903071 83.6731349,31.1553319 C83.3122833,31.7638026 83.0115736,32.4065533 82.6335386,33.1092941 L82.6335386,33.1092941 Z M82.5218464,47.781151 C84.1284954,48.4067617 85.803878,48.7409921 87.496444,48.8352622 C90.5550912,48.9980924 93.6137385,49.1266425 96.6723857,49.1609225 C100.315269,49.1952026 103.932377,49.4094528 107.549485,49.8208133 C109.027259,49.9922135 110.54799,49.9579335 112.042947,49.8550933 C113.486354,49.7608232 114.156507,49.0580824 114.319749,47.781151 C114.061998,47.781151 113.804247,47.7554409 113.546496,47.789721 C113.41762,47.806861 113.237194,47.8925611 113.185644,47.9954012 C112.790426,48.7581321 112.128864,49.1266425 111.321244,49.2980427 C110.04108,49.572283 108.752324,49.4523029 107.47216,49.3237527 C105.453109,49.1095025 103.434058,48.8524022 101.415007,48.672432 C99.1382053,48.4753218 96.8442198,48.3467716 94.5588261,48.1925114 C92.0930066,48.0296812 89.6357787,47.6697408 87.1527758,47.772581 C85.9843038,47.815431 84.8072401,47.781151 83.6301764,47.781151 L82.5218464,47.781151 L82.5218464,47.781151 Z M112.773242,33.0750141 C112.799017,33.0750141 112.833384,33.0835841 112.859159,33.0835841 C112.876343,33.040734 112.91071,32.989314 112.91071,32.9464639 C112.850568,30.8639515 112.927893,28.7728691 112.687325,26.7074968 C112.343657,23.7594134 110.556582,21.9340013 107.669769,21.2141204 C106.381013,20.8884601 105.066482,20.84561 103.74336,20.9227401 C100.701896,21.0941403 97.7978992,21.8997212 94.971228,22.9881125 C90.9331263,24.5478543 87.7284201,27.1359972 85.3227424,30.7096913 C84.8330152,31.4381422 84.4635719,32.2351531 84.0082115,33.0664441 C84.2315958,33.0921541 84.3261046,33.1178641 84.4206133,33.1178641 C85.3227424,33.1435741 85.2969673,33.1350041 85.6750024,32.3294232 C87.2730597,28.8928493 89.833388,26.3304163 93.0896444,24.4792942 C95.7101147,22.9881125 98.6055195,22.2168116 101.586841,21.7797411 C103.528567,21.4969308 105.470292,21.4283707 107.386243,21.8911512 C110.264464,22.585322 112.146048,24.307894 112.575633,27.2988274 C112.790426,28.8328592 112.730284,30.401171 112.790426,31.9523428 C112.790426,32.3122832 112.773242,32.6893636 112.773242,33.0750141 L112.773242,33.0750141 Z M49.6156134,46.8127398 C50.2943582,46.8127398 50.9301444,46.8213099 51.5573389,46.8127398 C53.1811713,46.7870298 54.6417613,45.7414886 55.2259973,44.1731768 C55.7844581,42.6905651 55.3462811,40.9251431 54.1949926,39.8453218 C52.8718699,38.5941004 51.2566292,38.7226506 49.6156134,38.7826406 C49.6156134,41.4650537 49.6156134,44.1131867 49.6156134,46.8127398 L49.6156134,46.8127398 Z M75.2876302,46.8127398 C73.8957738,45.1244479 72.5812428,43.5304261 71.1722031,41.8335641 C72.2203912,40.822303 73.2513959,39.8196118 74.3425425,38.7569306 C73.9559158,38.7569306 73.6380227,38.7740706 73.3287212,38.7483606 C72.9678696,38.7140805 72.7187101,38.8340607 72.4695507,39.099731 C71.8423562,39.7681918 71.1807948,40.3938025 70.5278252,41.0365532 C70.4590915,41.1051133 70.3645828,41.1651034 70.2099321,41.2850835 L70.2099321,38.7826406 L69.1359688,38.7826406 L69.1359688,46.7784598 L70.2442989,46.7784598 L70.2442989,42.4848849 C71.4213626,43.8989365 72.5125092,45.227288 73.6208392,46.5556396 C73.715348,46.6670497 73.8528153,46.7955998 73.9816909,46.8041698 C74.3940928,46.8384499 74.7893112,46.8127398 75.2876302,46.8127398 L75.2876302,46.8127398 Z M63.0616329,44.5159772 C63.087408,44.7473675 63.087408,44.9273377 63.1303665,45.1073079 C63.4224845,46.3413893 64.7112404,47.0527001 66.1460552,46.7527498 C67.2286102,46.5299295 67.9589052,45.7586286 68.0018637,44.7987875 C68.0448222,43.7103963 67.4691779,42.9133854 66.3522562,42.596295 C65.9398543,42.4763149 65.510269,42.4334648 65.0978671,42.3391947 C64.4105307,42.1763645 64.0410873,41.705014 64.1012293,41.0965433 C64.1699629,40.3938025 64.6596902,39.9138819 65.3556183,39.8624619 C66.1030967,39.8024718 66.6959244,40.2138323 66.8763502,40.9080031 C66.9193088,41.0794033 66.9536756,41.2593735 66.9880424,41.4393437 L68.0448222,41.4393437 C68.0362305,40.4366525 67.701154,39.6139316 66.8162083,39.125441 C65.9226709,38.6198104 64.9775833,38.5941004 64.0840459,39.142581 C63.2506504,39.6567816 62.8038817,40.7366029 63.0100827,41.6707339 C63.2420587,42.6991351 63.9809454,43.2133357 64.9432164,43.444726 C65.3298432,43.5389961 65.7336534,43.5732761 66.1202801,43.6846863 C66.6529659,43.8389464 66.8935336,44.1388968 66.8935336,44.5845373 C66.8935336,45.0730279 66.6443742,45.4329683 66.1288718,45.6043685 C65.2525179,45.8957488 64.341797,45.6386485 64.1012293,44.5159772 C63.7833362,44.5159772 63.4568514,44.5159772 63.0616329,44.5159772 L63.0616329,44.5159772 Z M112.25774,33.057874 C112.283515,33.057874 112.300698,33.0664441 112.326474,33.0664441 C112.343657,33.006454 112.378024,32.9464639 112.378024,32.8864738 C112.352249,31.1467619 112.403799,29.3984798 112.274923,27.6673379 C112.154639,26.1333061 111.527445,24.7706745 110.333198,23.7251333 C108.93275,22.4996219 107.223,22.0625514 105.427334,21.9511413 C102.497562,21.7626011 99.6794827,22.3625018 96.9043618,23.2280728 C92.4968167,24.6078443 89.0945013,27.2645474 86.6716403,31.1724719 C86.3107886,31.7638026 86.0444457,32.4065533 85.7093692,33.0750141 C85.9069784,33.0921541 86.0014872,33.0921541 86.1045877,33.1092941 C86.5599481,33.1949942 86.7747407,33.006454 86.912208,32.5522435 C87.0754504,32.0123328 87.3332016,31.4895622 87.6253196,31.0010717 C89.2749271,28.2758086 91.6032793,26.2618562 94.3955837,24.7878145 C96.6809774,23.5794432 99.1639804,22.9624024 101.724309,22.6281721 C103.597301,22.3796418 105.470292,22.3710718 107.308917,22.8681323 C109.79192,23.5451631 111.518853,25.0449148 112.017172,27.6073478 C112.274923,28.9614093 112.20619,30.384031 112.274923,31.7809426 C112.274923,32.2094431 112.25774,32.6293736 112.25774,33.057874 L112.25774,33.057874 Z M111.733646,33.0664441 C111.759421,33.0750141 111.776604,33.0750141 111.80238,33.0835841 C111.828155,32.980744 111.862521,32.8779038 111.862521,32.7836337 C111.871113,31.4809922 111.931255,30.1869207 111.85393,28.8928493 C111.750829,27.1702773 111.158002,25.6276755 109.774737,24.4964342 C108.417247,23.3909029 106.810598,22.9966825 105.109441,22.8852724 C102.617846,22.7138722 100.203577,23.1423727 97.8236743,23.8365435 C93.9316316,24.9677848 90.8042507,27.1702773 88.4157565,30.435451 C87.8315205,31.2324619 87.3847518,32.106603 87.1012255,33.1264341 C87.3417933,33.1264341 87.5222191,33.1092941 87.7026449,33.1264341 C88.1064551,33.1778542 88.3298395,33.057874 88.3813897,32.6122335 C88.4157565,32.3037132 88.5446321,32.0037628 88.664916,31.7209525 C89.7216958,29.1927996 91.5946876,27.3930975 93.8972648,25.9961859 C95.9764576,24.7363945 98.3048098,24.1879139 100.667529,23.7765534 C102.798272,23.3994729 104.937607,23.2794928 107.059758,23.8451135 C109.027259,24.3678841 110.505032,25.4648453 111.261102,27.4188076 C111.733646,28.661459 111.750829,29.9555305 111.742238,31.258172 C111.725054,31.8580727 111.733646,32.4579734 111.733646,33.0664441 L111.733646,33.0664441 Z M88.6305492,33.1092941 C88.9054837,33.1092941 89.1546432,33.1350041 89.3866193,33.1007241 C89.4983114,33.0835841 89.6701456,32.9550339 89.687329,32.8521938 C89.9021216,31.7123825 90.4262157,30.7268314 91.1479189,29.8355503 C93.2442951,27.2559774 95.8991322,25.5419754 99.1553887,24.7878145 C101.664167,24.2050539 104.190128,23.9736636 106.707498,24.6935444 C108.889791,25.3191552 110.39334,26.6646467 110.943209,28.9185593 C111.243919,30.1269307 111.218144,31.3524421 111.123635,32.5779535 C111.106451,32.7493537 111.123635,32.9121839 111.123635,33.0835841 L111.235327,33.0835841 C111.261102,32.980744 111.304061,32.8864738 111.304061,32.7836337 C111.304061,31.5409823 111.389978,30.2897609 111.261102,29.0642495 C111.003351,26.6046566 109.628678,24.9592147 107.240184,24.273614 C106.381013,24.0250837 105.470292,23.8708235 104.585347,23.8451135 C101.38064,23.7337033 98.2876264,24.3850241 95.349263,25.6362455 C92.840485,26.7074968 90.8729844,28.4729188 89.4725363,30.8296715 C89.0687262,31.5238423 88.7680164,32.2608631 88.6305492,33.1092941 L88.6305492,33.1092941 Z M59.4617082,46.8041698 C59.4617082,46.2385492 59.4531165,45.6814985 59.4702999,45.1330179 C59.4788916,44.9273377 59.5132584,44.7045174 59.6077672,44.5245472 C60.3552456,43.0162255 61.1199074,41.5079038 61.8759775,40.008152 C62.0735867,39.6139316 62.2626043,39.2197111 62.4859886,38.7655006 C62.1423204,38.7655006 61.8759775,38.7912106 61.6096346,38.7569306 C61.3175166,38.7226506 61.1714576,38.8340607 61.0511737,39.099731 C60.8191977,39.6053616 60.5614465,40.1024221 60.3122871,40.5994827 C59.8569267,41.5079038 59.3929745,42.4248948 58.9032473,43.3933059 C58.8087386,43.2133357 58.7400049,43.0933556 58.6712713,42.9648054 C58.0268933,41.679304 57.3825154,40.3852325 56.7295458,39.099731 C56.6608121,38.9711808 56.5147531,38.8083507 56.3944692,38.7912106 C56.0679844,38.7483606 55.7243162,38.7740706 55.3462811,38.7740706 C55.4150148,38.9369008 55.4579733,39.0397409 55.5095235,39.134011 C56.3601024,40.830873 57.2020896,42.5363049 58.0612602,44.2245969 C58.2674611,44.6359573 58.3791533,45.0301778 58.3533781,45.4929583 C58.327603,45.9300288 58.3447864,46.3670993 58.3447864,46.8127398 C58.7228215,46.8041698 59.0407146,46.8041698 59.4617082,46.8041698 L59.4617082,46.8041698 Z M110.565174,33.0750141 C110.608132,33.0835841 110.642499,33.0835841 110.685458,33.0921541 C110.711233,33.015024 110.754191,32.9378939 110.754191,32.8607638 C110.779967,32.1923031 110.831517,31.5238423 110.822925,30.8468115 C110.79715,29.4841799 110.54799,28.1729684 109.706003,27.0502971 C108.657815,25.6619555 107.17145,24.9934948 105.521843,24.7878145 C101.286132,24.2479039 97.3511305,25.0620549 93.8886731,27.6759079 C92.342166,28.8414292 91.0104516,30.2040608 90.2973401,32.0551829 C90.1770562,32.3722733 90.1169142,32.7236437 90.0138138,33.1007241 C90.3660737,33.1007241 90.6238249,33.1264341 90.8729844,33.0921541 C90.9846765,33.0750141 91.1479189,32.9378939 91.1651023,32.8436238 C91.3369365,31.6352524 91.8868056,30.5982812 92.6514674,29.6641501 C96.2771673,25.2334551 102.351503,24.4021641 106.226363,25.5334054 C107.961887,26.039036 109.33656,27.0160171 110.09263,28.7300191 C110.651091,29.9983805 110.642499,31.3353021 110.582357,32.6807936 C110.565174,32.8179138 110.565174,32.9464639 110.565174,33.0750141 L110.565174,33.0750141 Z M79.875601,46.7955998 L81.0182979,46.7955998 L81.0182979,39.8624619 L82.94284,39.8624619 L82.94284,38.7912106 L77.9338755,38.7912106 L77.9338755,39.8796019 L79.8670093,39.8796019 C79.875601,42.2020746 79.875601,44.4816972 79.875601,46.7955998 L79.875601,46.7955998 Z M109.946571,33.0835841 C110.015305,33.0921541 110.09263,33.0921541 110.161364,33.1007241 C110.187139,32.6636536 110.230097,32.2180131 110.230097,31.7809426 C110.281648,28.4472087 108.700774,26.3646964 105.435926,25.7219456 C101.827409,25.0106348 98.4336854,25.6448155 95.349263,27.7016179 C93.862898,28.695739 92.6085089,29.9126804 91.8868056,31.5838324 C91.6891964,32.0466129 91.5860959,32.5436735 91.4314452,33.0750141 L92.3679412,33.0750141 C92.4194914,31.7895126 93.0123191,30.7782514 93.8199394,29.8698304 C94.6962934,28.8842793 95.7616649,28.1472584 96.869995,27.4616576 C99.3272228,25.9533359 101.956285,25.3791452 104.808731,25.9790459 C106.36383,26.3047063 107.738503,26.964597 108.760916,28.2158185 C109.809104,29.50132 110.049672,31.0182117 109.963754,32.6122335 C109.955163,32.7664937 109.955163,32.9293239 109.946571,33.0835841 L109.946571,33.0835841 Z M93.7512058,33.0835841 C93.8371228,31.3695821 94.7134768,30.1097907 95.9420907,29.0728195 C98.5110108,26.904607 101.483741,26.2361462 104.739997,26.930317 C107.729911,27.5644977 109.276418,29.51846 109.293601,32.5008234 C109.293601,32.6979336 109.379519,32.9036139 109.431069,33.1007241 C109.491211,32.9036139 109.602903,32.7150737 109.611495,32.5093934 C109.766145,29.7327102 108.597673,27.770178 106.183404,26.7760568 C104.65408,26.1418761 103.056023,26.013326 101.423599,26.1847261 C99.5334237,26.3818364 97.9009996,27.2302674 96.3459009,28.2415285 C95.263346,28.9442693 94.2752998,29.7669903 93.5364131,30.8468115 C93.0810527,31.5152723 92.7717513,32.2351531 92.7631596,33.0921541 C93.0896444,33.0835841 93.3989458,33.0835841 93.7512058,33.0835841 L93.7512058,33.0835841 Z M95.0313699,33.0921541 C95.057145,31.4210022 95.847582,30.1697807 97.1277461,29.2270796 C99.1897555,27.7016179 101.509516,27.1274272 104.052661,27.5730677 C105.556209,27.838738 106.836374,28.5071988 107.721319,29.8012703 C108.339922,30.7011213 108.546123,31.7295225 108.571898,32.8007738 C108.571898,32.9036139 108.674999,32.997884 108.726549,33.0921541 C108.786691,33.015024 108.889791,32.9378939 108.898383,32.8607638 C109.03585,30.5811412 108.271188,28.661459 105.908469,27.7016179 C103.133348,26.5789466 100.384003,26.8360469 97.7635324,28.2329585 C96.4747765,28.9271293 95.3836299,29.8612604 94.6533349,31.1553319 C94.3182584,31.7380925 94.1120574,32.3637032 94.1378325,33.0750141 C94.4385422,33.0921541 94.7134768,33.0921541 95.0313699,33.0921541 L95.0313699,33.0921541 Z M108.150905,33.0750141 C108.425839,31.4552822 107.549485,29.6127301 106.037345,28.704309 C104.645489,27.8644481 103.116165,27.6501978 101.526699,27.8558781 C99.524832,28.1129784 97.7463489,28.8585692 96.3974511,30.418311 C95.7444815,31.1724719 95.3750382,32.0466129 95.409405,33.0750141 L96.1654751,33.0750141 C96.1826585,31.6695325 96.8184447,30.6068512 97.8666328,29.7755603 C98.940596,28.9185593 100.194985,28.4729188 101.552475,28.2843786 C102.617846,28.1386884 103.674626,28.2158185 104.679855,28.5928989 C106.578622,29.3213498 107.661177,30.6839813 107.815828,32.7322137 C107.833011,32.9464639 107.807236,33.1949942 108.150905,33.0750141 L108.150905,33.0750141 Z M75.7515823,38.7826406 L75.7515823,46.7784598 L76.8083621,46.7784598 L76.8083621,38.7826406 L75.7515823,38.7826406 L75.7515823,38.7826406 Z M94.8165773,47.781151 C94.8165773,47.798291 94.8165773,47.824001 94.8079856,47.841141 C94.9884114,47.858281 95.1688372,47.8839911 95.349263,47.9011311 C96.9902788,48.0039712 98.6312946,48.0725313 100.27231,48.2182215 C103.073206,48.4753218 105.874103,48.7924121 108.674999,49.0666524 C109.645861,49.1609225 110.625316,49.1523525 111.570403,48.8609722 C112.120273,48.689572 112.601408,48.4153317 112.833384,47.789721 C112.214781,47.806861 111.639137,47.6697408 111.132226,48.1325214 C110.934617,48.3124916 110.616724,48.3724816 110.34179,48.4324717 C109.250643,48.689572 108.150905,48.6038719 107.059758,48.4753218 C104.791548,48.2096515 102.557704,47.6697408 100.246535,47.772581 C98.4422771,47.841141 96.6294272,47.781151 94.8165773,47.781151 L94.8165773,47.781151 Z M107.454976,33.057874 C107.429201,31.1810419 106.578622,29.8526904 104.894648,29.0813895 C103.872235,28.6100389 102.781089,28.4900588 101.664167,28.635749 C100.066109,28.8585692 98.6141112,29.4070499 97.4971895,30.6239912 C96.869995,31.309592 96.517735,32.115173 96.5521018,33.0835841 L97.2652134,33.0835841 C97.3253554,31.7123825 97.9869167,30.7182614 99.0952467,29.9898105 C99.8513168,29.4927499 100.684712,29.2099396 101.569658,29.0813895 C104.60253,28.644319 106.913699,30.444021 107.025391,32.8264838 C107.042575,33.1092941 107.180042,33.1692842 107.454976,33.057874 L107.454976,33.057874 Z M106.561439,33.1607142 C106.595806,33.1178641 106.630173,33.0750141 106.664539,33.040734 C106.638764,32.0723229 106.295096,31.2324619 105.590576,30.5554312 C103.605892,28.644319 99.4904652,29.1756596 98.0642421,31.5409823 C97.7807158,32.0123328 97.6088817,32.5093934 97.6604319,33.0921541 L98.270443,33.0921541 C98.70862,31.5666923 99.0179214,31.0696318 99.8856837,30.5382912 C100.598795,30.1012206 101.372049,29.8784004 102.196853,29.8441204 C104.327596,29.7669903 105.693677,30.8125315 106.217771,32.8950439 C106.260729,33.006454 106.449747,33.0750141 106.561439,33.1607142 L106.561439,33.1607142 Z M99.3444062,33.0835841 C99.4560984,32.132313 99.9458256,31.4638522 100.770629,31.0439217 C102.703763,30.0583706 105.057891,30.9839317 105.392967,32.8864738 C105.41015,32.997884 105.642127,33.0664441 105.831144,33.1949942 C105.891286,31.4295722 104.181537,30.0840806 102.196853,30.1869207 C100.246535,30.2811909 98.5711527,31.6866725 98.7687619,33.0835841 L99.3444062,33.0835841 L99.3444062,33.0835841 Z M100.332452,33.0921541 C100.641754,32.0551829 101.311907,31.5152723 102.317136,31.4638522 C103.305183,31.4124322 104.104211,31.9180627 104.482246,32.8693338 C104.611122,33.1778542 104.782956,33.1264341 105.00634,33.049304 C104.843098,31.7038125 103.477017,30.8125315 101.956285,31.0267817 C100.667529,31.2153219 99.6622993,32.166593 99.7997666,33.0835841 C99.9716007,33.0921541 100.134843,33.0921541 100.332452,33.0921541 L100.332452,33.0921541 Z M100.753446,33.0750141 C101.062747,33.1607142 101.286132,33.1350041 101.492333,32.8093438 C101.939101,32.0980329 103.047431,32.132313 103.519975,32.8607638 C103.700401,33.1435741 103.880827,33.1435741 104.14717,33.0664441 C103.915194,32.2865732 103.19349,31.7980826 102.38587,31.8323626 C101.483741,31.8666427 100.762038,32.4494033 100.753446,33.0750141 L100.753446,33.0750141 Z M110.8487,47.7383009 C109.327968,47.806861 107.807236,47.8668511 106.191996,47.9354111 C107.506527,48.2610715 110.135589,48.4067617 110.8487,47.7383009 L110.8487,47.7383009 Z M101.767267,33.0750141 L103.202082,33.0750141 C102.746722,32.5265334 102.162486,32.5265334 101.767267,33.0750141 Z M50.7411269,45.6557885 L50.7411269,39.9224519 C51.9955159,39.7767618 53.0694791,40.0852821 53.8083658,41.1393933 C54.504294,42.1335145 54.5558442,43.2047657 53.9372414,44.2417369 C53.2327215,45.4415383 52.1157998,45.8100487 50.7411269,45.6557885 Z" id="Logo" sketch:type="MSShapeGroup"></path>
            </g>
        </g>
    </g>
</svg>