<?xml version="1.0" encoding="UTF-8" standalone="no"?>
<svg width="50px" height="47px" viewBox="0 0 50 47" version="1.1" xmlns="http://www.w3.org/2000/svg" xmlns:xlink="http://www.w3.org/1999/xlink" xmlns:sketch="http://www.bohemiancoding.com/sketch/ns">
    <!-- Generator: Sketch 3.2.2 (9983) - http://www.bohemiancoding.com/sketch -->
    <title>Fill 224</title>
    <desc>Created with Sketch.</desc>
    <defs></defs>
    <g id="Page-1" stroke="none" stroke-width="1" fill="none" fill-rule="evenodd" sketch:type="MSPage">
        <g id="Home-APP-Upload-Etape4" sketch:type="MSArtboardGroup" transform="translate(-863.000000, -474.000000)" fill-opacity="0.1" fill="#0A0B09">
            <g id="Send-Zone" sketch:type="MSLayerGroup" transform="translate(250.000000, 66.000000)">
                <g id="Etape4" transform="translate(289.000000, 211.000000)" sketch:type="MSShapeGroup">
                    <g id="COver" transform="translate(293.000000, 165.000000)">
                        <path d="M76.3350131,74.0424516 L46.3480972,74.0424516 L46.3480972,69.7924176 L50.9615842,59.1698064 L57.8820648,67.6698744 L64.3740466,61.0845481 L72.7210232,58.1011133 L76.3350131,66.0717825 L76.3350131,74.0424516 L76.3350131,74.0424516 Z M79.0955053,51.7285361 L42.9206068,51.7285361 C41.8691097,51.7285361 41.0166121,52.6191137 41.0166121,53.712545 L41.0166121,77.0209388 C41.0166121,78.1143701 41.8691097,79 42.9206068,79 L79.0955053,79 C80.1475024,79 81,78.1143701 81,77.0209388 L81,53.712545 C81,52.6191137 80.1475024,51.7285361 79.0955053,51.7285361 L79.0955053,51.7285361 Z M73.8120202,47.265753 L68.6980345,33.3282143 C68.3205356,32.2991024 67.2125387,31.7499129 66.2255414,32.1110916 L32.2321368,44.3862189 C31.2441395,44.74245 30.7491409,45.8655672 31.1266399,46.8946791 L36.5186248,61.5941564 L36.5186248,53.712545 C36.5186248,50.1601301 39.3906167,47.265753 42.9206068,47.265753 L51.9025816,47.265753 L62.6150516,39.8244828 L68.8145342,47.265753 L73.8120202,47.265753 L73.8120202,47.265753 Z" id="Fill-224"></path>
                    </g>
                </g>
            </g>
        </g>
    </g>
</svg>