<?xml version="1.0" encoding="UTF-8" standalone="no"?>
<svg width="207px" height="171px" viewBox="0 0 207 171" version="1.1" xmlns="http://www.w3.org/2000/svg" xmlns:xlink="http://www.w3.org/1999/xlink" xmlns:sketch="http://www.bohemiancoding.com/sketch/ns">
    <!-- Generator: Sketch 3.2.2 (9983) - http://www.bohemiancoding.com/sketch -->
    <title>“</title>
    <desc>Created with Sketch.</desc>
    <defs></defs>
    <g id="Page-1" stroke="none" stroke-width="1" fill="none" fill-rule="evenodd" sketch:type="MSPage">
        <g id="One-Page-Responsive" sketch:type="MSArtboardGroup" transform="translate(0.000000, -5150.000000)" fill="#3D3B3A" opacity="0.0399999991">
            <g id="Ils-en-parlent" sketch:type="MSLayerGroup" transform="translate(-36.000000, 4544.000000)">
                <path d="M103.845596,606 C45.5398964,615.395604 0.4,649.846154 0.4,713.10989 C0.4,746.307692 21.0891192,777 56.8248705,777 C91.9336788,777 110.741969,756.32967 110.741969,721.879121 C110.741969,698.703297 95.6953368,681.164835 71.8715026,681.164835 C64.9751295,681.164835 57.4518135,681.164835 51.1823834,685.549451 C54.9440415,654.857143 76.8870466,644.208791 103.845596,636.692308 L103.845596,606 Z M235.503627,606 C177.197927,615.395604 132.058031,649.846154 132.058031,713.10989 C132.058031,746.307692 152.74715,777 188.482902,777 C223.59171,777 242.4,756.32967 242.4,721.879121 C242.4,698.703297 227.353368,681.164835 203.529534,681.164835 C196.633161,681.164835 189.109845,681.164835 182.840415,685.549451 C186.602073,654.857143 208.545078,644.208791 235.503627,636.692308 L235.503627,606 Z" id="“" sketch:type="MSShapeGroup"></path>
            </g>
        </g>
    </g>
</svg>