<?xml version="1.0" encoding="UTF-8" standalone="no"?>
<svg width="31px" height="27px" viewBox="0 0 31 27" version="1.1" xmlns="http://www.w3.org/2000/svg" xmlns:xlink="http://www.w3.org/1999/xlink" xmlns:sketch="http://www.bohemiancoding.com/sketch/ns">
    <!-- Generator: Sketch 3.2.2 (9983) - http://www.bohemiancoding.com/sketch -->
    <title>“</title>
    <desc>Created with Sketch.</desc>
    <defs></defs>
    <g id="Page-1" stroke="none" stroke-width="1" fill="none" fill-rule="evenodd" sketch:type="MSPage">
        <g id="One-Page-Inscription_V0" sketch:type="MSArtboardGroup" transform="translate(-370.000000, -3241.000000)" fill="#3D3B3A" opacity="0.1">
            <g id="ILS-EN-PARLENT" sketch:type="MSLayerGroup" transform="translate(0.000000, 3060.000000)">
                <path d="M381.987805,207.658537 L381.987805,196.378049 L375.99187,196.378049 C375.99187,195.226282 376.076557,194.057594 376.245935,192.871951 C376.415313,191.686308 376.737125,190.619246 377.211382,189.670732 C377.685639,188.722217 378.295389,187.96003 379.04065,187.384146 C379.785912,186.808263 380.734412,186.520325 381.886179,186.520325 L381.886179,181.439024 C379.98915,181.439024 378.329275,181.845524 376.906504,182.658537 C375.483733,183.471549 374.315045,184.555549 373.400407,185.910569 C372.485768,187.265589 371.808268,188.840777 371.367886,190.636179 C370.927505,192.431581 370.707317,194.345518 370.707317,196.378049 L370.707317,207.658537 L381.987805,207.658537 Z M400.585366,207.658537 L400.585366,196.378049 L394.589431,196.378049 C394.589431,195.226282 394.674118,194.057594 394.843496,192.871951 C395.012873,191.686308 395.334686,190.619246 395.808943,189.670732 C396.2832,188.722217 396.89295,187.96003 397.638211,187.384146 C398.383473,186.808263 399.331973,186.520325 400.48374,186.520325 L400.48374,181.439024 C398.586711,181.439024 396.926836,181.845524 395.504065,182.658537 C394.081294,183.471549 392.912606,184.555549 391.997967,185.910569 C391.083329,187.265589 390.405829,188.840777 389.965447,190.636179 C389.525066,192.431581 389.304878,194.345518 389.304878,196.378049 L389.304878,207.658537 L400.585366,207.658537 Z" id="“" sketch:type="MSShapeGroup"></path>
            </g>
        </g>
    </g>
</svg>