<?xml version="1.0" encoding="UTF-8" standalone="no"?>
<svg width="31px" height="27px" viewBox="0 0 31 27" version="1.1" xmlns="http://www.w3.org/2000/svg" xmlns:xlink="http://www.w3.org/1999/xlink" xmlns:sketch="http://www.bohemiancoding.com/sketch/ns">
    <!-- Generator: Sketch 3.2.2 (9983) - http://www.bohemiancoding.com/sketch -->
    <title>”</title>
    <desc>Created with Sketch.</desc>
    <defs></defs>
    <g id="Page-1" stroke="none" stroke-width="1" fill="none" fill-rule="evenodd" sketch:type="MSPage">
        <g id="One-Page-Inscription_V0" sketch:type="MSArtboardGroup" transform="translate(-1011.000000, -3313.000000)" fill="#3D3B3A" opacity="0.1">
            <g id="ILS-EN-PARLENT" sketch:type="MSLayerGroup" transform="translate(0.000000, 3060.000000)">
                <path d="M1011.70732,253.439024 L1011.70732,264.719512 L1017.70325,264.719512 C1017.70325,265.871279 1017.61856,267.039967 1017.44919,268.22561 C1017.27981,269.411253 1016.958,270.478315 1016.48374,271.426829 C1016.00948,272.375343 1015.39973,273.137531 1014.65447,273.713415 C1013.90921,274.289298 1012.96071,274.577236 1011.80894,274.577236 L1011.80894,279.658537 C1013.77372,279.658537 1015.45054,279.252037 1016.83943,278.439024 C1018.22833,277.626012 1019.38008,276.542012 1020.29472,275.186992 C1021.20935,273.831972 1021.88685,272.256784 1022.32724,270.461382 C1022.76762,268.66598 1022.9878,266.752043 1022.9878,264.719512 L1022.9878,253.439024 L1011.70732,253.439024 Z M1030.30488,253.439024 L1030.30488,264.719512 L1036.30081,264.719512 C1036.30081,265.871279 1036.21613,267.039967 1036.04675,268.22561 C1035.87737,269.411253 1035.55556,270.478315 1035.0813,271.426829 C1034.60704,272.375343 1033.99729,273.137531 1033.25203,273.713415 C1032.50677,274.289298 1031.55827,274.577236 1030.4065,274.577236 L1030.4065,279.658537 C1032.37128,279.658537 1034.0481,279.252037 1035.43699,278.439024 C1036.82589,277.626012 1037.97764,276.542012 1038.89228,275.186992 C1039.80692,273.831972 1040.48442,272.256784 1040.9248,270.461382 C1041.36518,268.66598 1041.58537,266.752043 1041.58537,264.719512 L1041.58537,253.439024 L1030.30488,253.439024 Z" id="”" sketch:type="MSShapeGroup"></path>
            </g>
        </g>
    </g>
</svg>