<?xml version="1.0" encoding="UTF-8" standalone="no"?>
<svg width="228px" height="172px" viewBox="0 0 228 172" version="1.1" xmlns="http://www.w3.org/2000/svg" xmlns:xlink="http://www.w3.org/1999/xlink" xmlns:sketch="http://www.bohemiancoding.com/sketch/ns">
    <!-- Generator: Sketch 3.2.2 (9983) - http://www.bohemiancoding.com/sketch -->
    <title>“</title>
    <desc>Created with Sketch.</desc>
    <defs></defs>
    <g id="Page-1" stroke="none" stroke-width="1" fill="none" fill-rule="evenodd" sketch:type="MSPage">
        <g id="One-Page-Responsive" sketch:type="MSArtboardGroup" transform="translate(-412.000000, -5373.000000)" fill="#3D3B3A" opacity="0.0399999991">
            <g id="Ils-en-parlent" sketch:type="MSLayerGroup" transform="translate(-36.000000, 4544.000000)">
                <path d="M551.445596,829.73584 C493.139896,839.131444 448,873.581994 448,936.84573 C448,970.043532 468.689119,1000.73584 504.42487,1000.73584 C539.533679,1000.73584 558.341969,980.06551 558.341969,945.614961 C558.341969,922.439137 543.295337,904.900675 519.471503,904.900675 C512.57513,904.900675 505.051813,904.900675 498.782383,909.28529 C502.544041,878.592983 524.487047,867.944631 551.445596,860.428148 L551.445596,829.73584 Z M683.103627,829.73584 C624.797927,839.131444 579.658031,873.581994 579.658031,936.84573 C579.658031,970.043532 600.34715,1000.73584 636.082902,1000.73584 C671.19171,1000.73584 690,980.06551 690,945.614961 C690,922.439137 674.953368,904.900675 651.129534,904.900675 C644.233161,904.900675 636.709845,904.900675 630.440415,909.28529 C634.202073,878.592983 656.145078,867.944631 683.103627,860.428148 L683.103627,829.73584 Z" id="“" sketch:type="MSShapeGroup" transform="translate(569.000000, 915.235840) scale(-1, -1) translate(-569.000000, -915.235840) "></path>
            </g>
        </g>
    </g>
</svg>