<?xml version="1.0" encoding="UTF-8" standalone="no"?>
<svg width="20px" height="15px" viewBox="0 0 20 15" version="1.1" xmlns="http://www.w3.org/2000/svg" xmlns:xlink="http://www.w3.org/1999/xlink" xmlns:sketch="http://www.bohemiancoding.com/sketch/ns">
    <!-- Generator: Sketch 3.2.2 (9983) - http://www.bohemiancoding.com/sketch -->
    <title>Fill 211</title>
    <desc>Created with Sketch.</desc>
    <defs></defs>
    <g id="Page-1" stroke="none" stroke-width="1" fill="none" fill-rule="evenodd" sketch:type="MSPage">
        <g id="One-Page-Inscription_V0" sketch:type="MSArtboardGroup" transform="translate(-1267.000000, -4611.000000)" fill="#0A0B09" opacity="0.3">
            <g id="FOOTER" sketch:type="MSLayerGroup" transform="translate(-4.000000, 4243.000000)">
                <path d="M1291,369.775445 C1290.26304,370.076368 1289.47174,370.280995 1288.64348,370.371272 C1289.48913,369.903838 1290.1413,369.161562 1290.44783,368.276849 C1289.65435,368.710178 1288.77609,369.02715 1287.8413,369.195667 C1287.09348,368.459409 1286.02609,368 1284.84565,368 C1282.58043,368 1280.74348,369.695199 1280.74348,371.787615 C1280.74348,372.084526 1280.77826,372.373412 1280.85,372.650261 C1277.43913,372.491775 1274.41522,370.985154 1272.3913,368.694129 C1272.03913,369.251839 1271.83696,369.903838 1271.83696,370.597967 C1271.83696,371.909991 1272.56087,373.069547 1273.66087,373.749632 C1272.98913,373.729571 1272.35652,373.559048 1271.80217,373.27618 L1271.80217,373.322322 C1271.80217,375.157951 1273.21739,376.688645 1275.09348,377.03571 C1274.75,377.121974 1274.38696,377.168116 1274.01304,377.168116 C1273.74783,377.168116 1273.4913,377.146048 1273.2413,377.099906 C1273.76304,378.604521 1275.27826,379.69988 1277.07391,379.729972 C1275.66957,380.747091 1273.9,381.350943 1271.97826,381.350943 C1271.64783,381.350943 1271.31957,381.332888 1271,381.298783 C1272.81522,382.372074 1274.97174,383 1277.28913,383 C1284.83696,383 1288.96522,377.230306 1288.96522,372.224957 C1288.96522,372.062458 1288.96087,371.897954 1288.95217,371.735455 C1289.75435,371.201819 1290.45,370.535776 1291,369.775445" id="Fill-211" sketch:type="MSShapeGroup"></path>
            </g>
        </g>
    </g>
</svg>