<?xml version="1.0" encoding="UTF-8" standalone="no"?>
<svg width="19px" height="15px" viewBox="0 0 19 15" version="1.1" xmlns="http://www.w3.org/2000/svg" xmlns:xlink="http://www.w3.org/1999/xlink" xmlns:sketch="http://www.bohemiancoding.com/sketch/ns">
    <!-- Generator: Sketch 3.2.2 (9983) - http://www.bohemiancoding.com/sketch -->
    <title>Fill 32</title>
    <desc>Created with Sketch.</desc>
    <defs></defs>
    <g id="Page-1" stroke="none" stroke-width="1" fill="none" fill-rule="evenodd" sketch:type="MSPage">
        <g id="APP---Profil" sketch:type="MSArtboardGroup" transform="translate(-751.000000, -126.000000)" fill="#EF9E19">
            <g id="Center" sketch:type="MSLayerGroup" transform="translate(260.000000, 72.000000)">
                <g id="User" transform="translate(270.000000, 45.000000)" sketch:type="MSShapeGroup">
                    <g id="Icon_photo" transform="translate(214.000000, 0.000000)">
                        <path d="M23.435,14.9983876 C23.0683,14.9983876 22.77,14.7047773 22.77,14.3421704 C22.77,13.9799385 23.0683,13.6859532 23.435,13.6859532 C23.8017,13.6859532 24.1,13.9799385 24.1,14.3421704 C24.1,14.7047773 23.8017,14.9983876 23.435,14.9983876 L23.435,14.9983876 Z M16.5,22.1250937 C13.8761,22.1250937 11.75,20.0251987 11.75,17.4370781 C11.75,14.8485826 13.8761,12.7498125 16.5,12.7498125 C19.1239,12.7498125 21.25,14.8485826 21.25,17.4370781 C21.25,20.0251987 19.1239,22.1250937 16.5,22.1250937 L16.5,22.1250937 Z M24.1,11.8123594 L21.82,11.8123594 C21.5065,11.8123594 21.1683,11.5723714 21.0695,11.2787611 L20.4805,9.53359832 C20.3817,9.239988 20.0435,9 19.73,9 L13.27,9 C12.9565,9 12.6183,9.239988 12.5195,9.53359832 L11.9305,11.2787611 C11.8317,11.5723714 11.4935,11.8123594 11.18,11.8123594 L8.9,11.8123594 C7.855,11.8123594 7,12.6560672 7,13.6872656 L7,22.1250937 C7,23.1562922 7.855,24 8.9,24 L24.1,24 C25.145,24 26,23.1562922 26,22.1250937 L26,13.6872656 C26,12.6560672 25.145,11.8123594 24.1,11.8123594 L24.1,11.8123594 Z M16.5,14.6247188 C14.9268,14.6247188 13.65,15.8842808 13.65,17.4370781 C13.65,18.9902505 14.9268,20.2501875 16.5,20.2501875 C18.0732,20.2501875 19.35,18.9902505 19.35,17.4370781 C19.35,15.8842808 18.0732,14.6247188 16.5,14.6247188 L16.5,14.6247188 Z" id="Fill-32"></path>
                    </g>
                </g>
            </g>
        </g>
    </g>
</svg>