<?xml version="1.0" encoding="UTF-8" standalone="no"?>
<svg width="19px" height="18px" viewBox="0 0 19 18" version="1.1" xmlns="http://www.w3.org/2000/svg" xmlns:xlink="http://www.w3.org/1999/xlink" xmlns:sketch="http://www.bohemiancoding.com/sketch/ns">
    <!-- Generator: Sketch 3.2.2 (9983) - http://www.bohemiancoding.com/sketch -->
    <title>Fill 199</title>
    <desc>Created with Sketch.</desc>
    <defs></defs>
    <g id="Page-1" stroke="none" stroke-width="1" fill="none" fill-rule="evenodd" sketch:type="MSPage">
        <g id="One-Page-Inscription_V0" sketch:type="MSArtboardGroup" transform="translate(-1311.000000, -4609.000000)" fill="#0A0B09" opacity="0.3">
            <g id="FOOTER" sketch:type="MSLayerGroup" transform="translate(-4.000000, 4243.000000)">
                <path d="M1330.81955,373.038409 L1330.81955,369.970227 L1328.80527,369.970227 L1328.80527,373.038409 L1325.62482,373.038409 L1325.62482,374.981591 L1328.80527,374.981591 L1328.80527,378.049773 L1330.81955,378.049773 L1330.81955,374.981591 L1334,374.981591 L1334,373.038409 L1330.81955,373.038409 L1330.81955,373.038409 Z M1322.60339,369.503864 C1323.08258,371.125909 1322.35956,372.823636 1321.20824,373.136591 C1321.07678,373.171364 1320.94108,373.189773 1320.80114,373.189773 C1319.74735,373.189773 1318.70204,372.160909 1318.31615,370.743409 C1318.09988,369.947727 1318.11684,369.250227 1318.36491,368.581364 C1318.60875,367.922727 1319.04765,367.478864 1319.59893,367.329545 C1319.73039,367.292727 1319.86821,367.274318 1320.00603,367.274318 C1321.27821,367.274318 1322.09664,367.783636 1322.60339,369.503864 L1322.60339,369.503864 Z M1323.87769,379.704545 C1323.97099,381.144545 1322.69457,382.204091 1320.77994,382.339091 C1318.83562,382.476136 1317.23267,381.631364 1317.13938,380.195455 C1317.09486,379.504091 1317.40866,378.827045 1318.02567,378.289091 C1318.65116,377.742955 1319.50776,377.4075 1320.44069,377.34 C1320.55094,377.333864 1320.6612,377.329773 1320.76933,377.329773 C1322.56947,377.329773 1323.78864,378.350455 1323.87769,379.704545 L1323.87769,379.704545 Z M1316.00714,370.487727 C1316.00714,372.015682 1316.5351,373.118182 1317.57828,373.766591 C1318.43276,374.296364 1319.42294,374.376136 1319.93818,374.376136 C1320.06327,374.376136 1320.16293,374.372045 1320.2329,374.365909 C1320.2329,374.365909 1320.06964,375.392727 1320.85839,376.409318 L1320.82234,376.407273 C1319.45687,376.407273 1315,376.683409 1315,380.217955 C1315,383.815909 1319.09218,383.997955 1319.91485,383.997955 C1319.97846,383.997955 1320.01663,383.995909 1320.01663,383.995909 C1320.02511,383.997955 1320.08448,384 1320.18413,384 C1320.71209,384 1322.07332,383.934545 1323.33914,383.341364 C1324.98025,382.574318 1325.81353,381.236591 1325.81353,379.369091 C1325.81353,377.562955 1324.54347,376.489091 1323.61902,375.703636 C1323.0529,375.225 1322.56523,374.811818 1322.56523,374.410909 C1322.56523,374.001818 1322.92144,373.695 1323.37306,373.304318 C1324.10244,372.674318 1324.79154,371.776364 1324.79154,370.080682 C1324.79154,368.591591 1324.59011,367.591364 1323.3561,366.955227 C1323.48544,366.891818 1323.93918,366.846818 1324.16605,366.816136 C1324.83395,366.728182 1325.81353,366.627955 1325.81353,366.100227 L1325.81353,366 L1320.93684,366 C1320.88807,366 1316.00714,366.175909 1316.00714,370.487727 L1316.00714,370.487727 Z" id="Fill-199" sketch:type="MSShapeGroup"></path>
            </g>
        </g>
    </g>
</svg>