<?xml version="1.0" encoding="UTF-8" standalone="no"?>
<svg width="22px" height="29px" viewBox="0 0 22 29" version="1.1" xmlns="http://www.w3.org/2000/svg" xmlns:xlink="http://www.w3.org/1999/xlink" xmlns:sketch="http://www.bohemiancoding.com/sketch/ns">
    <!-- Generator: Sketch 3.2.2 (9983) - http://www.bohemiancoding.com/sketch -->
    <title>Fill 135</title>
    <desc>Created with Sketch.</desc>
    <defs></defs>
    <g id="UI-Mobile" stroke="none" stroke-width="1" fill="none" fill-rule="evenodd" sketch:type="MSPage">
        <g id="Sidebar-Menu" sketch:type="MSArtboardGroup" transform="translate(-34.000000, -1057.000000)" fill-opacity="0.7" fill="#FFFFFF">
            <g sketch:type="MSLayerGroup" transform="translate(0.000000, 128.000000)" id="Mes-Playlists">
                <g transform="translate(0.000000, 754.000000)" sketch:type="MSShapeGroup">
                    <g id="Playlist-name" transform="translate(0.000000, 146.000000)">
                        <g id="Nova-Like---Le-Grand-+-Fill-135">
                            <path d="M40.1035511,32.4848313 L40.1065217,50.4647429 C39.1440351,50.2617136 38.0300459,50.3374708 36.921998,50.7556506 C34.4296329,51.7011004 33.5503242,53.9980588 34.2127764,55.8859283 C34.872258,57.7737978 36.8209963,58.5404607 39.3133614,57.5950109 C41.4284555,56.7950148 42.8127727,55.0162357 42.7800957,53.3435166 L42.7800957,38.4899533 L53.3258598,36.0245109 L53.3258598,47.4344548 C52.3633731,47.2314255 51.249384,47.3071827 50.1413361,47.7253624 C47.648971,48.6708123 46.7696622,50.9677707 47.4321144,52.8556402 C48.091596,54.7435097 50.0403344,55.5101726 52.5326995,54.5647227 C54.6477936,53.7647267 56.0321108,51.9859475 55.9994338,50.3132285 L55.9994338,29 L40.1035511,32.4848313" id="Fill-135"></path>
                        </g>
                    </g>
                </g>
            </g>
        </g>
    </g>
</svg>