<?xml version="1.0" encoding="UTF-8" standalone="no"?>
<svg width="22px" height="11px" viewBox="0 0 22 11" version="1.1" xmlns="http://www.w3.org/2000/svg" xmlns:xlink="http://www.w3.org/1999/xlink" xmlns:sketch="http://www.bohemiancoding.com/sketch/ns">
    <!-- Generator: Sketch 3.2.2 (9983) - http://www.bohemiancoding.com/sketch -->
    <title>Fill 68</title>
    <desc>Created with Sketch.</desc>
    <defs></defs>
    <g id="Page-1" stroke="none" stroke-width="1" fill="none" fill-rule="evenodd" sketch:type="MSPage">
        <g id="Mes-artistes-suivis" sketch:type="MSArtboardGroup" transform="translate(-1299.000000, -397.000000)" fill="#FFFFFF">
            <g id="RIGHT_BAR" sketch:type="MSLayerGroup" transform="translate(1180.000000, 72.000000)">
                <g id="PLAYER_Right" sketch:type="MSShapeGroup">
                    <path d="M126.7,325 L120.1,325 C119.4928,325 119,325.4906 119,326.1 C119,326.7072 119.4928,327.2 120.1,327.2 L126.7,327.2 C127.3072,327.2 127.8,326.7072 127.8,326.1 C127.8,325.4906 127.3072,325 126.7,325 L126.7,325 Z M140.34,329.4 L136.6,329.4 L136.6,325.66 C136.6,325.0506 136.1072,325 135.5,325 C134.8928,325 134.4,325.0506 134.4,325.66 L134.4,329.4 L130.77,329.4 C130.1628,329.4 130.11,329.8906 130.11,330.5 C130.11,331.1072 130.1628,331.6 130.77,331.6 L134.4,331.6 L134.4,335.34 C134.4,335.9472 134.8928,336 135.5,336 C136.1072,336 136.6,335.9472 136.6,335.34 L136.6,331.6 L140.34,331.6 C140.9472,331.6 141,331.1072 141,330.5 C141,329.8906 140.9472,329.4 140.34,329.4 L140.34,329.4 Z M126.7,333.8 L120.1,333.8 C119.4928,333.8 119,334.2906 119,334.9 C119,335.5072 119.4928,336 120.1,336 L126.7,336 C127.3072,336 127.8,335.5072 127.8,334.9 C127.8,334.2906 127.3072,333.8 126.7,333.8 L126.7,333.8 Z M126.7,329.4 L120.1,329.4 C119.4928,329.4 119,329.8906 119,330.5 C119,331.1072 119.4928,331.6 120.1,331.6 L126.7,331.6 C127.3072,331.6 127.8,331.1072 127.8,330.5 C127.8,329.8906 127.3072,329.4 126.7,329.4 L126.7,329.4 Z" id="Fill-68"></path>
                </g>
            </g>
        </g>
    </g>
</svg>