<?xml version="1.0" encoding="UTF-8" standalone="no"?>
<svg width="19px" height="5px" viewBox="0 0 19 5" version="1.1" xmlns="http://www.w3.org/2000/svg" xmlns:xlink="http://www.w3.org/1999/xlink" xmlns:sketch="http://www.bohemiancoding.com/sketch/ns">
    <!-- Generator: Sketch 3.2.2 (9983) - http://www.bohemiancoding.com/sketch -->
    <title>Fill 88</title>
    <desc>Created with Sketch.</desc>
    <defs></defs>
    <g id="Page-1" stroke="none" stroke-width="1" fill="none" fill-rule="evenodd" sketch:type="MSPage">
        <g id="Mes-artistes-suivis" sketch:type="MSArtboardGroup" transform="translate(-1388.000000, -400.000000)" fill="#FFFFFF">
            <g id="RIGHT_BAR" sketch:type="MSLayerGroup" transform="translate(1180.000000, 72.000000)">
                <g id="PLAYER_Right" sketch:type="MSShapeGroup">
                    <path d="M224.728261,328 C223.474674,328 222.456522,329.118182 222.456522,330.5 C222.456522,331.879545 223.474674,333 224.728261,333 C225.983913,333 227,331.879545 227,330.5 C227,329.118182 225.983913,328 224.728261,328 L224.728261,328 Z M217.5,328 C216.246413,328 215.228261,329.118182 215.228261,330.5 C215.228261,331.879545 216.246413,333 217.5,333 C218.755652,333 219.771739,331.879545 219.771739,330.5 C219.771739,329.118182 218.755652,328 217.5,328 L217.5,328 Z M210.271739,328 C209.018152,328 208,329.118182 208,330.5 C208,331.879545 209.018152,333 210.271739,333 C211.527391,333 212.543478,331.879545 212.543478,330.5 C212.543478,329.118182 211.527391,328 210.271739,328 L210.271739,328 Z" id="Fill-88"></path>
                </g>
            </g>
        </g>
    </g>
</svg>