<?xml version="1.0" encoding="UTF-8" standalone="no"?>
<svg width="24px" height="21px" viewBox="0 0 24 21" version="1.1" xmlns="http://www.w3.org/2000/svg" xmlns:xlink="http://www.w3.org/1999/xlink" xmlns:sketch="http://www.bohemiancoding.com/sketch/ns">
    <!-- Generator: Sketch 3.2.2 (9983) - http://www.bohemiancoding.com/sketch -->
    <title>Volume Max</title>
    <desc>Created with Sketch.</desc>
    <defs>
        <filter x="-50%" y="-50%" width="200%" height="200%" filterUnits="objectBoundingBox" id="filter-1">
            <feOffset dx="0" dy="1" in="SourceAlpha" result="shadowOffsetOuter1"></feOffset>
            <feGaussianBlur stdDeviation="0.5" in="shadowOffsetOuter1" result="shadowBlurOuter1"></feGaussianBlur>
            <feColorMatrix values="0 0 0 0 0   0 0 0 0 0   0 0 0 0 0  0 0 0 0.35 0" in="shadowBlurOuter1" type="matrix" result="shadowMatrixOuter1"></feColorMatrix>
            <feMerge>
                <feMergeNode in="shadowMatrixOuter1"></feMergeNode>
                <feMergeNode in="SourceGraphic"></feMergeNode>
            </feMerge>
        </filter>
    </defs>
    <g id="Page-1" stroke="none" stroke-width="1" fill="none" fill-rule="evenodd" sketch:type="MSPage">
        <g id="Mes-artistes-suivis" sketch:type="MSArtboardGroup" transform="translate(-1404.000000, -346.000000)" filter="url(#filter-1)" fill="#FFFFFF" opacity="0.9">
            <g id="RIGHT_BAR" sketch:type="MSLayerGroup" transform="translate(1180.000000, 72.000000)">
                <g id="PLAYER_Right" sketch:type="MSShapeGroup">
                    <g id="Control_bar" transform="translate(0.000000, 259.507689)">
                        <path d="M228.759375,21.6656256 L232.456076,19.0508869 C233.331198,18.4318982 234.040625,18.8104191 234.040625,19.8752902 L234.040625,28.7924136 C234.040625,29.8667077 233.328372,30.2338067 232.456076,29.6168169 L228.759375,27.0020782 L227.019189,27.0020782 C225.93854,27.0020782 225.0625,26.1208716 225.0625,25.0452822 L225.0625,23.6224216 C225.0625,22.541713 225.938608,21.6656256 227.019189,21.6656256 L228.759375,21.6656256 Z M242.999737,15.4374517 C242.824928,15.2255945 242.515975,15.1994459 242.309478,15.3787507 C242.102981,15.5580555 242.077631,15.8755744 242.252441,16.0874316 C244.157916,18.3997165 245.207828,21.3427702 245.207828,24.3744089 C245.207828,27.3692262 244.181681,30.2839966 242.3174,32.5818731 C242.144175,32.7953312 242.172694,33.1123165 242.380247,33.2900204 C242.472141,33.3679326 242.583047,33.4063551 242.693425,33.4063551 C242.833906,33.4063551 242.973331,33.3449859 243.070506,33.2254493 C245.080022,30.7466671 246.1875,27.6029628 246.1875,24.3738753 C246.1875,21.1042307 245.0552,17.9306423 242.999737,15.4374517 Z M240.031147,17.7534721 C239.852112,17.5453505 239.542631,17.5250719 239.339831,17.7086459 C239.136503,17.8922199 239.116962,18.2097388 239.295997,18.4183941 C240.708203,20.0641561 241.485603,22.179526 241.485603,24.3738753 C241.485603,26.5292685 240.732497,28.6147542 239.365181,30.2471751 C239.189316,30.457965 239.212553,30.7749503 239.417994,30.9563897 C239.510416,31.0375037 239.623962,31.0775271 239.736981,31.0775271 C239.874294,31.0775271 240.011606,31.0182925 240.108253,30.9024915 C241.627669,29.0880976 242.464747,26.7694089 242.464747,24.3738753 C242.465275,21.9340491 241.600734,19.5833417 240.031147,17.7534721 Z M236.299944,20.0956412 C236.105594,20.2888208 236.100841,20.607407 236.288853,20.8064567 C237.197756,21.7691527 237.697891,23.0360266 237.697891,24.3738753 C237.697891,25.6700996 237.224691,26.9086903 236.364903,27.8601798 C236.180588,28.0634987 236.192734,28.3815512 236.391309,28.5704617 C236.485316,28.6601141 236.604672,28.7044066 236.724028,28.7044066 C236.855531,28.7044066 236.986506,28.6505085 237.083681,28.5437794 C238.111413,27.4055141 238.678091,25.9251821 238.678091,24.3738753 C238.678091,22.7729395 238.079725,21.2579206 236.993372,20.1068477 C236.804831,19.9072644 236.494294,19.9024616 236.299944,20.0956412 Z" id="Volume-Max"></path>
                    </g>
                </g>
            </g>
        </g>
    </g>
</svg>