<?xml version="1.0" encoding="UTF-8" standalone="no"?>
<svg width="17px" height="17px" viewBox="0 0 17 17" version="1.1" xmlns="http://www.w3.org/2000/svg" xmlns:xlink="http://www.w3.org/1999/xlink" xmlns:sketch="http://www.bohemiancoding.com/sketch/ns">
    <!-- Generator: Sketch 3.2.2 (9983) - http://www.bohemiancoding.com/sketch -->
    <title>Next</title>
    <desc>Created with Sketch.</desc>
    <defs>
        <filter x="-50%" y="-50%" width="200%" height="200%" filterUnits="objectBoundingBox" id="filter-1">
            <feOffset dx="0" dy="1" in="SourceAlpha" result="shadowOffsetOuter1"></feOffset>
            <feGaussianBlur stdDeviation="0.5" in="shadowOffsetOuter1" result="shadowBlurOuter1"></feGaussianBlur>
            <feColorMatrix values="0 0 0 0 0   0 0 0 0 0   0 0 0 0 0  0 0 0 0.35 0" in="shadowBlurOuter1" type="matrix" result="shadowMatrixOuter1"></feColorMatrix>
            <feMerge>
                <feMergeNode in="shadowMatrixOuter1"></feMergeNode>
                <feMergeNode in="SourceGraphic"></feMergeNode>
            </feMerge>
        </filter>
    </defs>
    <g id="Page-1" stroke="none" stroke-width="1" fill="none" fill-rule="evenodd" sketch:type="MSPage">
        <g id="Mes-artistes-suivis" sketch:type="MSArtboardGroup" transform="translate(-1360.000000, -348.000000)" filter="url(#filter-1)" fill="#FFFFFF">
            <g id="RIGHT_BAR" sketch:type="MSLayerGroup" transform="translate(1180.000000, 72.000000)">
                <g id="PLAYER_Right" sketch:type="MSShapeGroup">
                    <g id="Control_bar" transform="translate(0.000000, 259.507689)">
                        <path d="M194.035156,16.9093896 C192.982969,16.9093896 192.257812,17.2379646 192.257812,18.3106653 L192.257812,29.5281186 C192.257812,30.6008193 192.982969,30.9318103 194.035156,30.9318103 C195.087344,30.9318103 195.8125,30.6008193 195.8125,29.5281186 L195.8125,18.3106653 C195.8125,17.2379646 195.087344,16.9093896 194.035156,16.9093896 L194.035156,16.9093896 Z M191.37388,23.3866656 L182.752578,17.8661226 C182.115104,17.438492 181.59375,17.752571 181.59375,18.5619285 L181.59375,29.2768554 C181.59375,30.0862129 182.115104,30.4002919 182.752578,29.9750772 L191.37388,24.4545343 C191.37388,24.4545343 191.684323,24.232263 191.684323,23.9205999 C191.684323,23.6089369 191.37388,23.3866656 191.37388,23.3866656 L191.37388,23.3866656 Z" id="Next"></path>
                    </g>
                </g>
            </g>
        </g>
    </g>
</svg>