<?xml version="1.0" encoding="UTF-8" standalone="no"?>
<svg width="20px" height="25px" viewBox="0 0 20 25" version="1.1" xmlns="http://www.w3.org/2000/svg" xmlns:xlink="http://www.w3.org/1999/xlink" xmlns:sketch="http://www.bohemiancoding.com/sketch/ns">
    <!-- Generator: Sketch 3.2.2 (9983) - http://www.bohemiancoding.com/sketch -->
    <title>Pause</title>
    <desc>Created with Sketch.</desc>
    <defs>
        <filter x="-50%" y="-50%" width="200%" height="200%" filterUnits="objectBoundingBox" id="filter-1">
            <feOffset dx="0" dy="1" in="SourceAlpha" result="shadowOffsetOuter1"></feOffset>
            <feGaussianBlur stdDeviation="0.5" in="shadowOffsetOuter1" result="shadowBlurOuter1"></feGaussianBlur>
            <feColorMatrix values="0 0 0 0 0   0 0 0 0 0   0 0 0 0 0  0 0 0 0.35 0" in="shadowBlurOuter1" type="matrix" result="shadowMatrixOuter1"></feColorMatrix>
            <feMerge>
                <feMergeNode in="shadowMatrixOuter1"></feMergeNode>
                <feMergeNode in="SourceGraphic"></feMergeNode>
            </feMerge>
        </filter>
    </defs>
    <g id="Page-1" stroke="none" stroke-width="1" fill="none" fill-rule="evenodd" sketch:type="MSPage">
        <g id="Mes-artistes-suivis" sketch:type="MSArtboardGroup" transform="translate(-1300.000000, -344.000000)" filter="url(#filter-1)" fill="#FFFFFF">
            <g id="RIGHT_BAR" sketch:type="MSLayerGroup" transform="translate(1180.000000, 72.000000)">
                <g id="PLAYER_Right" sketch:type="MSShapeGroup">
                    <g id="Control_bar" transform="translate(0.000000, 259.507689)">
                        <path d="M135.416667,13.1975724 C133.921065,13.1975724 132.708333,13.6753363 132.708333,15.2272883 L132.708333,33.0263357 C132.708333,34.5782877 133.921065,35.0560516 135.416667,35.0560516 C136.912269,35.0560516 138.125,34.5782877 138.125,33.0263357 L138.125,15.2272883 C138.125,13.6753363 136.912269,13.1975724 135.416667,13.1975724 Z M124.583333,13.1975724 C123.087731,13.1975724 121.875,13.6753363 121.875,15.2272883 L121.875,33.0263357 C121.875,34.5782877 123.087731,35.0560516 124.583333,35.0560516 C126.078935,35.0560516 127.291667,34.5782877 127.291667,33.0263357 L127.291667,15.2272883 C127.291667,13.6753363 126.078935,13.1975724 124.583333,13.1975724 Z" id="Pause"></path>
                    </g>
                </g>
            </g>
        </g>
    </g>
</svg>