<?xml version="1.0" encoding="UTF-8" standalone="no"?>
<svg width="17px" height="17px" viewBox="0 0 17 17" version="1.1" xmlns="http://www.w3.org/2000/svg" xmlns:xlink="http://www.w3.org/1999/xlink" xmlns:sketch="http://www.bohemiancoding.com/sketch/ns">
    <!-- Generator: Sketch 3.2.2 (9983) - http://www.bohemiancoding.com/sketch -->
    <title>Previous</title>
    <desc>Created with Sketch.</desc>
    <defs>
        <filter x="-50%" y="-50%" width="200%" height="200%" filterUnits="objectBoundingBox" id="filter-1">
            <feOffset dx="0" dy="1" in="SourceAlpha" result="shadowOffsetOuter1"></feOffset>
            <feGaussianBlur stdDeviation="0.5" in="shadowOffsetOuter1" result="shadowBlurOuter1"></feGaussianBlur>
            <feColorMatrix values="0 0 0 0 0   0 0 0 0 0   0 0 0 0 0  0 0 0 0.35 0" in="shadowBlurOuter1" type="matrix" result="shadowMatrixOuter1"></feColorMatrix>
            <feMerge>
                <feMergeNode in="shadowMatrixOuter1"></feMergeNode>
                <feMergeNode in="SourceGraphic"></feMergeNode>
            </feMerge>
        </filter>
    </defs>
    <g id="Page-1" stroke="none" stroke-width="1" fill="none" fill-rule="evenodd" sketch:type="MSPage">
        <g id="Mes-artistes-suivis" sketch:type="MSArtboardGroup" transform="translate(-1243.000000, -348.000000)" filter="url(#filter-1)" fill="#FFFFFF">
            <g id="RIGHT_BAR" sketch:type="MSLayerGroup" transform="translate(1180.000000, 72.000000)">
                <g id="PLAYER_Right" sketch:type="MSShapeGroup">
                    <g id="Control_bar" transform="translate(0.000000, 259.507689)">
                        <path d="M76.6289062,16.9093896 C75.5767187,16.9093896 74.8515625,17.2379646 74.8515625,18.3106653 L74.8515625,29.5281186 C74.8515625,30.6008193 75.5767187,30.9318103 76.6289062,30.9318103 C77.6810937,30.9318103 78.40625,30.6008193 78.40625,29.5281186 L78.40625,18.3106653 C78.40625,17.2379646 77.6810937,16.9093896 76.6289062,16.9093896 L76.6289062,16.9093896 Z M73.9676302,23.3866656 L65.3463281,17.8661226 C64.7088542,17.438492 64.1875,17.752571 64.1875,18.5619285 L64.1875,29.2768554 C64.1875,30.0862129 64.7088542,30.4002919 65.3463281,29.9750772 L73.9676302,24.4545343 C73.9676302,24.4545343 74.2780729,24.232263 74.2780729,23.9205999 C74.2780729,23.6089369 73.9676302,23.3866656 73.9676302,23.3866656 L73.9676302,23.3866656 Z" id="Previous" transform="translate(71.296875, 23.920600) scale(-1, 1) translate(-71.296875, -23.920600) "></path>
                    </g>
                </g>
            </g>
        </g>
    </g>
</svg>