<?xml version="1.0" encoding="UTF-8" standalone="no"?>
<svg width="17px" height="15px" viewBox="0 0 17 15" version="1.1" xmlns="http://www.w3.org/2000/svg" xmlns:xlink="http://www.w3.org/1999/xlink" xmlns:sketch="http://www.bohemiancoding.com/sketch/ns">
    <!-- Generator: Sketch 3.2.2 (9983) - http://www.bohemiancoding.com/sketch -->
    <title>Fill 102</title>
    <desc>Created with Sketch.</desc>
    <defs></defs>
    <g id="Page-1" stroke="none" stroke-width="1" fill="none" fill-rule="evenodd" sketch:type="MSPage">
        <g id="Mes-artistes-suivis" sketch:type="MSArtboardGroup" transform="translate(-1215.000000, -395.000000)" fill="#FFFFFF">
            <g id="RIGHT_BAR" sketch:type="MSLayerGroup" transform="translate(1180.000000, 72.000000)">
                <g id="PLAYER_Right" sketch:type="MSShapeGroup">
                    <path d="M49.5527907,329.831 L43.5,335.952929 L37.4472093,329.831 C36.8363953,329.2235 36.599186,328.424857 36.599186,327.581643 C36.599186,326.738643 36.7355814,326.046929 37.3463953,325.439643 C37.8860465,324.902643 38.6115116,324.607143 39.3863953,324.607143 C40.1612791,324.607143 40.8867442,325.116929 41.4244186,325.653929 L43.5,327.610786 L45.5755814,325.653929 C46.1132558,325.116929 46.8387209,324.607143 47.6136047,324.607143 C48.3904651,324.607143 49.1139535,324.902643 49.6536047,325.439643 C50.2644186,326.046929 50.400814,326.738643 50.400814,327.581643 C50.400814,328.424857 50.1636047,329.2235 49.5527907,329.831 L49.5527907,329.831 Z M50.6063953,324.233 C48.9538372,322.589 46.2753488,322.589 44.6227907,324.233 L43.5,325.349214 L42.3772093,324.233 C40.7246512,322.589 38.0461628,322.589 36.3936047,324.233 C34.5354651,326.0825 34.5354651,329.081 36.3936047,330.930286 L43.5,338 L50.6063953,330.930286 C52.4645349,329.081 52.4645349,326.0825 50.6063953,324.233 L50.6063953,324.233 Z" id="Fill-102"></path>
                </g>
            </g>
        </g>
    </g>
</svg>