<?xml version="1.0" encoding="UTF-8" standalone="no"?>
<svg width="18px" height="20px" viewBox="0 0 18 20" version="1.1" xmlns="http://www.w3.org/2000/svg" xmlns:xlink="http://www.w3.org/1999/xlink" xmlns:sketch="http://www.bohemiancoding.com/sketch/ns">
    <!-- Generator: Sketch 3.2.2 (9983) - http://www.bohemiancoding.com/sketch -->
    <title>Fill 275</title>
    <desc>Created with Sketch.</desc>
    <defs></defs>
    <g id="Page-1" stroke="none" stroke-width="1" fill="none" fill-rule="evenodd" sketch:type="MSPage">
        <g id="APP---Profil-Uploads" sketch:type="MSArtboardGroup" transform="translate(-1131.000000, -693.000000)" fill="#EF9E19">
            <g id="Center" sketch:type="MSLayerGroup" transform="translate(260.000000, 72.000000)">
                <g id="ABONNÉS" transform="translate(0.000000, 325.000000)" sketch:type="MSShapeGroup">
                    <g id="Up1" transform="translate(0.000000, 221.000000)">
                        <g id="Voir-TOut" transform="translate(871.000000, 75.000000)">
                            <path d="M3.375,13.3333333 L0.9,13.3333333 C0.279,13.3333333 0,13.8288889 0,14.4444444 L0,20 L4.5,20 L4.5,14.4444444 C4.5,13.8288889 3.996,13.3333333 3.375,13.3333333 L3.375,13.3333333 Z M10.125,6.66666667 L7.65,6.66666667 C7.029,6.66666667 6.75,7.16222222 6.75,7.77777778 L6.75,20 L11.25,20 L11.25,7.77777778 C11.25,7.16222222 10.746,6.66666667 10.125,6.66666667 L10.125,6.66666667 Z M16.875,0 L14.4,0 C13.779,0 13.5,0.495555556 13.5,1.11111111 L13.5,20 L18,20 L18,1.11111111 C18,0.495555556 17.496,0 16.875,0 L16.875,0 Z" id="Fill-275"></path>
                        </g>
                    </g>
                </g>
            </g>
        </g>
    </g>
</svg>