<?xml version="1.0" encoding="UTF-8" standalone="no"?>
<svg width="18px" height="20px" viewBox="0 0 18 20" version="1.1" xmlns="http://www.w3.org/2000/svg" xmlns:xlink="http://www.w3.org/1999/xlink" xmlns:sketch="http://www.bohemiancoding.com/sketch/ns">
    <!-- Generator: Sketch 3.2.2 (9983) - http://www.bohemiancoding.com/sketch -->
    <title>Fill 275</title>
    <desc>Created with Sketch.</desc>
    <defs></defs>
    <g id="Page-1" stroke="none" stroke-width="1" fill="none" fill-rule="evenodd" sketch:type="MSPage">
        <g id="APP---Profil-Uploads" sketch:type="MSArtboardGroup" transform="translate(-1013.000000, -523.000000)" fill="#FFFFFF">
            <g id="Center" sketch:type="MSLayerGroup" transform="translate(260.000000, 72.000000)">
                <g id="ABONNÉS" transform="translate(0.000000, 325.000000)" sketch:type="MSShapeGroup">
                    <g id="Up1" transform="translate(0.000000, 51.000000)">
                        <g id="HOVER---Voir-tout" transform="translate(740.000000, 65.000000)">
                            <path d="M16.375,23.3333333 L13.9,23.3333333 C13.279,23.3333333 13,23.8288889 13,24.4444444 L13,30 L17.5,30 L17.5,24.4444444 C17.5,23.8288889 16.996,23.3333333 16.375,23.3333333 L16.375,23.3333333 Z M23.125,16.6666667 L20.65,16.6666667 C20.029,16.6666667 19.75,17.1622222 19.75,17.7777778 L19.75,30 L24.25,30 L24.25,17.7777778 C24.25,17.1622222 23.746,16.6666667 23.125,16.6666667 L23.125,16.6666667 Z M29.875,10 L27.4,10 C26.779,10 26.5,10.4955556 26.5,11.1111111 L26.5,30 L31,30 L31,11.1111111 C31,10.4955556 30.496,10 29.875,10 L29.875,10 Z" id="Fill-275"></path>
                        </g>
                    </g>
                </g>
            </g>
        </g>
    </g>
</svg>