<?xml version="1.0" encoding="UTF-8" standalone="no"?>
<svg width="33px" height="37px" viewBox="0 0 33 37" version="1.1" xmlns="http://www.w3.org/2000/svg" xmlns:xlink="http://www.w3.org/1999/xlink" xmlns:sketch="http://www.bohemiancoding.com/sketch/ns">
    <!-- Generator: Sketch 3.2.2 (9983) - http://www.bohemiancoding.com/sketch -->
    <title>Fill 281</title>
    <desc>Created with Sketch.</desc>
    <defs>
        <filter x="-50%" y="-50%" width="200%" height="200%" filterUnits="objectBoundingBox" id="filter-1">
            <feOffset dx="0" dy="2" in="SourceAlpha" result="shadowOffsetOuter1"></feOffset>
            <feGaussianBlur stdDeviation="1" in="shadowOffsetOuter1" result="shadowBlurOuter1"></feGaussianBlur>
            <feColorMatrix values="0 0 0 0 0   0 0 0 0 0   0 0 0 0 0  0 0 0 0.35 0" in="shadowBlurOuter1" type="matrix" result="shadowMatrixOuter1"></feColorMatrix>
            <feMerge>
                <feMergeNode in="shadowMatrixOuter1"></feMergeNode>
                <feMergeNode in="SourceGraphic"></feMergeNode>
            </feMerge>
        </filter>
    </defs>
    <g id="Page-1" stroke="none" stroke-width="1" fill="none" fill-rule="evenodd" sketch:type="MSPage">
        <g id="One-Page-Inscription_V0" sketch:type="MSArtboardGroup" transform="translate(-904.000000, -1830.000000)" filter="url(#filter-1)" fill="#FFFFFF">
            <g id="MÉLOMANE" sketch:type="MSLayerGroup" transform="translate(-1.000000, 1416.000000)">
                <g id="Picto2" transform="translate(824.000000, 381.000000)" sketch:type="MSShapeGroup">
                    <g id="Oval-5-+-Fill-281" transform="translate(48.000000, 0.000000)">
                        <path d="M40.4375,44.8397133 C39.2456,44.8397133 35,45.573045 35,50.562634 L35,59.4506144 C35,64.4405701 39.2456,64.9905689 40.4375,64.9905689 C41.6290375,64.9905689 38.625,63.9408045 38.625,60.8487113 L38.625,49.1649037 C38.625,45.9228442 41.6290375,44.8397133 40.4375,44.8397133 L40.4375,44.8397133 Z M56.1123625,44.6651803 C55.8738375,44.0136151 62.52825,38.0021283 58.6462375,33.1309724 C57.73745,31.9910082 54.6565625,38.585127 50.280825,41.5708871 C47.8669375,43.2179502 42.25,46.7240091 42.25,48.6607382 L42.25,61.2010772 C42.25,63.5330721 51.1562625,66 57.926675,66 C60.40545,66 64,50.2788346 64,47.7811068 C64,45.2742123 56.35125,45.3171122 56.1123625,44.6651803 L56.1123625,44.6651803 Z" id="Fill-281"></path>
                    </g>
                </g>
            </g>
        </g>
    </g>
</svg>