<?xml version="1.0" encoding="UTF-8" standalone="no"?>
<svg width="19px" height="19px" viewBox="0 0 19 19" version="1.1" xmlns="http://www.w3.org/2000/svg" xmlns:xlink="http://www.w3.org/1999/xlink" xmlns:sketch="http://www.bohemiancoding.com/sketch/ns">
    <!-- Generator: Sketch 3.2.2 (9983) - http://www.bohemiancoding.com/sketch -->
    <title>Fill 25 + Oval 63</title>
    <desc>Created with Sketch.</desc>
    <defs></defs>
    <g id="Page-1" stroke="none" stroke-width="1" fill="none" fill-rule="evenodd" sketch:type="MSPage">
        <g id="Home-APP-DropDown" sketch:type="MSArtboardGroup" transform="translate(-804.000000, -680.000000)">
            <g id="Center" sketch:type="MSLayerGroup" transform="translate(-7.000000, 2.000000)">
                <g id="Dropdown-Add-Playlist" transform="translate(797.000000, 607.000000)" sketch:type="MSShapeGroup">
                    <g id="Name_playlist-9" transform="translate(15.000000, 71.000000)">
                        <g id="Add_btn" transform="translate(0.000000, 1.000000)">
                            <g id="Fill-25-+-Oval-63">
                                <path d="M12.0488506,7.81752874 L9.18247126,7.81752874 L9.18247126,4.95114943 C9.18247126,4.57306034 8.87699713,4.54166667 8.5,4.54166667 C8.12313937,4.54166667 7.81752874,4.57306034 7.81752874,4.95114943 L7.81752874,7.81752874 L4.95114943,7.81752874 C4.57428879,7.81752874 4.54166667,8.12191092 4.54166667,8.5 C4.54166667,8.87672414 4.57428879,9.18247126 4.95114943,9.18247126 L7.81752874,9.18247126 L7.81752874,12.0488506 C7.81752874,12.4255747 8.12313937,12.4583333 8.5,12.4583333 C8.87699713,12.4583333 9.18247126,12.4255747 9.18247126,12.0488506 L9.18247126,9.18247126 L12.0488506,9.18247126 C12.4258477,9.18247126 12.4583333,8.87672414 12.4583333,8.5 C12.4583333,8.12191092 12.4258477,7.81752874 12.0488506,7.81752874" id="Fill-25" fill="#FFFFFF"></path>
                                <circle id="Oval-63" stroke="#FFFFFF" stroke-width="1.60000002" cx="8.5" cy="8.5" r="8.5"></circle>
                            </g>
                        </g>
                    </g>
                </g>
            </g>
        </g>
    </g>
</svg>