<?xml version="1.0" encoding="UTF-8" standalone="no"?>
<svg width="25px" height="25px" viewBox="0 0 25 25" version="1.1" xmlns="http://www.w3.org/2000/svg" xmlns:xlink="http://www.w3.org/1999/xlink" xmlns:sketch="http://www.bohemiancoding.com/sketch/ns">
    <!-- Generator: Sketch 3.2.2 (9983) - http://www.bohemiancoding.com/sketch -->
    <title>Oval 162 + Fill 89</title>
    <desc>Created with Sketch.</desc>
    <defs></defs>
    <g id="Page-1" stroke="none" stroke-width="1" fill="none" fill-rule="evenodd" sketch:type="MSPage">
        <g id="APP---Playlist" sketch:type="MSArtboardGroup" transform="translate(-1147.000000, -299.000000)">
            <g id="CENTER" sketch:type="MSLayerGroup" transform="translate(258.000000, 102.000000)">
                <g id="Ligne-01" transform="translate(0.000000, 189.000000)" sketch:type="MSShapeGroup">
                    <g id="See_more-2" transform="translate(890.000000, 9.000000)">
                        <g id="Oval-162-+-Fill-89">
                            <circle id="Oval-162" stroke="#9B9B9B" cx="11.5" cy="11.5" r="11.5"></circle>
                            <path d="M16.5378788,9.75757576 C15.6641667,9.75757576 14.9545455,10.5369146 14.9545455,11.5 C14.9545455,12.4615014 15.6641667,13.2424242 16.5378788,13.2424242 C17.4130303,13.2424242 18.1212121,12.4615014 18.1212121,11.5 C18.1212121,10.5369146 17.4130303,9.75757576 16.5378788,9.75757576 L16.5378788,9.75757576 Z M11.5,9.75757576 C10.6262879,9.75757576 9.91666667,10.5369146 9.91666667,11.5 C9.91666667,12.4615014 10.6262879,13.2424242 11.5,13.2424242 C12.3751515,13.2424242 13.0833333,12.4615014 13.0833333,11.5 C13.0833333,10.5369146 12.3751515,9.75757576 11.5,9.75757576 L11.5,9.75757576 Z M6.46212121,9.75757576 C5.58840909,9.75757576 4.87878788,10.5369146 4.87878788,11.5 C4.87878788,12.4615014 5.58840909,13.2424242 6.46212121,13.2424242 C7.33727273,13.2424242 8.04545455,12.4615014 8.04545455,11.5 C8.04545455,10.5369146 7.33727273,9.75757576 6.46212121,9.75757576 L6.46212121,9.75757576 Z" id="Fill-89" fill="#9B9B9B"></path>
                        </g>
                    </g>
                </g>
            </g>
        </g>
    </g>
</svg>