<?xml version="1.0" encoding="UTF-8" standalone="no"?>
<svg width="14px" height="17px" viewBox="0 0 14 17" version="1.1" xmlns="http://www.w3.org/2000/svg" xmlns:xlink="http://www.w3.org/1999/xlink" xmlns:sketch="http://www.bohemiancoding.com/sketch/ns">
    <!-- Generator: Sketch 3.2.2 (9983) - http://www.bohemiancoding.com/sketch -->
    <title>Fill 236</title>
    <desc>Created with Sketch.</desc>
    <defs></defs>
    <g id="Page-1" stroke="none" stroke-width="1" fill="none" fill-rule="evenodd" sketch:type="MSPage">
        <g id="APP---Profil-Uploads" sketch:type="MSArtboardGroup" transform="translate(-317.000000, -458.000000)" fill-opacity="0.15" fill="#0A0B09">
            <g id="Center" sketch:type="MSLayerGroup" transform="translate(260.000000, 72.000000)">
                <g id="ABONNÉS" transform="translate(0.000000, 325.000000)" sketch:type="MSShapeGroup">
                    <g id="Up1" transform="translate(0.000000, 51.000000)">
                        <path d="M65.9047368,13.3096875 L64.7515789,12.125 L63.2465789,12.125 L62.0934211,13.3096875 L60.5276316,13.3096875 C60.5276316,13.3096875 62.2426316,11.3440625 62.4728947,11.0784375 C62.6478947,10.8730208 62.8265789,10.796875 63.0586842,10.796875 L64.9394737,10.796875 C65.1715789,10.796875 65.3502632,10.8730208 65.5271053,11.0784375 C65.7555263,11.3440625 67.4705263,13.3096875 67.4705263,13.3096875 L65.9047368,13.3096875 L65.9047368,13.3096875 Z M66.9160526,11.3369792 L66.1239474,10.4940625 C65.82,10.0761458 65.4884211,10 64.8436842,10 L63.1563158,10 C62.5097368,10 62.1781579,10.0761458 61.8742105,10.4940625 L61.0821053,11.3369792 C58.715,11.7354167 57,12.7890625 57,13.5664583 L57,13.71875 C57,15.0876042 60.1334211,16.1979167 64,16.1979167 C67.8647368,16.1979167 71,15.0876042 71,13.71875 L71,13.5664583 C71,12.7890625 69.2831579,11.7354167 66.9160526,11.3369792 L66.9160526,11.3369792 Z M57.91,16.65125 L58.925,25.246875 C58.9784211,25.6559375 61.0305263,26.9964583 64,27 C66.9676316,26.9964583 69.0197368,25.6559375 69.075,25.246875 L70.0881579,16.65125 C68.5389474,17.4835417 66.2197368,17.8802083 64,17.8802083 C61.7784211,17.8802083 59.4592105,17.4835417 57.91,16.65125 L57.91,16.65125 Z" id="Fill-236"></path>
                    </g>
                </g>
            </g>
        </g>
    </g>
</svg>