<?xml version="1.0" encoding="UTF-8" standalone="no"?>
<svg width="27px" height="24px" viewBox="0 0 27 24" version="1.1" xmlns="http://www.w3.org/2000/svg" xmlns:xlink="http://www.w3.org/1999/xlink" xmlns:sketch="http://www.bohemiancoding.com/sketch/ns">
    <!-- Generator: Sketch 3.2.2 (9983) - http://www.bohemiancoding.com/sketch -->
    <title>Shape</title>
    <desc>Created with Sketch.</desc>
    <defs></defs>
    <g id="Page-1" stroke="none" stroke-width="1" fill="none" fill-rule="evenodd" sketch:type="MSPage">
        <g id="Home-APP-Upload" sketch:type="MSArtboardGroup" transform="translate(-1391.000000, -24.000000)" fill="#FFFFFF">
            <g id="HEADER" sketch:type="MSLayerGroup">
                <g id="Upload_btn" transform="translate(1368.000000, 0.000000)" sketch:type="MSShapeGroup">
                    <path d="M46.8236,34.4363352 L40.6295,34.4363352 L40.6295,35.2143284 L46.0295,35.2143284 L48.4118,39.4155499 L42.0587,39.4155499 L39.6764,42.0607853 L33.3236,42.0607853 L30.9413,39.4155499 L24.5882,39.4155499 L26.9705,35.2143284 L32.6882,35.2143284 L32.6882,34.4363352 L26.1764,34.4363352 L23,39.4158439 L23,47.04 L50,47.04 L50,39.4158439 L46.8236,34.4363352 L46.8236,34.4363352 Z M31.0331,30.8720276 L33.4826,30.8726154 L33.4826,37.8595637 C33.4826,38.3753846 33.9092,38.7933318 34.4354,38.7933318 L38.8826,38.7933318 C39.4088,38.7933318 39.8354,38.3753846 39.8354,37.8595637 L39.8354,30.8726154 L42.2729,30.8720276 C43.2365,30.8720276 43.0961,29.9317933 42.7298,29.5729231 L37.316,24.2689323 C36.9497,23.9103559 36.356,23.9103559 35.99,24.2689323 L30.5759,29.5729231 C30.2096,29.9317933 30.0749,30.8720276 31.0331,30.8720276 L31.0331,30.8720276 Z" id="Shape"></path>
                </g>
            </g>
        </g>
    </g>
</svg>