<?xml version="1.0" encoding="UTF-8" standalone="no"?>
<svg width="20px" height="19px" viewBox="0 0 20 19" version="1.1" xmlns="http://www.w3.org/2000/svg" xmlns:xlink="http://www.w3.org/1999/xlink" xmlns:sketch="http://www.bohemiancoding.com/sketch/ns">
    <!-- Generator: Sketch 3.2.2 (9983) - http://www.bohemiancoding.com/sketch -->
    <title>Fill 55</title>
    <desc>Created with Sketch.</desc>
    <defs></defs>
    <g id="Page-1" stroke="none" stroke-width="1" fill="none" fill-rule="evenodd" sketch:type="MSPage">
        <g id="Home-APP-Upload" sketch:type="MSArtboardGroup" transform="translate(-20.000000, -152.000000)" fill="#49403B">
            <g id="LEFT_BAR" sketch:type="MSLayerGroup" transform="translate(0.000000, 71.000000)">
                <g id="Mes-Artistes-Suivis" transform="translate(20.000000, 80.940044)" sketch:type="MSShapeGroup">
                    <path d="M10.224,13.6465505 C8.246,12.8015855 7.614,12.0888635 7.614,10.5630619 C7.614,9.64655895 8.218,9.94599623 8.482,8.26812546 C8.592,7.57236811 9.126,8.25688379 9.228,6.66792443 C9.228,6.03471166 8.936,5.87732824 8.936,5.87732824 C8.936,5.87732824 9.084,4.9405903 9.142,4.2192837 C9.214,3.32056305 8.7,0.999259808 5.954,0.999259808 C3.21,0.999259808 2.694,3.32056305 2.766,4.2192837 C2.824,4.9405903 2.972,5.87732824 2.972,5.87732824 C2.972,5.87732824 2.68,6.03471166 2.68,6.66792443 C2.784,8.25688379 3.316,7.57236811 3.426,8.26812546 C3.692,9.94599623 4.296,9.64655895 4.296,10.5630619 C4.296,12.0888635 3.664,12.8015855 1.686,13.6465505 C1.082,13.904087 0,14.3028598 0,15.2624899 L0,18.9859363 L13.894,18.9859363 L13.894,16.194118 C13.894,15.3186983 12.208,14.4943771 10.224,13.6465505 L10.224,13.6465505 Z M20,18.9859363 C20,18.9859363 19.96,15.1159394 19.73,14.7147138 C19.386,14.1174744 18.584,13.7068468 17.096,13.0711813 C15.612,12.4375597 15.138,11.9030693 15.138,10.7582582 C15.138,10.070881 15.59,10.2955101 15.79,9.03746467 C15.872,8.51523787 16.272,9.02867573 16.348,7.8372628 C16.348,7.36225103 16.13,7.24411126 16.13,7.24411126 C16.13,7.24411126 16.242,6.54160891 16.284,6.00057785 C16.338,5.32648627 15.952,3.58545774 13.894,3.58545774 C11.834,3.58545774 11.448,5.32648627 11.502,6.00057785 C11.546,6.54160891 11.656,7.24411126 11.656,7.24411126 C11.656,7.24411126 11.438,7.36225103 11.438,7.8372628 C11.516,9.02867573 11.914,8.51523787 11.998,9.03746467 C12.196,10.2955101 12.65,10.070881 12.65,10.7582582 C12.65,11.5365907 12.43,12.0328595 11.822,12.4700584 C15.062,14.1278985 15.498,14.4657619 15.498,15.9478232 L15.498,18.9859363 L20,18.9859363 L20,18.9859363 Z" id="Fill-55"></path>
                </g>
            </g>
        </g>
    </g>
</svg>